<svg xmlns="http://www.w3.org/2000/svg" width="640" height="480" color-interpolation-filters="sRGB" style="background: transparent;">
  <defs>
    <clipPath id="b" transform="matrix(1 0 0 1 -16 -16)">
      <use href="#a"/>
    </clipPath>
    <path id="a" width="608" height="412" x="16" y="16" fill="none" d="m16 16 608 0 0 412-608 0z"/>
  </defs>
  <g>
    <g fill="none">
      <g fill="none" class="view">
        <g>
          <path width="640" height="480" x="0" y="0" fill="rgba(0,0,0,0)" d="m0 0 640 0 0 480-640 0z" class="area"/>
        </g>
        <g>
          <path width="608" height="448" x="16" y="16" fill="rgba(0,0,0,0)" d="m16 16 608 0 0 448-608 0z" class="area"/>
        </g>
        <g>
          <path width="608" height="412" x="16" y="16" fill="rgba(0,0,0,0)" d="m16 16 608 0 0 412-608 0z" class="area"/>
        </g>
        <g>
          <path width="608" height="412" x="16" y="16" fill="rgba(0,0,0,0)" d="m16 16 608 0 0 412-608 0z" class="area"/>
        </g>
        <g fill="none" class="component">
          <g fill="none" class="slider">
            <g>
              <path width="608" height="16" x="16" y="440" fill="rgba(65,97,128,1)" d="m16 440 608 0 0 16-608 0z" class="slider-track" opacity=".05"/>
            </g>
            <g fill="none" class="slider-sparkline-group">
              <g fill="none" class="slider-sparkline">
                <g>
                  <path fill="none" class="container"/>
                </g>
                <g fill="none" class="spark sparkline" transform="matrix(1 0 0 1 16 440)">
                  <g fill="none">
                    <g>
                      <path fill="none" stroke="rgba(131,218,173,1)" stroke-width="1" d="M0 5.746c0 0 14.3254 8.4574 24.32 8.4574 9.4614 0 14.5953-.935 24.32-1.6345 9.7313-.6999 15.0082 0 24.32-1.8638 10.1442-2.0304 14.7888-10.7051 24.32-10.7051 9.9248 0 13.9659 12.8013 24.32 13.1948 9.1019.3459 14.699.3459 24.32.3459 9.835 0 14.4896-4.0398 24.32-5.1682 9.6256-1.1048 14.8755-1.1048 24.32-1.1048 10.0115 0 14.306 8.6322 24.32 8.6322 9.442 0 14.6583 0 24.32-.7843 9.7943-.795 14.5404-4.1216 24.32-4.1216 9.6764 0 14.6962 2.0513 24.32 2.0513 9.8322 0 14.4744-4.5188 24.32-5.5027 9.6104-.9604 14.7854-.9604 24.32-.9604 9.9214 0 14.417 5.1554 24.32 7.0675 9.553 1.8444 14.7889 2.3237 24.32 2.3237 9.9249 0 14.3738-7.0148 24.32-7.4653 9.5098-.4308 14.64 0 24.32-.4308 9.776-.435 14.792-3.4577 24.32-3.4577 9.928 0 14.3642 5.8848 24.32 7.9797 9.5002 1.999 14.5837 2.2553 24.32 2.2553 9.7197 0 14.6115-1.751 24.32-1.751 9.7475 0 14.5818 2.8001 24.32 2.8001 9.7178 0 14.5939-2.311 24.32-2.311 9.7299 0 24.32 2.4073 24.32 2.4073" class="line"/>
                    </g>
                  </g>
                  <g fill="none"/>
                </g>
              </g>
            </g>
            <g>
              <path width="608" height="16" x="16" y="440" fill="rgba(0,0,0,0)" d="m16 440 608 0 0 16-608 0z" class="slider-brush-area"/>
            </g>
            <g fill="none" class="slider-foreground">
              <g transform="matrix(1 0 0 1 16 440)">
                <path width="152" height="16" fill="rgba(23,131,255,1)" fill-opacity=".15" d="m0 0 152 0 0 16-152 0z" class="slider-selection" visibility="hidden"/>
              </g>
              <g transform="matrix(1 0 0 1 16 440)">
                <path width="304" height="16" x="152" fill="rgba(23,131,255,1)" fill-opacity=".15" d="m152 0 304 0 0 16-304 0z" class="slider-selection" visibility="visible"/>
              </g>
              <g transform="matrix(1 0 0 1 16 440)">
                <path width="152" height="16" x="456" fill="rgba(23,131,255,1)" fill-opacity=".15" d="m456 0 152 0 0 16-152 0z" class="slider-selection" visibility="hidden"/>
              </g>
              <g fill="none" class="slider-handle start-handle" transform="matrix(1 0 0 1 168 448)">
                <g fill="none" class="handle-icon-group">
                  <g fill="none" class="handle-icon">
                    <g>
                      <path width="10" height="24" x="-5" y="-12" fill="rgba(247,247,247,1)" stroke="rgba(29,33,41,1)" stroke-opacity=".25" stroke-width="1" d="m-3-12 6 0a2 2 0 0 1 2 2l0 20a2 2 0 0 1-2 2l-6 0a2 2 0 0 1-2-2l0-20a2 2 0 0 1 2-2z" class="handle-icon-rect"/>
                      <g>
                        <line x1="-1.6667" x2="-1.6667" y1="-6" y2="6" fill="rgba(247,247,247,1)" stroke="rgba(29,33,41,1)" stroke-opacity=".25" stroke-width="1" class="handle-icon-line-1"/>
                      </g>
                      <g>
                        <line x1="1.6667" x2="1.6667" y1="-6" y2="6" fill="rgba(247,247,247,1)" stroke="rgba(29,33,41,1)" stroke-opacity=".25" stroke-width="1" class="handle-icon-line-2"/>
                      </g>
                    </g>
                  </g>
                </g>
                <g fill="none" class="handle-label-group">
                  <g>
                    <text x="-16.4" y="0" fill="rgba(29,33,41,1)" fill-opacity=".45" class="handle-label" dominant-baseline="central" dx=".5" dy="0" font-size="12" font-weight="normal" paint-order="stroke" style="transform:translate(0px, 0px);" text-anchor="middle">S</text>
                  </g>
                </g>
              </g>
              <g fill="none" class="slider-handle end-handle" transform="matrix(1 0 0 1 472 448)">
                <g fill="none" class="handle-icon-group">
                  <g fill="none" class="handle-icon">
                    <g>
                      <path width="10" height="24" x="-5" y="-12" fill="rgba(247,247,247,1)" stroke="rgba(29,33,41,1)" stroke-opacity=".25" stroke-width="1" d="m-3-12 6 0a2 2 0 0 1 2 2l0 20a2 2 0 0 1-2 2l-6 0a2 2 0 0 1-2-2l0-20a2 2 0 0 1 2-2z" class="handle-icon-rect"/>
                      <g>
                        <line x1="-1.6667" x2="-1.6667" y1="-6" y2="6" fill="rgba(247,247,247,1)" stroke="rgba(29,33,41,1)" stroke-opacity=".25" stroke-width="1" class="handle-icon-line-1"/>
                      </g>
                      <g>
                        <line x1="1.6667" x2="1.6667" y1="-6" y2="6" fill="rgba(247,247,247,1)" stroke="rgba(29,33,41,1)" stroke-opacity=".25" stroke-width="1" class="handle-icon-line-2"/>
                      </g>
                    </g>
                  </g>
                </g>
                <g fill="none" class="handle-label-group">
                  <g>
                    <text x="16.52" y="0" fill="rgba(29,33,41,1)" fill-opacity=".45" class="handle-label" dominant-baseline="central" dx=".5" dy="0" font-size="12" font-weight="normal" paint-order="stroke" style="transform:translate(0px, 0px);" text-anchor="middle">B</text>
                  </g>
                </g>
              </g>
            </g>
          </g>
        </g>
        <g clip-path="url(#b)" transform="matrix(1 0 0 1 16 16)">
          <path width="608" height="412" fill="rgba(0,0,0,0)" d="m0 0 608 0 0 412-608 0z" class="plot"/>
          <g>
            <path width="41.8891" height="412" x="555.6072" y="0" fill="rgba(204,214,236,1)" fill-opacity=".3" stroke-width="0" d="m555.6072 0 41.889 0 0 412-41.889 0z" class="element-background"/>
          </g>
          <g fill="none" class="main-layer">
            <g>
              <path width="20.9655" height="76.838" x="566.069" y="335.162" fill="rgba(255,0,0,1)" fill-opacity=".95" stroke="rgba(70,130,180,1)" stroke-width="0" d="m566.069 335.162 20.9655 0 0 76.838-20.9655 0z" class="element"/>
            </g>
            <g>
              <path width="20.9655" height="143.273" x="230.6207" y="268.727" fill="rgba(70,130,180,1)" fill-opacity=".95" stroke="rgba(70,130,180,1)" stroke-width="0" d="m230.6207 268.727 20.9655 0 0 143.273-20.9655 0z" class="element"/>
            </g>
            <g>
              <path width="20.9655" height="219.0295" x="146.7586" y="192.9705" fill="rgba(70,130,180,1)" fill-opacity=".95" stroke="rgba(70,130,180,1)" stroke-width="0" d="m146.7586 192.9705 20.9655 0 0 219.0295-20.9655 0z" class="element"/>
            </g>
            <g>
              <path width="20.9655" height="117.832" x="398.3448" y="294.168" fill="rgba(70,130,180,1)" fill-opacity=".95" stroke="rgba(70,130,180,1)" stroke-width="0" d="m398.3448 294.168 20.9655 0 0 117.832-20.9655 0z" class="element"/>
            </g>
            <g>
              <path width="20.9655" height="103.7725" x="440.2759" y="308.2275" fill="rgba(70,130,180,1)" fill-opacity=".95" stroke="rgba(70,130,180,1)" stroke-width="0" d="m440.2759 308.2275 20.9655 0 0 103.7725-20.9655 0z" class="element"/>
            </g>
            <g>
              <path width="20.9655" height="313.841" x="62.8966" y="98.159" fill="rgba(70,130,180,1)" fill-opacity=".95" stroke="rgba(70,130,180,1)" stroke-width="0" d="m62.8966 98.159 20.9655 0 0 313.841-20.9655 0z" class="element"/>
            </g>
            <g>
              <path width="20.9655" height="207.2875" x="188.6897" y="204.7125" fill="rgba(70,130,180,1)" fill-opacity=".95" stroke="rgba(70,130,180,1)" stroke-width="0" d="m188.6897 204.7125 20.9655 0 0 207.2875-20.9655 0z" class="element"/>
            </g>
            <g>
              <path width="20.9655" height="123.909" x="314.4828" y="288.091" fill="rgba(70,130,180,1)" fill-opacity=".95" stroke="rgba(70,130,180,1)" stroke-width="0" d="m314.4828 288.091 20.9655 0 0 123.909-20.9655 0z" class="element"/>
            </g>
            <g>
              <path width="20.9655" height="99.3435" x="524.1379" y="312.6565" fill="rgba(70,130,180,1)" fill-opacity=".95" stroke="rgba(70,130,180,1)" stroke-width="0" d="m524.138 312.6565 20.9654 0 0 99.3435-20.9655 0z" class="element"/>
            </g>
            <g>
              <path width="20.9655" height="308.3305" x="104.8276" y="103.6695" fill="rgba(70,130,180,1)" fill-opacity=".95" stroke="rgba(70,130,180,1)" stroke-width="0" d="m104.8276 103.6695 20.9655 0 0 308.3305-20.9655 0z" class="element"/>
            </g>
            <g>
              <path width="20.9655" height="325.8405" x="20.9655" y="86.1595" fill="rgba(70,130,180,1)" fill-opacity=".95" stroke="rgba(70,130,180,1)" stroke-width="0" d="m20.9655 86.1595 20.9655 0 0 325.8405-20.9655 0z" class="element"/>
            </g>
            <g>
              <path width="20.9655" height="142.037" x="272.5517" y="269.963" fill="rgba(70,130,180,1)" fill-opacity=".95" stroke="rgba(70,130,180,1)" stroke-width="0" d="m272.5517 269.963 20.9655 0 0 142.037-20.9655 0z" class="element"/>
            </g>
            <g>
              <path width="20.9655" height="121.54" x="356.4138" y="290.46" fill="rgba(70,130,180,1)" fill-opacity=".95" stroke="rgba(70,130,180,1)" stroke-width="0" d="m356.4138 290.46 20.9655 0 0 121.54-20.9655 0z" class="element"/>
            </g>
            <g>
              <path width="20.9655" height="101.661" x="482.2069" y="310.339" fill="rgba(70,130,180,1)" fill-opacity=".95" stroke="rgba(70,130,180,1)" stroke-width="0" d="m482.2069 310.339 20.9655 0 0 101.661-20.9655 0z" class="element"/>
            </g>
          </g>
          <g fill="none" class="label-layer"/>
        </g>
      </g>
    </g>
  </g>
</svg>
