<svg xmlns="http://www.w3.org/2000/svg" width="640" height="480" color-interpolation-filters="sRGB" style="background: transparent;">
  <defs>
    <clipPath id="c" transform="matrix(1 0 0 1 -16 -16)">
      <use href="#a" transform="matrix(1 0 0 1 16 16)"/>
    </clipPath>
    <clipPath id="d" transform="matrix(1 0 0 1 -81.12 -51)">
      <use href="#b"/>
    </clipPath>
    <path id="b" width="542.88" height="311" x="81.12" y="51" fill="none" d="m81.12 51 542.88 0 0 311-542.88 0z"/>
  </defs>
  <g>
    <g fill="none">
      <g fill="none" class="view">
        <g>
          <path width="640" height="480" x="0" y="0" fill="rgba(0,0,0,0)" d="m0 0 640 0 0 480-640 0z" class="area"/>
        </g>
        <g>
          <path width="608" height="448" x="16" y="16" fill="rgba(0,0,0,0)" d="m16 16 608 0 0 448-608 0z" class="area"/>
        </g>
        <g>
          <path width="542.88" height="311" x="81.12" y="51" fill="rgba(0,0,0,0)" d="m81.12 51 542.88 0 0 311-542.88 0z" class="area"/>
        </g>
        <g>
          <path width="536.88" height="305" x="84.12" y="54" fill="rgba(0,0,0,0)" d="m84.12 54 536.88 0 0 305-536.88 0z" class="area"/>
        </g>
        <g fill="none" class="component">
          <g fill="none" class="slider">
            <g>
              <path width="542.64" height="16" x="81.36" y="440" fill="rgba(65,97,128,1)" d="m81.36 440 542.64 0 0 16-542.64 0z" class="slider-track" opacity=".05"/>
            </g>
            <g fill="none" class="slider-sparkline-group">
              <g fill="none" class="slider-sparkline">
                <g>
                  <path fill="none" class="container"/>
                </g>
                <g fill="none" class="spark sparkline" transform="matrix(1 0 0 1 81.36 440)">
                  <g fill="none"/>
                  <g fill="none"/>
                </g>
              </g>
            </g>
            <g>
              <path width="542.64" height="16" x="81.36" y="440" fill="rgba(0,0,0,0)" d="m81.36 440 542.64 0 0 16-542.64 0z" class="slider-brush-area"/>
            </g>
            <g fill="none" class="slider-foreground">
              <g transform="matrix(1 0 0 1 81.36 440)">
                <path width="217.056" height="16" fill="rgba(23,131,255,1)" fill-opacity=".15" d="m0 0 217.056 0 0 16-217.056 0z" class="slider-selection" visibility="hidden"/>
              </g>
              <g transform="matrix(1 0 0 1 81.36 440)">
                <path width="108.528" height="16" x="217.056" fill="rgba(23,131,255,1)" fill-opacity=".15" d="m217.056 0 108.528 0 0 16-108.528 0z" class="slider-selection" visibility="visible"/>
              </g>
              <g transform="matrix(1 0 0 1 81.36 440)">
                <path width="217.056" height="16" x="325.584" fill="rgba(23,131,255,1)" fill-opacity=".15" d="m325.584 0 217.056 0 0 16-217.056 0z" class="slider-selection" visibility="hidden"/>
              </g>
              <g fill="none" class="slider-handle start-handle" transform="matrix(1 0 0 1 298.416 448)">
                <g fill="none" class="handle-icon-group">
                  <g fill="none" class="handle-icon">
                    <g>
                      <path width="10" height="24" x="-5" y="-12" fill="rgba(247,247,247,1)" stroke="rgba(29,33,41,1)" stroke-opacity=".25" stroke-width="1" d="m-3-12 6 0a2 2 0 0 1 2 2l0 20a2 2 0 0 1-2 2l-6 0a2 2 0 0 1-2-2l0-20a2 2 0 0 1 2-2z" class="handle-icon-rect"/>
                      <g>
                        <line x1="-1.6667" x2="-1.6667" y1="-6" y2="6" fill="rgba(247,247,247,1)" stroke="rgba(29,33,41,1)" stroke-opacity=".25" stroke-width="1" class="handle-icon-line-1"/>
                      </g>
                      <g>
                        <line x1="1.6667" x2="1.6667" y1="-6" y2="6" fill="rgba(247,247,247,1)" stroke="rgba(29,33,41,1)" stroke-opacity=".25" stroke-width="1" class="handle-icon-line-2"/>
                      </g>
                    </g>
                  </g>
                </g>
                <g fill="none" class="handle-label-group">
                  <g>
                    <text x="-28.04" y="0" fill="rgba(29,33,41,1)" fill-opacity=".45" class="handle-label" dominant-baseline="central" dx=".5" dy="0" font-size="12" font-weight="normal" paint-order="stroke" style="transform:translate(0px, 0px);" text-anchor="middle">X: 40</text>
                  </g>
                </g>
              </g>
              <g fill="none" class="slider-handle end-handle" transform="matrix(1 0 0 1 406.944 448)">
                <g fill="none" class="handle-icon-group">
                  <g fill="none" class="handle-icon">
                    <g>
                      <path width="10" height="24" x="-5" y="-12" fill="rgba(247,247,247,1)" stroke="rgba(29,33,41,1)" stroke-opacity=".25" stroke-width="1" d="m-3-12 6 0a2 2 0 0 1 2 2l0 20a2 2 0 0 1-2 2l-6 0a2 2 0 0 1-2-2l0-20a2 2 0 0 1 2-2z" class="handle-icon-rect"/>
                      <g>
                        <line x1="-1.6667" x2="-1.6667" y1="-6" y2="6" fill="rgba(247,247,247,1)" stroke="rgba(29,33,41,1)" stroke-opacity=".25" stroke-width="1" class="handle-icon-line-1"/>
                      </g>
                      <g>
                        <line x1="1.6667" x2="1.6667" y1="-6" y2="6" fill="rgba(247,247,247,1)" stroke="rgba(29,33,41,1)" stroke-opacity=".25" stroke-width="1" class="handle-icon-line-2"/>
                      </g>
                    </g>
                  </g>
                </g>
                <g fill="none" class="handle-label-group">
                  <g>
                    <text x="27.98" y="0" fill="rgba(29,33,41,1)" fill-opacity=".45" class="handle-label" dominant-baseline="central" dx=".5" dy="0" font-size="12" font-weight="normal" paint-order="stroke" style="transform:translate(0px, 0px);" text-anchor="middle">X: 60</text>
                  </g>
                </g>
              </g>
            </g>
          </g>
        </g>
        <g fill="none" class="component">
          <g fill="none" transform="matrix(1 0 0 1 16 16)">
            <g fill="none" class="legend-category">
              <g fill="none" class="legend-title-group">
                <g fill="none" class="legend-title"/>
              </g>
              <g fill="none" class="legend-items-group">
                <g fill="none" class="legend-items">
                  <g fill="none" class="items-navigator">
                    <g fill="none" class="navigator-content-group" clip-path="url(#c)">
                      <g fill="none" class="navigator-play-window">
                        <g fill="none" class="items-item-page">
                          <g fill="none" class="items-item">
                            <g fill="none" class="legend-category-item-background-group">
                              <g>
                                <path width="25.28" height="23" fill="rgba(0,0,0,0)" d="m0 0 25.28 0 0 23-25.28 0z" class="legend-category-item-background" visibility="visible"/>
                              </g>
                            </g>
                            <g fill="none" class="legend-category-item-marker-group" transform="matrix(.41161 0 0 .41161 4 11.5)">
                              <g>
                                <path fill="none" stroke="rgba(23,131,255,1)" stroke-width="2" d="M-8 0a8 8 0 1 0 16 0 8 8 0 1 0-16 0Z" class="legend-category-item-marker" visibility="visible"/>
                              </g>
                            </g>
                            <g fill="none" class="legend-category-item-label-group" transform="matrix(1 0 0 1 16 11.5)">
                              <g>
                                <text fill="rgba(29,33,41,1)" fill-opacity=".9" stroke-width="1" class="legend-category-item-label" dominant-baseline="central" dx=".5" dy="0" font-family="sans-serif" font-size="12" font-style="normal" font-variant="normal" font-weight="normal" paint-order="stroke" style="transform:translate(0px, 0px);" text-anchor="left" visibility="visible">A</text>
                              </g>
                            </g>
                            <g fill="none" class="legend-category-item-value-group"/>
                          </g>
                          <g fill="none" class="items-item" transform="matrix(1 0 0 1 37.28 0)">
                            <g fill="none" class="legend-category-item-background-group">
                              <g>
                                <path width="25.04" height="23" fill="rgba(0,0,0,0)" d="m0 0 25.04 0 0 23-25.04 0z" class="legend-category-item-background" visibility="visible"/>
                              </g>
                            </g>
                            <g fill="none" class="legend-category-item-marker-group" transform="matrix(.41161 0 0 .41161 4 11.5)">
                              <g>
                                <path fill="none" stroke="rgba(0,201,201,1)" stroke-width="2" d="M-8 0a8 8 0 1 0 16 0 8 8 0 1 0-16 0Z" class="legend-category-item-marker" visibility="visible"/>
                              </g>
                            </g>
                            <g fill="none" class="legend-category-item-label-group" transform="matrix(1 0 0 1 16 11.5)">
                              <g>
                                <text fill="rgba(29,33,41,1)" fill-opacity=".9" stroke-width="1" class="legend-category-item-label" dominant-baseline="central" dx=".5" dy="0" font-family="sans-serif" font-size="12" font-style="normal" font-variant="normal" font-weight="normal" paint-order="stroke" style="transform:translate(0px, 0px);" text-anchor="left" visibility="visible">B</text>
                              </g>
                            </g>
                            <g fill="none" class="legend-category-item-value-group"/>
                          </g>
                        </g>
                      </g>
                    </g>
                    <g fill="none" class="navigator-controller"/>
                    <g>
                      <path id="a" width="62.32" height="23" fill="none" d="m0 0 62.32 0 0 23-62.32 0z" class="navigator-clip-path"/>
                    </g>
                  </g>
                </g>
              </g>
            </g>
          </g>
        </g>
        <g fill="none" class="component">
          <g fill="none" class="axis">
            <g fill="none" class="axis-grid-group g2-axis-grid-group">
              <g fill="none" class="axis-grid g2-axis-grid">
                <g fill="none" class="grid-line-group">
                  <g>
                    <path fill="none" stroke="rgba(29,33,41,1)" stroke-dasharray="3,4" stroke-opacity=".1" stroke-width=".5" d="m84.12 362 0-311" class="grid-line"/>
                  </g>
                  <g>
                    <path fill="none" stroke="rgba(29,33,41,1)" stroke-dasharray="3,4" stroke-opacity=".1" stroke-width=".5" d="m218.34 362 0-311" class="grid-line"/>
                  </g>
                  <g>
                    <path fill="none" stroke="rgba(29,33,41,1)" stroke-dasharray="3,4" stroke-opacity=".1" stroke-width=".5" d="m352.56 362 0-311" class="grid-line"/>
                  </g>
                  <g>
                    <path fill="none" stroke="rgba(29,33,41,1)" stroke-dasharray="3,4" stroke-opacity=".1" stroke-width=".5" d="m486.78 362 0-311" class="grid-line"/>
                  </g>
                  <g>
                    <path fill="none" stroke="rgba(29,33,41,1)" stroke-dasharray="3,4" stroke-opacity=".1" stroke-width=".5" d="m621 362 0-311" class="grid-line"/>
                  </g>
                </g>
                <g fill="none" class="grid-region-group"/>
              </g>
            </g>
            <g fill="none" class="axis-main-group g2-axis-main-group">
              <g fill="none" class="axis-line-group g2-axis-line-group">
                <g>
                  <line x1="81.12" x2="624" y1="362" y2="362" fill="none" stroke="rgba(29,33,41,1)" stroke-opacity=".45" stroke-width=".5" class="axis-line g2-axis-line" opacity="0"/>
                </g>
              </g>
              <g fill="none" class="axis-tick-group g2-axis-tick-group">
                <g fill="none" class="axis-tick g2-axis-tick" transform="matrix(1 0 0 1 84.12 362)">
                  <g>
                    <line x1="0" x2="0" y1="0" y2="4" fill="none" stroke="rgba(29,33,41,1)" stroke-width="1" class="axis-tick-item g2-axis-tick-item" opacity=".45"/>
                  </g>
                </g>
                <g fill="none" class="axis-tick g2-axis-tick" transform="matrix(1 0 0 1 218.34 362)">
                  <g>
                    <line x1="0" x2="0" y1="0" y2="4" fill="none" stroke="rgba(29,33,41,1)" stroke-width="1" class="axis-tick-item g2-axis-tick-item" opacity=".45"/>
                  </g>
                </g>
                <g fill="none" class="axis-tick g2-axis-tick" transform="matrix(1 0 0 1 352.56 362)">
                  <g>
                    <line x1="0" x2="0" y1="0" y2="4" fill="none" stroke="rgba(29,33,41,1)" stroke-width="1" class="axis-tick-item g2-axis-tick-item" opacity=".45"/>
                  </g>
                </g>
                <g fill="none" class="axis-tick g2-axis-tick" transform="matrix(1 0 0 1 486.78 362)">
                  <g>
                    <line x1="0" x2="0" y1="0" y2="4" fill="none" stroke="rgba(29,33,41,1)" stroke-width="1" class="axis-tick-item g2-axis-tick-item" opacity=".45"/>
                  </g>
                </g>
                <g fill="none" class="axis-tick g2-axis-tick" transform="matrix(1 0 0 1 621 362)">
                  <g>
                    <line x1="0" x2="0" y1="0" y2="4" fill="none" stroke="rgba(29,33,41,1)" stroke-width="1" class="axis-tick-item g2-axis-tick-item" opacity=".45"/>
                  </g>
                </g>
              </g>
              <g fill="none" class="axis-label-group g2-axis-label-group">
                <g fill="none" class="axis-label g2-axis-label" transform="matrix(1 0 0 1 84.12 370)">
                  <g>
                    <text fill="rgba(29,33,41,1)" stroke-width="1" class="axis-label-item g2-axis-label-item" dominant-baseline="central" dx=".5" dy="11.5" font-family="sans-serif" font-size="12" font-style="normal" font-variant="normal" font-weight="normal" opacity=".45" paint-order="stroke" style="transform:translate(0px, 0px);" text-anchor="middle" visibility="visible">40</text>
                  </g>
                </g>
                <g fill="none" class="axis-label g2-axis-label" transform="matrix(1 0 0 1 218.34 370)">
                  <g>
                    <text fill="rgba(29,33,41,1)" stroke-width="1" class="axis-label-item g2-axis-label-item" dominant-baseline="central" dx=".5" dy="11.5" font-family="sans-serif" font-size="12" font-style="normal" font-variant="normal" font-weight="normal" opacity=".45" paint-order="stroke" style="transform:translate(0px, 0px);" text-anchor="middle" visibility="visible">45</text>
                  </g>
                </g>
                <g fill="none" class="axis-label g2-axis-label" transform="matrix(1 0 0 1 352.56 370)">
                  <g>
                    <text fill="rgba(29,33,41,1)" stroke-width="1" class="axis-label-item g2-axis-label-item" dominant-baseline="central" dx=".5" dy="11.5" font-family="sans-serif" font-size="12" font-style="normal" font-variant="normal" font-weight="normal" opacity=".45" paint-order="stroke" style="transform:translate(0px, 0px);" text-anchor="middle" visibility="visible">50</text>
                  </g>
                </g>
                <g fill="none" class="axis-label g2-axis-label" transform="matrix(1 0 0 1 486.78 370)">
                  <g>
                    <text fill="rgba(29,33,41,1)" stroke-width="1" class="axis-label-item g2-axis-label-item" dominant-baseline="central" dx=".5" dy="11.5" font-family="sans-serif" font-size="12" font-style="normal" font-variant="normal" font-weight="normal" opacity=".45" paint-order="stroke" style="transform:translate(0px, 0px);" text-anchor="middle" visibility="visible">55</text>
                  </g>
                </g>
                <g fill="none" class="axis-label g2-axis-label" transform="matrix(1 0 0 1 621 370)">
                  <g>
                    <text fill="rgba(29,33,41,1)" stroke-width="1" class="axis-label-item g2-axis-label-item" dominant-baseline="central" dx=".5" dy="11.5" font-family="sans-serif" font-size="12" font-style="normal" font-variant="normal" font-weight="normal" opacity=".45" paint-order="stroke" style="transform:translate(0px, 0px);" text-anchor="middle" visibility="visible">60</text>
                  </g>
                </g>
              </g>
            </g>
            <g fill="none" class="axis-title-group g2-axis-title-group" transform="matrix(1 0 0 1 353.03 416.5)">
              <g transform="matrix(1 0 0 1 0 8)">
                <text fill="rgba(29,33,41,1)" stroke-width="1" class="axis-title g2-axis-title" dominant-baseline="central" dx=".5" dy="-11.5" font-family="sans-serif" font-size="12" font-style="normal" font-variant="normal" font-weight="normal" opacity=".9" paint-order="stroke" style="transform:translate(0px, 0px);" text-anchor="middle">x</text>
              </g>
            </g>
          </g>
        </g>
        <g fill="none" class="component">
          <g fill="none" class="axis">
            <g fill="none" class="axis-grid-group g2-axis-grid-group">
              <g fill="none" class="axis-grid g2-axis-grid">
                <g fill="none" class="grid-line-group">
                  <g>
                    <path fill="none" stroke="rgba(29,33,41,1)" stroke-dasharray="3,4" stroke-opacity=".1" stroke-width=".5" d="m81.12 359 542.88 0" class="grid-line"/>
                  </g>
                  <g>
                    <path fill="none" stroke="rgba(29,33,41,1)" stroke-dasharray="3,4" stroke-opacity=".1" stroke-width=".5" d="m81.12 308.1667 542.88 0" class="grid-line"/>
                  </g>
                  <g>
                    <path fill="none" stroke="rgba(29,33,41,1)" stroke-dasharray="3,4" stroke-opacity=".1" stroke-width=".5" d="m81.12 257.3333 542.88 0" class="grid-line"/>
                  </g>
                  <g>
                    <path fill="none" stroke="rgba(29,33,41,1)" stroke-dasharray="3,4" stroke-opacity=".1" stroke-width=".5" d="m81.12 206.5 542.88 0" class="grid-line"/>
                  </g>
                  <g>
                    <path fill="none" stroke="rgba(29,33,41,1)" stroke-dasharray="3,4" stroke-opacity=".1" stroke-width=".5" d="m81.12 155.6667 542.88 0" class="grid-line"/>
                  </g>
                  <g>
                    <path fill="none" stroke="rgba(29,33,41,1)" stroke-dasharray="3,4" stroke-opacity=".1" stroke-width=".5" d="m81.12 104.8333 542.88 0" class="grid-line"/>
                  </g>
                  <g>
                    <path fill="none" stroke="rgba(29,33,41,1)" stroke-dasharray="3,4" stroke-opacity=".1" stroke-width=".5" d="m81.12 54 542.88 0" class="grid-line"/>
                  </g>
                </g>
                <g fill="none" class="grid-region-group"/>
              </g>
            </g>
            <g fill="none" class="axis-main-group g2-axis-main-group">
              <g fill="none" class="axis-line-group g2-axis-line-group">
                <g>
                  <line x1="81.12" x2="81.12" y1="362" y2="51" fill="none" stroke="rgba(29,33,41,1)" stroke-opacity=".45" stroke-width=".5" class="axis-line g2-axis-line" opacity="0"/>
                </g>
              </g>
              <g fill="none" class="axis-tick-group g2-axis-tick-group">
                <g fill="none" class="axis-tick g2-axis-tick" transform="matrix(1 0 0 1 81.12 359)">
                  <g>
                    <line x1="0" x2="-4" y1="0" y2="0" fill="none" stroke="rgba(29,33,41,1)" stroke-width="1" class="axis-tick-item g2-axis-tick-item" opacity=".45"/>
                  </g>
                </g>
                <g fill="none" class="axis-tick g2-axis-tick" transform="matrix(1 0 0 1 81.12 308.1667)">
                  <g>
                    <line x1="0" x2="-4" y1="0" y2="0" fill="none" stroke="rgba(29,33,41,1)" stroke-width="1" class="axis-tick-item g2-axis-tick-item" opacity=".45"/>
                  </g>
                </g>
                <g fill="none" class="axis-tick g2-axis-tick" transform="matrix(1 0 0 1 81.12 257.3333)">
                  <g>
                    <line x1="0" x2="-4" y1="0" y2="0" fill="none" stroke="rgba(29,33,41,1)" stroke-width="1" class="axis-tick-item g2-axis-tick-item" opacity=".45"/>
                  </g>
                </g>
                <g fill="none" class="axis-tick g2-axis-tick" transform="matrix(1 0 0 1 81.12 206.5)">
                  <g>
                    <line x1="0" x2="-4" y1="0" y2="0" fill="none" stroke="rgba(29,33,41,1)" stroke-width="1" class="axis-tick-item g2-axis-tick-item" opacity=".45"/>
                  </g>
                </g>
                <g fill="none" class="axis-tick g2-axis-tick" transform="matrix(1 0 0 1 81.12 155.6667)">
                  <g>
                    <line x1="0" x2="-4" y1="0" y2="0" fill="none" stroke="rgba(29,33,41,1)" stroke-width="1" class="axis-tick-item g2-axis-tick-item" opacity=".45"/>
                  </g>
                </g>
                <g fill="none" class="axis-tick g2-axis-tick" transform="matrix(1 0 0 1 81.12 104.8333)">
                  <g>
                    <line x1="0" x2="-4" y1="0" y2="0" fill="none" stroke="rgba(29,33,41,1)" stroke-width="1" class="axis-tick-item g2-axis-tick-item" opacity=".45"/>
                  </g>
                </g>
                <g fill="none" class="axis-tick g2-axis-tick" transform="matrix(1 0 0 1 81.12 54)">
                  <g>
                    <line x1="0" x2="-4" y1="0" y2="0" fill="none" stroke="rgba(29,33,41,1)" stroke-width="1" class="axis-tick-item g2-axis-tick-item" opacity=".45"/>
                  </g>
                </g>
              </g>
              <g fill="none" class="axis-label-group g2-axis-label-group">
                <g fill="none" class="axis-label g2-axis-label" transform="matrix(1 0 0 1 73.12 359)">
                  <g>
                    <text fill="rgba(29,33,41,1)" stroke-width="1" class="axis-label-item g2-axis-label-item" dominant-baseline="central" dx=".5" dy="0" font-family="sans-serif" font-size="12" font-style="normal" font-variant="normal" font-weight="normal" opacity=".45" paint-order="stroke" style="transform:translate(0px, 0px);" text-anchor="end" visibility="visible">50</text>
                  </g>
                </g>
                <g fill="none" class="axis-label g2-axis-label" transform="matrix(1 0 0 1 73.12 308.1667)">
                  <g>
                    <text fill="rgba(29,33,41,1)" stroke-width="1" class="axis-label-item g2-axis-label-item" dominant-baseline="central" dx=".5" dy="0" font-family="sans-serif" font-size="12" font-style="normal" font-variant="normal" font-weight="normal" opacity=".45" paint-order="stroke" style="transform:translate(0px, 0px);" text-anchor="end" visibility="visible">60</text>
                  </g>
                </g>
                <g fill="none" class="axis-label g2-axis-label" transform="matrix(1 0 0 1 73.12 257.3333)">
                  <g>
                    <text fill="rgba(29,33,41,1)" stroke-width="1" class="axis-label-item g2-axis-label-item" dominant-baseline="central" dx=".5" dy="0" font-family="sans-serif" font-size="12" font-style="normal" font-variant="normal" font-weight="normal" opacity=".45" paint-order="stroke" style="transform:translate(0px, 0px);" text-anchor="end" visibility="visible">70</text>
                  </g>
                </g>
                <g fill="none" class="axis-label g2-axis-label" transform="matrix(1 0 0 1 73.12 206.5)">
                  <g>
                    <text fill="rgba(29,33,41,1)" stroke-width="1" class="axis-label-item g2-axis-label-item" dominant-baseline="central" dx=".5" dy="0" font-family="sans-serif" font-size="12" font-style="normal" font-variant="normal" font-weight="normal" opacity=".45" paint-order="stroke" style="transform:translate(0px, 0px);" text-anchor="end" visibility="visible">80</text>
                  </g>
                </g>
                <g fill="none" class="axis-label g2-axis-label" transform="matrix(1 0 0 1 73.12 155.6667)">
                  <g>
                    <text fill="rgba(29,33,41,1)" stroke-width="1" class="axis-label-item g2-axis-label-item" dominant-baseline="central" dx=".5" dy="0" font-family="sans-serif" font-size="12" font-style="normal" font-variant="normal" font-weight="normal" opacity=".45" paint-order="stroke" style="transform:translate(0px, 0px);" text-anchor="end" visibility="visible">90</text>
                  </g>
                </g>
                <g fill="none" class="axis-label g2-axis-label" transform="matrix(1 0 0 1 73.12 104.8333)">
                  <g>
                    <text fill="rgba(29,33,41,1)" stroke-width="1" class="axis-label-item g2-axis-label-item" dominant-baseline="central" dx=".5" dy="0" font-family="sans-serif" font-size="12" font-style="normal" font-variant="normal" font-weight="normal" opacity=".45" paint-order="stroke" style="transform:translate(0px, 0px);" text-anchor="end" visibility="visible">100</text>
                  </g>
                </g>
                <g fill="none" class="axis-label g2-axis-label" transform="matrix(1 0 0 1 73.12 54)">
                  <g>
                    <text fill="rgba(29,33,41,1)" stroke-width="1" class="axis-label-item g2-axis-label-item" dominant-baseline="central" dx=".5" dy="0" font-family="sans-serif" font-size="12" font-style="normal" font-variant="normal" font-weight="normal" opacity=".45" paint-order="stroke" style="transform:translate(0px, 0px);" text-anchor="end" visibility="visible">110</text>
                  </g>
                </g>
              </g>
            </g>
            <g fill="none" class="axis-title-group g2-axis-title-group" transform="matrix(1 0 0 1 28.5 206.5)">
              <g transform="matrix(0 -1 1 0 -7.5 .5)">
                <text fill="rgba(29,33,41,1)" stroke-width="1" class="axis-title g2-axis-title" dominant-baseline="central" dx=".5" dy="0" font-family="sans-serif" font-size="12" font-style="normal" font-variant="normal" font-weight="normal" opacity=".9" paint-order="stroke" style="transform:translate(0px, 0px);" text-anchor="middle">y</text>
              </g>
            </g>
          </g>
        </g>
        <g clip-path="url(#d)" transform="matrix(1 0 0 1 81.12 51)">
          <path width="542.88" height="311" fill="rgba(0,0,0,0)" d="m0 0 542.88 0 0 311-542.88 0z" class="plot"/>
          <g fill="none" class="main-layer">
            <g>
              <path fill="rgba(0,0,0,0)" fill-opacity=".8" stroke="rgba(23,131,255,1)" stroke-opacity=".95" stroke-width="1" d="M-1073.76 53.8333a3 3 0 1 0 6 0 3 3 0 1 0-6 0Z" class="element"/>
            </g>
            <g>
              <path fill="rgba(0,0,0,0)" fill-opacity=".8" stroke="rgba(0,201,201,1)" stroke-opacity=".95" stroke-width="1" d="M-1046.916-43.7089a3 3 0 1 0 6 0 3 3 0 1 0-6 0Z" class="element"/>
            </g>
            <g>
              <path fill="rgba(0,0,0,0)" fill-opacity=".8" stroke="rgba(23,131,255,1)" stroke-opacity=".95" stroke-width="1" d="M-1020.072-95.7124a3 3 0 1 0 6 0 3 3 0 1 0-6 0Z" class="element"/>
            </g>
            <g>
              <path fill="rgba(0,0,0,0)" fill-opacity=".8" stroke="rgba(0,201,201,1)" stroke-opacity=".95" stroke-width="1" d="M-993.228-41.6196a3 3 0 1 0 6 0 3 3 0 1 0-6 0Z" class="element"/>
            </g>
            <g>
              <path fill="rgba(0,0,0,0)" fill-opacity=".8" stroke="rgba(23,131,255,1)" stroke-opacity=".95" stroke-width="1" d="M-966.384-144.2736a3 3 0 1 0 6 0 3 3 0 1 0-6 0Z" class="element"/>
            </g>
            <g>
              <path fill="rgba(0,0,0,0)" fill-opacity=".8" stroke="rgba(0,201,201,1)" stroke-opacity=".95" stroke-width="1" d="M-939.54-145.008a3 3 0 1 0 6 0 3 3 0 1 0-6 0Z" class="element"/>
            </g>
            <g>
              <path fill="rgba(0,0,0,0)" fill-opacity=".8" stroke="rgba(23,131,255,1)" stroke-opacity=".95" stroke-width="1" d="M-912.696-175.5901a3 3 0 1 0 6 0 3 3 0 1 0-6 0Z" class="element"/>
            </g>
            <g>
              <path fill="rgba(0,0,0,0)" fill-opacity=".8" stroke="rgba(0,201,201,1)" stroke-opacity=".95" stroke-width="1" d="M-885.852-197.9474a3 3 0 1 0 6 0 3 3 0 1 0-6 0Z" class="element"/>
            </g>
            <g>
              <path fill="rgba(0,0,0,0)" fill-opacity=".8" stroke="rgba(23,131,255,1)" stroke-opacity=".95" stroke-width="1" d="M-859.008-187.712a3 3 0 1 0 6 0 3 3 0 1 0-6 0Z" class="element"/>
            </g>
            <g>
              <path fill="rgba(0,0,0,0)" fill-opacity=".8" stroke="rgba(0,201,201,1)" stroke-opacity=".95" stroke-width="1" d="M-832.164-164.0556a3 3 0 1 0 6 0 3 3 0 1 0-6 0Z" class="element"/>
            </g>
            <g>
              <path fill="rgba(0,0,0,0)" fill-opacity=".8" stroke="rgba(23,131,255,1)" stroke-opacity=".95" stroke-width="1" d="M-805.32-240.2445a3 3 0 1 0 6 0 3 3 0 1 0-6 0Z" class="element"/>
            </g>
            <g>
              <path fill="rgba(0,0,0,0)" fill-opacity=".8" stroke="rgba(0,201,201,1)" stroke-opacity=".95" stroke-width="1" d="M-778.476-182.6385a3 3 0 1 0 6 0 3 3 0 1 0-6 0Z" class="element"/>
            </g>
            <g>
              <path fill="rgba(0,0,0,0)" fill-opacity=".8" stroke="rgba(23,131,255,1)" stroke-opacity=".95" stroke-width="1" d="M-751.632-210.5933a3 3 0 1 0 6 0 3 3 0 1 0-6 0Z" class="element"/>
            </g>
            <g>
              <path fill="rgba(0,0,0,0)" fill-opacity=".8" stroke="rgba(0,201,201,1)" stroke-opacity=".95" stroke-width="1" d="M-724.788-259.2251a3 3 0 1 0 6 0 3 3 0 1 0-6 0Z" class="element"/>
            </g>
            <g>
              <path fill="rgba(0,0,0,0)" fill-opacity=".8" stroke="rgba(23,131,255,1)" stroke-opacity=".95" stroke-width="1" d="M-697.944-204.1134a3 3 0 1 0 6 0 3 3 0 1 0-6 0Z" class="element"/>
            </g>
            <g>
              <path fill="rgba(0,0,0,0)" fill-opacity=".8" stroke="rgba(0,201,201,1)" stroke-opacity=".95" stroke-width="1" d="M-671.1-289.0008a3 3 0 1 0 6 0 3 3 0 1 0-6 0Z" class="element"/>
            </g>
            <g>
              <path fill="rgba(0,0,0,0)" fill-opacity=".8" stroke="rgba(23,131,255,1)" stroke-opacity=".95" stroke-width="1" d="M-644.256-298.5197a3 3 0 1 0 6 0 3 3 0 1 0-6 0Z" class="element"/>
            </g>
            <g>
              <path fill="rgba(0,0,0,0)" fill-opacity=".8" stroke="rgba(0,201,201,1)" stroke-opacity=".95" stroke-width="1" d="M-617.412-200.7647a3 3 0 1 0 6 0 3 3 0 1 0-6 0Z" class="element"/>
            </g>
            <g>
              <path fill="rgba(0,0,0,0)" fill-opacity=".8" stroke="rgba(23,131,255,1)" stroke-opacity=".95" stroke-width="1" d="M-590.568-206.652a3 3 0 1 0 6 0 3 3 0 1 0-6 0Z" class="element"/>
            </g>
            <g>
              <path fill="rgba(0,0,0,0)" fill-opacity=".8" stroke="rgba(0,201,201,1)" stroke-opacity=".95" stroke-width="1" d="M-563.724-265.1811a3 3 0 1 0 6 0 3 3 0 1 0-6 0Z" class="element"/>
            </g>
            <g>
              <path fill="rgba(0,0,0,0)" fill-opacity=".8" stroke="rgba(23,131,255,1)" stroke-opacity=".95" stroke-width="1" d="M-536.88-223.2847a3 3 0 1 0 6 0 3 3 0 1 0-6 0Z" class="element"/>
            </g>
            <g>
              <path fill="rgba(0,0,0,0)" fill-opacity=".8" stroke="rgba(0,201,201,1)" stroke-opacity=".95" stroke-width="1" d="M-510.036-222.1316a3 3 0 1 0 6 0 3 3 0 1 0-6 0Z" class="element"/>
            </g>
            <g>
              <path fill="rgba(0,0,0,0)" fill-opacity=".8" stroke="rgba(23,131,255,1)" stroke-opacity=".95" stroke-width="1" d="M-483.192-201.1617a3 3 0 1 0 6 0 3 3 0 1 0-6 0Z" class="element"/>
            </g>
            <g>
              <path fill="rgba(0,0,0,0)" fill-opacity=".8" stroke="rgba(0,201,201,1)" stroke-opacity=".95" stroke-width="1" d="M-456.348-216.6225a3 3 0 1 0 6 0 3 3 0 1 0-6 0Z" class="element"/>
            </g>
            <g>
              <path fill="rgba(0,0,0,0)" fill-opacity=".8" stroke="rgba(23,131,255,1)" stroke-opacity=".95" stroke-width="1" d="M-429.504-139.8455a3 3 0 1 0 6 0 3 3 0 1 0-6 0Z" class="element"/>
            </g>
            <g>
              <path fill="rgba(0,0,0,0)" fill-opacity=".8" stroke="rgba(0,201,201,1)" stroke-opacity=".95" stroke-width="1" d="M-402.66-147.3324a3 3 0 1 0 6 0 3 3 0 1 0-6 0Z" class="element"/>
            </g>
            <g>
              <path fill="rgba(0,0,0,0)" fill-opacity=".8" stroke="rgba(23,131,255,1)" stroke-opacity=".95" stroke-width="1" d="M-375.816-136.6146a3 3 0 1 0 6 0 3 3 0 1 0-6 0Z" class="element"/>
            </g>
            <g>
              <path fill="rgba(0,0,0,0)" fill-opacity=".8" stroke="rgba(0,201,201,1)" stroke-opacity=".95" stroke-width="1" d="M-348.972-131.9863a3 3 0 1 0 6 0 3 3 0 1 0-6 0Z" class="element"/>
            </g>
            <g>
              <path fill="rgba(0,0,0,0)" fill-opacity=".8" stroke="rgba(23,131,255,1)" stroke-opacity=".95" stroke-width="1" d="M-322.128-37.1943a3 3 0 1 0 6 0 3 3 0 1 0-6 0Z" class="element"/>
            </g>
            <g>
              <path fill="rgba(0,0,0,0)" fill-opacity=".8" stroke="rgba(0,201,201,1)" stroke-opacity=".95" stroke-width="1" d="M-295.284-74.1936a3 3 0 1 0 6 0 3 3 0 1 0-6 0Z" class="element"/>
            </g>
            <g>
              <path fill="rgba(0,0,0,0)" fill-opacity=".8" stroke="rgba(23,131,255,1)" stroke-opacity=".95" stroke-width="1" d="M-268.44-51.5502a3 3 0 1 0 6 0 3 3 0 1 0-6 0Z" class="element"/>
            </g>
            <g>
              <path fill="rgba(0,0,0,0)" fill-opacity=".8" stroke="rgba(0,201,201,1)" stroke-opacity=".95" stroke-width="1" d="M-241.596-20.129a3 3 0 1 0 6 0 3 3 0 1 0-6 0Z" class="element"/>
            </g>
            <g>
              <path fill="rgba(0,0,0,0)" fill-opacity=".8" stroke="rgba(23,131,255,1)" stroke-opacity=".95" stroke-width="1" d="M-214.752 41.5442a3 3 0 1 0 6 0 3 3 0 1 0-6 0Z" class="element"/>
            </g>
            <g>
              <path fill="rgba(0,0,0,0)" fill-opacity=".8" stroke="rgba(0,201,201,1)" stroke-opacity=".95" stroke-width="1" d="M-187.908 81.8693a3 3 0 1 0 6 0 3 3 0 1 0-6 0Z" class="element"/>
            </g>
            <g>
              <path fill="rgba(0,0,0,0)" fill-opacity=".8" stroke="rgba(23,131,255,1)" stroke-opacity=".95" stroke-width="1" d="M-161.064 34.7191a3 3 0 1 0 6 0 3 3 0 1 0-6 0Z" class="element"/>
            </g>
            <g>
              <path fill="rgba(0,0,0,0)" fill-opacity=".8" stroke="rgba(0,201,201,1)" stroke-opacity=".95" stroke-width="1" d="M-134.22 125.3714a3 3 0 1 0 6 0 3 3 0 1 0-6 0Z" class="element"/>
            </g>
            <g>
              <path fill="rgba(0,0,0,0)" fill-opacity=".8" stroke="rgba(23,131,255,1)" stroke-opacity=".95" stroke-width="1" d="M-107.376 144.8083a3 3 0 1 0 6 0 3 3 0 1 0-6 0Z" class="element"/>
            </g>
            <g>
              <path fill="rgba(0,0,0,0)" fill-opacity=".8" stroke="rgba(0,201,201,1)" stroke-opacity=".95" stroke-width="1" d="M-80.532 125.6023a3 3 0 1 0 6 0 3 3 0 1 0-6 0Z" class="element"/>
            </g>
            <g>
              <path fill="rgba(0,0,0,0)" fill-opacity=".8" stroke="rgba(23,131,255,1)" stroke-opacity=".95" stroke-width="1" d="M-53.688 139.6255a3 3 0 1 0 6 0 3 3 0 1 0-6 0Z" class="element"/>
            </g>
            <g>
              <path fill="rgba(0,0,0,0)" fill-opacity=".8" stroke="rgba(0,201,201,1)" stroke-opacity=".95" stroke-width="1" d="M-26.844 131.6645a3 3 0 1 0 6 0 3 3 0 1 0-6 0Z" class="element"/>
            </g>
            <g>
              <path fill="rgba(0,0,0,0)" fill-opacity=".8" stroke="rgba(23,131,255,1)" stroke-opacity=".95" stroke-width="1" d="M0 232.8075a3 3 0 1 0 6 0 3 3 0 1 0-6 0Z" class="element"/>
            </g>
            <g>
              <path fill="rgba(0,0,0,0)" fill-opacity=".8" stroke="rgba(0,201,201,1)" stroke-opacity=".95" stroke-width="1" d="M26.844 183.192a3 3 0 1 0 6 0 3 3 0 1 0-6 0Z" class="element"/>
            </g>
            <g>
              <path fill="rgba(0,0,0,0)" fill-opacity=".8" stroke="rgba(23,131,255,1)" stroke-opacity=".95" stroke-width="1" d="M53.688 195.5992a3 3 0 1 0 6 0 3 3 0 1 0-6 0Z" class="element"/>
            </g>
            <g>
              <path fill="rgba(0,0,0,0)" fill-opacity=".8" stroke="rgba(0,201,201,1)" stroke-opacity=".95" stroke-width="1" d="M80.532 261.0138a3 3 0 1 0 6 0 3 3 0 1 0-6 0Z" class="element"/>
            </g>
            <g>
              <path fill="rgba(0,0,0,0)" fill-opacity=".8" stroke="rgba(23,131,255,1)" stroke-opacity=".95" stroke-width="1" d="M107.376 293.7417a3 3 0 1 0 6 0 3 3 0 1 0-6 0Z" class="element"/>
            </g>
            <g>
              <path fill="rgba(0,0,0,0)" fill-opacity=".8" stroke="rgba(0,201,201,1)" stroke-opacity=".95" stroke-width="1" d="M134.22 298.7056a3 3 0 1 0 6 0 3 3 0 1 0-6 0Z" class="element"/>
            </g>
            <g>
              <path fill="rgba(0,0,0,0)" fill-opacity=".8" stroke="rgba(23,131,255,1)" stroke-opacity=".95" stroke-width="1" d="M161.064 216.5764a3 3 0 1 0 6 0 3 3 0 1 0-6 0Z" class="element"/>
            </g>
            <g>
              <path fill="rgba(0,0,0,0)" fill-opacity=".8" stroke="rgba(0,201,201,1)" stroke-opacity=".95" stroke-width="1" d="M187.908 233.639a3 3 0 1 0 6 0 3 3 0 1 0-6 0Z" class="element"/>
            </g>
            <g>
              <path fill="rgba(0,0,0,0)" fill-opacity=".8" stroke="rgba(23,131,255,1)" stroke-opacity=".95" stroke-width="1" d="M214.752 260.9309a3 3 0 1 0 6 0 3 3 0 1 0-6 0Z" class="element"/>
            </g>
            <g>
              <path fill="rgba(0,0,0,0)" fill-opacity=".8" stroke="rgba(0,201,201,1)" stroke-opacity=".95" stroke-width="1" d="M241.596 255.4037a3 3 0 1 0 6 0 3 3 0 1 0-6 0Z" class="element"/>
            </g>
            <g>
              <path fill="rgba(0,0,0,0)" fill-opacity=".8" stroke="rgba(23,131,255,1)" stroke-opacity=".95" stroke-width="1" d="M268.44 271.9945a3 3 0 1 0 6 0 3 3 0 1 0-6 0Z" class="element"/>
            </g>
            <g>
              <path fill="rgba(0,0,0,0)" fill-opacity=".8" stroke="rgba(0,201,201,1)" stroke-opacity=".95" stroke-width="1" d="M295.284 259.4825a3 3 0 1 0 6 0 3 3 0 1 0-6 0Z" class="element"/>
            </g>
            <g>
              <path fill="rgba(0,0,0,0)" fill-opacity=".8" stroke="rgba(23,131,255,1)" stroke-opacity=".95" stroke-width="1" d="M322.128 250.3262a3 3 0 1 0 6 0 3 3 0 1 0-6 0Z" class="element"/>
            </g>
            <g>
              <path fill="rgba(0,0,0,0)" fill-opacity=".8" stroke="rgba(0,201,201,1)" stroke-opacity=".95" stroke-width="1" d="M348.972 239.7986a3 3 0 1 0 6 0 3 3 0 1 0-6 0Z" class="element"/>
            </g>
            <g>
              <path fill="rgba(0,0,0,0)" fill-opacity=".8" stroke="rgba(23,131,255,1)" stroke-opacity=".95" stroke-width="1" d="M375.816 239.1106a3 3 0 1 0 6 0 3 3 0 1 0-6 0Z" class="element"/>
            </g>
            <g>
              <path fill="rgba(0,0,0,0)" fill-opacity=".8" stroke="rgba(0,201,201,1)" stroke-opacity=".95" stroke-width="1" d="M402.66 187.5844a3 3 0 1 0 6 0 3 3 0 1 0-6 0Z" class="element"/>
            </g>
            <g>
              <path fill="rgba(0,0,0,0)" fill-opacity=".8" stroke="rgba(23,131,255,1)" stroke-opacity=".95" stroke-width="1" d="M429.504 164.4657a3 3 0 1 0 6 0 3 3 0 1 0-6 0Z" class="element"/>
            </g>
            <g>
              <path fill="rgba(0,0,0,0)" fill-opacity=".8" stroke="rgba(0,201,201,1)" stroke-opacity=".95" stroke-width="1" d="M456.348 127.9647a3 3 0 1 0 6 0 3 3 0 1 0-6 0Z" class="element"/>
            </g>
            <g>
              <path fill="rgba(0,0,0,0)" fill-opacity=".8" stroke="rgba(23,131,255,1)" stroke-opacity=".95" stroke-width="1" d="M483.192 98.0608a3 3 0 1 0 6 0 3 3 0 1 0-6 0Z" class="element"/>
            </g>
            <g>
              <path fill="rgba(0,0,0,0)" fill-opacity=".8" stroke="rgba(0,201,201,1)" stroke-opacity=".95" stroke-width="1" d="M510.036 110.2197a3 3 0 1 0 6 0 3 3 0 1 0-6 0Z" class="element"/>
            </g>
            <g>
              <path fill="rgba(0,0,0,0)" fill-opacity=".8" stroke="rgba(23,131,255,1)" stroke-opacity=".95" stroke-width="1" d="M536.88 33.9829a3 3 0 1 0 6 0 3 3 0 1 0-6 0Z" class="element"/>
            </g>
            <g>
              <path fill="rgba(0,0,0,0)" fill-opacity=".8" stroke="rgba(0,201,201,1)" stroke-opacity=".95" stroke-width="1" d="M563.724 16.5325a3 3 0 1 0 6 0 3 3 0 1 0-6 0Z" class="element"/>
            </g>
            <g>
              <path fill="rgba(0,0,0,0)" fill-opacity=".8" stroke="rgba(23,131,255,1)" stroke-opacity=".95" stroke-width="1" d="M590.568 55.3268a3 3 0 1 0 6 0 3 3 0 1 0-6 0Z" class="element"/>
            </g>
            <g>
              <path fill="rgba(0,0,0,0)" fill-opacity=".8" stroke="rgba(0,201,201,1)" stroke-opacity=".95" stroke-width="1" d="M617.412-7.0688a3 3 0 1 0 6 0 3 3 0 1 0-6 0Z" class="element"/>
            </g>
            <g>
              <path fill="rgba(0,0,0,0)" fill-opacity=".8" stroke="rgba(23,131,255,1)" stroke-opacity=".95" stroke-width="1" d="M644.256-2.2618a3 3 0 1 0 6 0 3 3 0 1 0-6 0Z" class="element"/>
            </g>
            <g>
              <path fill="rgba(0,0,0,0)" fill-opacity=".8" stroke="rgba(0,201,201,1)" stroke-opacity=".95" stroke-width="1" d="M671.1-30.0005a3 3 0 1 0 6 0 3 3 0 1 0-6 0Z" class="element"/>
            </g>
            <g>
              <path fill="rgba(0,0,0,0)" fill-opacity=".8" stroke="rgba(23,131,255,1)" stroke-opacity=".95" stroke-width="1" d="M697.944-75.0102a3 3 0 1 0 6 0 3 3 0 1 0-6 0Z" class="element"/>
            </g>
            <g>
              <path fill="rgba(0,0,0,0)" fill-opacity=".8" stroke="rgba(0,201,201,1)" stroke-opacity=".95" stroke-width="1" d="M724.788-130.4207a3 3 0 1 0 6 0 3 3 0 1 0-6 0Z" class="element"/>
            </g>
            <g>
              <path fill="rgba(0,0,0,0)" fill-opacity=".8" stroke="rgba(23,131,255,1)" stroke-opacity=".95" stroke-width="1" d="M751.632-145.2784a3 3 0 1 0 6 0 3 3 0 1 0-6 0Z" class="element"/>
            </g>
            <g>
              <path fill="rgba(0,0,0,0)" fill-opacity=".8" stroke="rgba(0,201,201,1)" stroke-opacity=".95" stroke-width="1" d="M778.476-108.626a3 3 0 1 0 6 0 3 3 0 1 0-6 0Z" class="element"/>
            </g>
            <g>
              <path fill="rgba(0,0,0,0)" fill-opacity=".8" stroke="rgba(23,131,255,1)" stroke-opacity=".95" stroke-width="1" d="M805.32-205.3437a3 3 0 1 0 6 0 3 3 0 1 0-6 0Z" class="element"/>
            </g>
            <g>
              <path fill="rgba(0,0,0,0)" fill-opacity=".8" stroke="rgba(0,201,201,1)" stroke-opacity=".95" stroke-width="1" d="M832.164-187.0104a3 3 0 1 0 6 0 3 3 0 1 0-6 0Z" class="element"/>
            </g>
            <g>
              <path fill="rgba(0,0,0,0)" fill-opacity=".8" stroke="rgba(23,131,255,1)" stroke-opacity=".95" stroke-width="1" d="M859.008-171.6427a3 3 0 1 0 6 0 3 3 0 1 0-6 0Z" class="element"/>
            </g>
            <g>
              <path fill="rgba(0,0,0,0)" fill-opacity=".8" stroke="rgba(0,201,201,1)" stroke-opacity=".95" stroke-width="1" d="M885.852-190.8298a3 3 0 1 0 6 0 3 3 0 1 0-6 0Z" class="element"/>
            </g>
            <g>
              <path fill="rgba(0,0,0,0)" fill-opacity=".8" stroke="rgba(23,131,255,1)" stroke-opacity=".95" stroke-width="1" d="M912.696-229.2235a3 3 0 1 0 6 0 3 3 0 1 0-6 0Z" class="element"/>
            </g>
            <g>
              <path fill="rgba(0,0,0,0)" fill-opacity=".8" stroke="rgba(0,201,201,1)" stroke-opacity=".95" stroke-width="1" d="M939.54-203.2457a3 3 0 1 0 6 0 3 3 0 1 0-6 0Z" class="element"/>
            </g>
            <g>
              <path fill="rgba(0,0,0,0)" fill-opacity=".8" stroke="rgba(23,131,255,1)" stroke-opacity=".95" stroke-width="1" d="M966.384-199.9438a3 3 0 1 0 6 0 3 3 0 1 0-6 0Z" class="element"/>
            </g>
            <g>
              <path fill="rgba(0,0,0,0)" fill-opacity=".8" stroke="rgba(0,201,201,1)" stroke-opacity=".95" stroke-width="1" d="M993.228-217.8206a3 3 0 1 0 6 0 3 3 0 1 0-6 0Z" class="element"/>
            </g>
            <g>
              <path fill="rgba(0,0,0,0)" fill-opacity=".8" stroke="rgba(23,131,255,1)" stroke-opacity=".95" stroke-width="1" d="M1020.072-279.7267a3 3 0 1 0 6 0 3 3 0 1 0-6 0Z" class="element"/>
            </g>
            <g>
              <path fill="rgba(0,0,0,0)" fill-opacity=".8" stroke="rgba(0,201,201,1)" stroke-opacity=".95" stroke-width="1" d="M1046.916-288.851a3 3 0 1 0 6 0 3 3 0 1 0-6 0Z" class="element"/>
            </g>
            <g>
              <path fill="rgba(0,0,0,0)" fill-opacity=".8" stroke="rgba(23,131,255,1)" stroke-opacity=".95" stroke-width="1" d="M1073.76-209.1637a3 3 0 1 0 6 0 3 3 0 1 0-6 0Z" class="element"/>
            </g>
            <g>
              <path fill="rgba(0,0,0,0)" fill-opacity=".8" stroke="rgba(0,201,201,1)" stroke-opacity=".95" stroke-width="1" d="M1100.604-204.8861a3 3 0 1 0 6 0 3 3 0 1 0-6 0Z" class="element"/>
            </g>
            <g>
              <path fill="rgba(0,0,0,0)" fill-opacity=".8" stroke="rgba(23,131,255,1)" stroke-opacity=".95" stroke-width="1" d="M1127.448-214.5312a3 3 0 1 0 6 0 3 3 0 1 0-6 0Z" class="element"/>
            </g>
            <g>
              <path fill="rgba(0,0,0,0)" fill-opacity=".8" stroke="rgba(0,201,201,1)" stroke-opacity=".95" stroke-width="1" d="M1154.292-241.0041a3 3 0 1 0 6 0 3 3 0 1 0-6 0Z" class="element"/>
            </g>
            <g>
              <path fill="rgba(0,0,0,0)" fill-opacity=".8" stroke="rgba(23,131,255,1)" stroke-opacity=".95" stroke-width="1" d="M1181.136-255.2026a3 3 0 1 0 6 0 3 3 0 1 0-6 0Z" class="element"/>
            </g>
            <g>
              <path fill="rgba(0,0,0,0)" fill-opacity=".8" stroke="rgba(0,201,201,1)" stroke-opacity=".95" stroke-width="1" d="M1207.98-173.9019a3 3 0 1 0 6 0 3 3 0 1 0-6 0Z" class="element"/>
            </g>
            <g>
              <path fill="rgba(0,0,0,0)" fill-opacity=".8" stroke="rgba(23,131,255,1)" stroke-opacity=".95" stroke-width="1" d="M1234.824-175.0715a3 3 0 1 0 6 0 3 3 0 1 0-6 0Z" class="element"/>
            </g>
            <g>
              <path fill="rgba(0,0,0,0)" fill-opacity=".8" stroke="rgba(0,201,201,1)" stroke-opacity=".95" stroke-width="1" d="M1261.668-198.2041a3 3 0 1 0 6 0 3 3 0 1 0-6 0Z" class="element"/>
            </g>
            <g>
              <path fill="rgba(0,0,0,0)" fill-opacity=".8" stroke="rgba(23,131,255,1)" stroke-opacity=".95" stroke-width="1" d="M1288.512-194.7742a3 3 0 1 0 6 0 3 3 0 1 0-6 0Z" class="element"/>
            </g>
            <g>
              <path fill="rgba(0,0,0,0)" fill-opacity=".8" stroke="rgba(0,201,201,1)" stroke-opacity=".95" stroke-width="1" d="M1315.356-144.072a3 3 0 1 0 6 0 3 3 0 1 0-6 0Z" class="element"/>
            </g>
            <g>
              <path fill="rgba(0,0,0,0)" fill-opacity=".8" stroke="rgba(23,131,255,1)" stroke-opacity=".95" stroke-width="1" d="M1342.2-149.1881a3 3 0 1 0 6 0 3 3 0 1 0-6 0Z" class="element"/>
            </g>
            <g>
              <path fill="rgba(0,0,0,0)" fill-opacity=".8" stroke="rgba(0,201,201,1)" stroke-opacity=".95" stroke-width="1" d="M1369.044-116.2411a3 3 0 1 0 6 0 3 3 0 1 0-6 0Z" class="element"/>
            </g>
            <g>
              <path fill="rgba(0,0,0,0)" fill-opacity=".8" stroke="rgba(23,131,255,1)" stroke-opacity=".95" stroke-width="1" d="M1395.888-37.3137a3 3 0 1 0 6 0 3 3 0 1 0-6 0Z" class="element"/>
            </g>
            <g>
              <path fill="rgba(0,0,0,0)" fill-opacity=".8" stroke="rgba(0,201,201,1)" stroke-opacity=".95" stroke-width="1" d="M1422.732 4.0448a3 3 0 1 0 6 0 3 3 0 1 0-6 0Z" class="element"/>
            </g>
            <g>
              <path fill="rgba(0,0,0,0)" fill-opacity=".8" stroke="rgba(23,131,255,1)" stroke-opacity=".95" stroke-width="1" d="M1449.576-1.2785a3 3 0 1 0 6 0 3 3 0 1 0-6 0Z" class="element"/>
            </g>
            <g>
              <path fill="rgba(0,0,0,0)" fill-opacity=".8" stroke="rgba(0,201,201,1)" stroke-opacity=".95" stroke-width="1" d="M1476.42 10.191a3 3 0 1 0 6 0 3 3 0 1 0-6 0Z" class="element"/>
            </g>
            <g>
              <path fill="rgba(0,0,0,0)" fill-opacity=".8" stroke="rgba(23,131,255,1)" stroke-opacity=".95" stroke-width="1" d="M1503.264 8.9335a3 3 0 1 0 6 0 3 3 0 1 0-6 0Z" class="element"/>
            </g>
            <g>
              <path fill="rgba(0,0,0,0)" fill-opacity=".8" stroke="rgba(0,201,201,1)" stroke-opacity=".95" stroke-width="1" d="M1530.108 115.0378a3 3 0 1 0 6 0 3 3 0 1 0-6 0Z" class="element"/>
            </g>
            <g>
              <path fill="rgba(0,0,0,0)" fill-opacity=".8" stroke="rgba(23,131,255,1)" stroke-opacity=".95" stroke-width="1" d="M1556.952 128.55a3 3 0 1 0 6 0 3 3 0 1 0-6 0Z" class="element"/>
            </g>
            <g>
              <path fill="rgba(0,0,0,0)" fill-opacity=".8" stroke="rgba(0,201,201,1)" stroke-opacity=".95" stroke-width="1" d="M1583.796 75.4051a3 3 0 1 0 6 0 3 3 0 1 0-6 0Z" class="element"/>
            </g>
          </g>
          <g fill="none" class="label-layer"/>
        </g>
      </g>
    </g>
  </g>
</svg>
