<svg xmlns="http://www.w3.org/2000/svg" width="640" height="480" color-interpolation-filters="sRGB" style="background: transparent;">
  <defs>
    <clipPath id="d" transform="matrix(1 0 0 1 -90.48 -16)">
      <use href="#c"/>
    </clipPath>
    <path id="a" width="533.28" height="324.2" x="90.72" y="16" fill="none" d="m90.72 16 533.28 0 0 324.2-533.28 0z"/>
    <path id="b" width="533.28" height="324.92" x="90.72" y="16" fill="none" d="m90.72 16 533.28 0 0 324.92-533.28 0z"/>
    <path id="c" width="533.52" height="324.2" x="90.48" y="16" fill="none" d="m90.48 16 533.52 0 0 324.2-533.52 0z"/>
  </defs>
  <g>
    <g fill="none">
      <g fill="none" class="view">
        <g>
          <path width="640" height="480" x="0" y="0" fill="rgba(0,0,0,0)" d="m0 0 640 0 0 480-640 0z" class="area"/>
        </g>
        <g>
          <path width="608" height="448" x="16" y="16" fill="rgba(0,0,0,0)" d="m16 16 608 0 0 448-608 0z" class="area"/>
        </g>
        <g>
          <path width="533.52" height="324.2" x="90.48" y="16" fill="rgba(0,0,0,0)" d="m90.48 16 533.52 0 0 324.2-533.52 0z" class="area"/>
        </g>
        <g>
          <path width="533.52" height="324.2" x="90.48" y="16" fill="rgba(0,0,0,0)" d="m90.48 16 533.52 0 0 324.2-533.52 0z" class="area"/>
        </g>
        <g fill="none" class="component">
          <g fill="none" class="slider">
            <g>
              <path width="533.28" height="16" x="90.72" y="440" fill="rgba(65,97,128,1)" d="m90.72 440 533.28 0 0 16-533.28 0z" class="slider-track" opacity=".05"/>
            </g>
            <g fill="none" class="slider-sparkline-group">
              <g fill="none" class="slider-sparkline">
                <g>
                  <path fill="none" class="container"/>
                </g>
                <g fill="none" class="spark sparkline" transform="matrix(1 0 0 1 90.72 440)">
                  <g fill="none">
                    <g>
                      <path fill="none" stroke="rgba(131,218,173,1)" stroke-width="1" d="M0 9.1425c0 0 5.3643-2.6698 9.0386-2.6698 3.5566 0 5.4091 1.2345 9.0387 1.2345 3.6013 0 5.4245-.2682 9.0386-.4835 3.6168-.2155 5.4705-.0458 9.0387-.5937 3.6627-.5623 5.373-1.8603 9.0386-2.1818 3.5654-.3127 5.4257-.1358 9.0387-.3127 3.618-.177 5.4308-.572 9.0386-.572 3.6231 0 5.5157 1.0115 9.0387 1.0115 3.708 0 5.3993-3.153 9.0386-3.153 3.5916 0 5.3434 2.7481 9.0386 2.7481 3.5357 0 5.4347 0 9.0387-.1118 3.627-.1126 5.4518-.4411 9.0386-1.0276 3.6441-.596 5.405-1.9284 9.0387-1.9284 3.5973 0 5.4028 1.421 9.0386 1.421 3.5951 0 5.4703 0 9.0387-.3944 3.6625-.4047 5.3764-2.1289 9.0386-2.1289 3.5687 0 5.4273.197 9.0386.4325 3.6196.236 5.423.7462 9.0387.7462 3.6151 0 5.55-.726 9.0386-.726 3.7422 0 5.4127 3.593 9.0387 3.593 3.605 0 5.3225-3.4374 9.0386-3.4374 3.5148 0 5.476.6023 9.0387 1.3994 3.6683.8206 5.3577 2.6447 9.0386 2.6447 3.55 0 5.4203-.569 9.0387-.8937 3.6125-.3243 5.4248-.7288 9.0386-.7288 3.6172 0 5.421.5226 9.0386.828 3.6133.305 5.4279.368 9.0387.698 3.62.3308 5.4141.704 9.0386.9538 3.6064.2486 5.5004 0 9.0387.2922 3.6926.305 5.354 1.979 9.0386 2.7154 3.5463.7087 5.415.671 9.0387.8973 3.6072.2252 5.4373 0 9.0386.2315 3.6296.2333 5.4182 1.1576 9.0387 1.1576 3.6105 0 5.4225-.9414 9.0386-.9414 3.6148 0 5.4164.6346 9.0386.9078 3.6087.2722 5.423.4556 9.0387.4556 3.6152 0 5.4415-.427 9.0386-.427 3.6338 0 5.4422 1.3647 9.0387 1.3647 3.6344 0 5.463-1.907 9.0386-1.907 3.6553 0 5.3537 1.987 9.0387 2.7357 3.5459.7206 5.4412.4337 9.0386.9377 3.6335.5092 5.407 1.5953 9.0387 1.5953 3.5992 0 5.4148-1.0226 9.0386-1.0226 3.6071 0 5.5085.5375 9.0386.5375 3.7008 0 5.486-2.899 9.0387-2.899 3.6783 0 5.277 3.859 9.0386 3.859 3.4693 0 5.5061 0 9.0387-.6778 3.6984-.7097 5.3856-2.8906 9.0386-2.8906 3.5779 0 5.393 2.1654 9.0387 2.1654 3.5852 0 5.4122-1.3592 9.0386-1.3592 3.6045 0 5.4312.4836 9.0386.9173 3.6235.4357 5.5167 1.256 9.0387 1.256 3.7089 0 5.3321-2.3192 9.0386-3.2634 3.5245-.898 5.5139-1.3419 9.0387-1.3419 3.706 0 5.3135 3.2573 9.0386 3.2573 3.5058 0 5.4944 0 9.0387-.2481 3.6866-.2581 5.41-1.6083 9.0386-2.6001 3.6023-.9846 5.4477-2.341 9.0387-2.341 3.6399 0 9.0386 2.8056 9.0386 2.8056" class="line"/>
                    </g>
                  </g>
                  <g fill="none"/>
                </g>
              </g>
            </g>
            <g>
              <path width="533.28" height="16" x="90.72" y="440" fill="rgba(0,0,0,0)" d="m90.72 440 533.28 0 0 16-533.28 0z" class="slider-brush-area"/>
            </g>
            <g fill="none" class="slider-foreground">
              <g transform="matrix(1 0 0 1 90.72 440)">
                <path width="352.4981" height="16" fill="rgba(23,131,255,1)" fill-opacity=".15" d="m0 0 352.498 0 0 16-352.498 0z" class="slider-selection" visibility="hidden"/>
              </g>
              <g transform="matrix(1 0 0 1 90.72 440)">
                <path width="180.7819" height="16" x="352.4981" fill="rgba(23,131,255,1)" fill-opacity=".15" d="m352.498 0 180.782 0 0 16-180.782 0z" class="slider-selection" visibility="visible"/>
              </g>
              <g transform="matrix(1 0 0 1 90.72 440)">
                <path width="0" height="16" x="533.28" fill="rgba(23,131,255,1)" fill-opacity=".15" d="m533.28 0 0 0 0 16 0 0z" class="slider-selection" visibility="hidden"/>
              </g>
              <g fill="none" class="slider-handle start-handle" transform="matrix(1 0 0 1 443.218 448)">
                <g fill="none" class="handle-icon-group">
                  <g fill="none" class="handle-icon">
                    <g>
                      <path width="10" height="24" x="-5" y="-12" fill="rgba(247,247,247,1)" stroke="rgba(29,33,41,1)" stroke-opacity=".25" stroke-width="1" d="m-3-12 6 0a2 2 0 0 1 2 2l0 20a2 2 0 0 1-2 2l-6 0a2 2 0 0 1-2-2l0-20a2 2 0 0 1 2-2z" class="handle-icon-rect"/>
                      <g>
                        <line x1="-1.6667" x2="-1.6667" y1="-6" y2="6" fill="rgba(247,247,247,1)" stroke="rgba(29,33,41,1)" stroke-opacity=".25" stroke-width="1" class="handle-icon-line-1"/>
                      </g>
                      <g>
                        <line x1="1.6667" x2="1.6667" y1="-6" y2="6" fill="rgba(247,247,247,1)" stroke="rgba(29,33,41,1)" stroke-opacity=".25" stroke-width="1" class="handle-icon-line-2"/>
                      </g>
                    </g>
                  </g>
                </g>
                <g fill="none" class="handle-label-group">
                  <g>
                    <text x="-34.28" y="0" fill="rgba(29,33,41,1)" fill-opacity=".45" class="handle-label" dominant-baseline="central" dx=".5" dy="0" font-size="12" font-weight="normal" paint-order="stroke" style="transform:translate(0px, 0px);" text-anchor="middle">Day-40</text>
                  </g>
                </g>
              </g>
              <g fill="none" class="slider-handle end-handle" transform="matrix(1 0 0 1 624 448)">
                <g fill="none" class="handle-icon-group">
                  <g fill="none" class="handle-icon">
                    <g>
                      <path width="10" height="24" x="-5" y="-12" fill="rgba(247,247,247,1)" stroke="rgba(29,33,41,1)" stroke-opacity=".25" stroke-width="1" d="m-3-12 6 0a2 2 0 0 1 2 2l0 20a2 2 0 0 1-2 2l-6 0a2 2 0 0 1-2-2l0-20a2 2 0 0 1 2-2z" class="handle-icon-rect"/>
                      <g>
                        <line x1="-1.6667" x2="-1.6667" y1="-6" y2="6" fill="rgba(247,247,247,1)" stroke="rgba(29,33,41,1)" stroke-opacity=".25" stroke-width="1" class="handle-icon-line-1"/>
                      </g>
                      <g>
                        <line x1="1.6667" x2="1.6667" y1="-6" y2="6" fill="rgba(247,247,247,1)" stroke="rgba(29,33,41,1)" stroke-opacity=".25" stroke-width="1" class="handle-icon-line-2"/>
                      </g>
                    </g>
                  </g>
                </g>
                <g fill="none" class="handle-label-group">
                  <g>
                    <text x="-34.22" y="0" fill="rgba(29,33,41,1)" fill-opacity=".45" class="handle-label" dominant-baseline="central" dx=".5" dy="0" font-size="12" font-weight="normal" paint-order="stroke" style="transform:translate(0px, 0px);" text-anchor="middle">Day-60</text>
                  </g>
                </g>
              </g>
            </g>
          </g>
        </g>
        <g fill="none" class="component">
          <g fill="none" class="axis">
            <g fill="none" class="axis-grid-group"/>
            <g fill="none" class="axis-main-group">
              <g fill="none" class="axis-line-group">
                <g>
                  <line x1="90.48" x2="624" y1="340.2" y2="340.2" fill="none" stroke="rgba(29,33,41,1)" stroke-opacity=".45" stroke-width=".5" class="axis-line axis-line" opacity="0"/>
                </g>
              </g>
              <g fill="none" class="axis-tick-group">
                <g fill="none" class="axis-tick" transform="matrix(1 0 0 1 103.1829 340.2)">
                  <g>
                    <line x1="0" x2="0" y1="0" y2="4" fill="none" stroke="rgba(29,33,41,1)" stroke-width="1" class="axis-tick-item" opacity=".45"/>
                  </g>
                </g>
                <g fill="none" class="axis-tick" transform="matrix(1 0 0 1 128.5886 340.2)">
                  <g>
                    <line x1="0" x2="0" y1="0" y2="4" fill="none" stroke="rgba(29,33,41,1)" stroke-width="1" class="axis-tick-item" opacity=".45"/>
                  </g>
                </g>
                <g fill="none" class="axis-tick" transform="matrix(1 0 0 1 153.9943 340.2)">
                  <g>
                    <line x1="0" x2="0" y1="0" y2="4" fill="none" stroke="rgba(29,33,41,1)" stroke-width="1" class="axis-tick-item" opacity=".45"/>
                  </g>
                </g>
                <g fill="none" class="axis-tick" transform="matrix(1 0 0 1 179.4 340.2)">
                  <g>
                    <line x1="0" x2="0" y1="0" y2="4" fill="none" stroke="rgba(29,33,41,1)" stroke-width="1" class="axis-tick-item" opacity=".45"/>
                  </g>
                </g>
                <g fill="none" class="axis-tick" transform="matrix(1 0 0 1 204.8057 340.2)">
                  <g>
                    <line x1="0" x2="0" y1="0" y2="4" fill="none" stroke="rgba(29,33,41,1)" stroke-width="1" class="axis-tick-item" opacity=".45"/>
                  </g>
                </g>
                <g fill="none" class="axis-tick" transform="matrix(1 0 0 1 230.2114 340.2)">
                  <g>
                    <line x1="0" x2="0" y1="0" y2="4" fill="none" stroke="rgba(29,33,41,1)" stroke-width="1" class="axis-tick-item" opacity=".45"/>
                  </g>
                </g>
                <g fill="none" class="axis-tick" transform="matrix(1 0 0 1 255.6171 340.2)">
                  <g>
                    <line x1="0" x2="0" y1="0" y2="4" fill="none" stroke="rgba(29,33,41,1)" stroke-width="1" class="axis-tick-item" opacity=".45"/>
                  </g>
                </g>
                <g fill="none" class="axis-tick" transform="matrix(1 0 0 1 281.0229 340.2)">
                  <g>
                    <line x1="0" x2="0" y1="0" y2="4" fill="none" stroke="rgba(29,33,41,1)" stroke-width="1" class="axis-tick-item" opacity=".45"/>
                  </g>
                </g>
                <g fill="none" class="axis-tick" transform="matrix(1 0 0 1 306.4286 340.2)">
                  <g>
                    <line x1="0" x2="0" y1="0" y2="4" fill="none" stroke="rgba(29,33,41,1)" stroke-width="1" class="axis-tick-item" opacity=".45"/>
                  </g>
                </g>
                <g fill="none" class="axis-tick" transform="matrix(1 0 0 1 331.8343 340.2)">
                  <g>
                    <line x1="0" x2="0" y1="0" y2="4" fill="none" stroke="rgba(29,33,41,1)" stroke-width="1" class="axis-tick-item" opacity=".45"/>
                  </g>
                </g>
                <g fill="none" class="axis-tick" transform="matrix(1 0 0 1 357.24 340.2)">
                  <g>
                    <line x1="0" x2="0" y1="0" y2="4" fill="none" stroke="rgba(29,33,41,1)" stroke-width="1" class="axis-tick-item" opacity=".45"/>
                  </g>
                </g>
                <g fill="none" class="axis-tick" transform="matrix(1 0 0 1 382.6457 340.2)">
                  <g>
                    <line x1="0" x2="0" y1="0" y2="4" fill="none" stroke="rgba(29,33,41,1)" stroke-width="1" class="axis-tick-item" opacity=".45"/>
                  </g>
                </g>
                <g fill="none" class="axis-tick" transform="matrix(1 0 0 1 408.0514 340.2)">
                  <g>
                    <line x1="0" x2="0" y1="0" y2="4" fill="none" stroke="rgba(29,33,41,1)" stroke-width="1" class="axis-tick-item" opacity=".45"/>
                  </g>
                </g>
                <g fill="none" class="axis-tick" transform="matrix(1 0 0 1 433.4572 340.2)">
                  <g>
                    <line x1="0" x2="0" y1="0" y2="4" fill="none" stroke="rgba(29,33,41,1)" stroke-width="1" class="axis-tick-item" opacity=".45"/>
                  </g>
                </g>
                <g fill="none" class="axis-tick" transform="matrix(1 0 0 1 458.8629 340.2)">
                  <g>
                    <line x1="0" x2="0" y1="0" y2="4" fill="none" stroke="rgba(29,33,41,1)" stroke-width="1" class="axis-tick-item" opacity=".45"/>
                  </g>
                </g>
                <g fill="none" class="axis-tick" transform="matrix(1 0 0 1 484.2686 340.2)">
                  <g>
                    <line x1="0" x2="0" y1="0" y2="4" fill="none" stroke="rgba(29,33,41,1)" stroke-width="1" class="axis-tick-item" opacity=".45"/>
                  </g>
                </g>
                <g fill="none" class="axis-tick" transform="matrix(1 0 0 1 509.6743 340.2)">
                  <g>
                    <line x1="0" x2="0" y1="0" y2="4" fill="none" stroke="rgba(29,33,41,1)" stroke-width="1" class="axis-tick-item" opacity=".45"/>
                  </g>
                </g>
                <g fill="none" class="axis-tick" transform="matrix(1 0 0 1 535.08 340.2)">
                  <g>
                    <line x1="0" x2="0" y1="0" y2="4" fill="none" stroke="rgba(29,33,41,1)" stroke-width="1" class="axis-tick-item" opacity=".45"/>
                  </g>
                </g>
                <g fill="none" class="axis-tick" transform="matrix(1 0 0 1 560.4857 340.2)">
                  <g>
                    <line x1="0" x2="0" y1="0" y2="4" fill="none" stroke="rgba(29,33,41,1)" stroke-width="1" class="axis-tick-item" opacity=".45"/>
                  </g>
                </g>
                <g fill="none" class="axis-tick" transform="matrix(1 0 0 1 585.8914 340.2)">
                  <g>
                    <line x1="0" x2="0" y1="0" y2="4" fill="none" stroke="rgba(29,33,41,1)" stroke-width="1" class="axis-tick-item" opacity=".45"/>
                  </g>
                </g>
                <g fill="none" class="axis-tick" transform="matrix(1 0 0 1 611.2971 340.2)">
                  <g>
                    <line x1="0" x2="0" y1="0" y2="4" fill="none" stroke="rgba(29,33,41,1)" stroke-width="1" class="axis-tick-item" opacity=".45"/>
                  </g>
                </g>
              </g>
              <g fill="none" class="axis-label-group">
                <g fill="none" class="axis-label" transform="matrix(1 0 0 1 103.1829 348.2)">
                  <g transform="matrix(0 1 -1 0 0 0)">
                    <text fill="rgba(29,33,41,1)" stroke-width="1" class="axis-label-item" dominant-baseline="central" dx=".5" dy="0" font-family="sans-serif" font-size="12" font-style="normal" font-variant="normal" font-weight="normal" opacity=".45" paint-order="stroke" style="transform:translate(0px, 0px);" text-anchor="left" visibility="visible">Day-40</text>
                  </g>
                </g>
                <g fill="none" class="axis-label" transform="matrix(1 0 0 1 128.5886 348.2)">
                  <g transform="matrix(0 1 -1 0 0 0)">
                    <text fill="rgba(29,33,41,1)" stroke-width="1" class="axis-label-item" dominant-baseline="central" dx=".5" dy="0" font-family="sans-serif" font-size="12" font-style="normal" font-variant="normal" font-weight="normal" opacity=".45" paint-order="stroke" style="transform:translate(0px, 0px);" text-anchor="left" visibility="visible">Day-41</text>
                  </g>
                </g>
                <g fill="none" class="axis-label" transform="matrix(1 0 0 1 153.9943 348.2)">
                  <g transform="matrix(0 1 -1 0 0 0)">
                    <text fill="rgba(29,33,41,1)" stroke-width="1" class="axis-label-item" dominant-baseline="central" dx=".5" dy="0" font-family="sans-serif" font-size="12" font-style="normal" font-variant="normal" font-weight="normal" opacity=".45" paint-order="stroke" style="transform:translate(0px, 0px);" text-anchor="left" visibility="visible">Day-42</text>
                  </g>
                </g>
                <g fill="none" class="axis-label" transform="matrix(1 0 0 1 179.4 348.2)">
                  <g transform="matrix(0 1 -1 0 0 0)">
                    <text fill="rgba(29,33,41,1)" stroke-width="1" class="axis-label-item" dominant-baseline="central" dx=".5" dy="0" font-family="sans-serif" font-size="12" font-style="normal" font-variant="normal" font-weight="normal" opacity=".45" paint-order="stroke" style="transform:translate(0px, 0px);" text-anchor="left" visibility="visible">Day-43</text>
                  </g>
                </g>
                <g fill="none" class="axis-label" transform="matrix(1 0 0 1 204.8057 348.2)">
                  <g transform="matrix(0 1 -1 0 0 0)">
                    <text fill="rgba(29,33,41,1)" stroke-width="1" class="axis-label-item" dominant-baseline="central" dx=".5" dy="0" font-family="sans-serif" font-size="12" font-style="normal" font-variant="normal" font-weight="normal" opacity=".45" paint-order="stroke" style="transform:translate(0px, 0px);" text-anchor="left" visibility="visible">Day-44</text>
                  </g>
                </g>
                <g fill="none" class="axis-label" transform="matrix(1 0 0 1 230.2114 348.2)">
                  <g transform="matrix(0 1 -1 0 0 0)">
                    <text fill="rgba(29,33,41,1)" stroke-width="1" class="axis-label-item" dominant-baseline="central" dx=".5" dy="0" font-family="sans-serif" font-size="12" font-style="normal" font-variant="normal" font-weight="normal" opacity=".45" paint-order="stroke" style="transform:translate(0px, 0px);" text-anchor="left" visibility="visible">Day-45</text>
                  </g>
                </g>
                <g fill="none" class="axis-label" transform="matrix(1 0 0 1 255.6171 348.2)">
                  <g transform="matrix(0 1 -1 0 0 0)">
                    <text fill="rgba(29,33,41,1)" stroke-width="1" class="axis-label-item" dominant-baseline="central" dx=".5" dy="0" font-family="sans-serif" font-size="12" font-style="normal" font-variant="normal" font-weight="normal" opacity=".45" paint-order="stroke" style="transform:translate(0px, 0px);" text-anchor="left" visibility="visible">Day-46</text>
                  </g>
                </g>
                <g fill="none" class="axis-label" transform="matrix(1 0 0 1 281.0229 348.2)">
                  <g transform="matrix(0 1 -1 0 0 0)">
                    <text fill="rgba(29,33,41,1)" stroke-width="1" class="axis-label-item" dominant-baseline="central" dx=".5" dy="0" font-family="sans-serif" font-size="12" font-style="normal" font-variant="normal" font-weight="normal" opacity=".45" paint-order="stroke" style="transform:translate(0px, 0px);" text-anchor="left" visibility="visible">Day-47</text>
                  </g>
                </g>
                <g fill="none" class="axis-label" transform="matrix(1 0 0 1 306.4286 348.2)">
                  <g transform="matrix(0 1 -1 0 0 0)">
                    <text fill="rgba(29,33,41,1)" stroke-width="1" class="axis-label-item" dominant-baseline="central" dx=".5" dy="0" font-family="sans-serif" font-size="12" font-style="normal" font-variant="normal" font-weight="normal" opacity=".45" paint-order="stroke" style="transform:translate(0px, 0px);" text-anchor="left" visibility="visible">Day-48</text>
                  </g>
                </g>
                <g fill="none" class="axis-label" transform="matrix(1 0 0 1 331.8343 348.2)">
                  <g transform="matrix(0 1 -1 0 0 0)">
                    <text fill="rgba(29,33,41,1)" stroke-width="1" class="axis-label-item" dominant-baseline="central" dx=".5" dy="0" font-family="sans-serif" font-size="12" font-style="normal" font-variant="normal" font-weight="normal" opacity=".45" paint-order="stroke" style="transform:translate(0px, 0px);" text-anchor="left" visibility="visible">Day-49</text>
                  </g>
                </g>
                <g fill="none" class="axis-label" transform="matrix(1 0 0 1 357.24 348.2)">
                  <g transform="matrix(0 1 -1 0 0 0)">
                    <text fill="rgba(29,33,41,1)" stroke-width="1" class="axis-label-item" dominant-baseline="central" dx=".5" dy="0" font-family="sans-serif" font-size="12" font-style="normal" font-variant="normal" font-weight="normal" opacity=".45" paint-order="stroke" style="transform:translate(0px, 0px);" text-anchor="left" visibility="visible">Day-50</text>
                  </g>
                </g>
                <g fill="none" class="axis-label" transform="matrix(1 0 0 1 382.6457 348.2)">
                  <g transform="matrix(0 1 -1 0 0 0)">
                    <text fill="rgba(29,33,41,1)" stroke-width="1" class="axis-label-item" dominant-baseline="central" dx=".5" dy="0" font-family="sans-serif" font-size="12" font-style="normal" font-variant="normal" font-weight="normal" opacity=".45" paint-order="stroke" style="transform:translate(0px, 0px);" text-anchor="left" visibility="visible">Day-51</text>
                  </g>
                </g>
                <g fill="none" class="axis-label" transform="matrix(1 0 0 1 408.0514 348.2)">
                  <g transform="matrix(0 1 -1 0 0 0)">
                    <text fill="rgba(29,33,41,1)" stroke-width="1" class="axis-label-item" dominant-baseline="central" dx=".5" dy="0" font-family="sans-serif" font-size="12" font-style="normal" font-variant="normal" font-weight="normal" opacity=".45" paint-order="stroke" style="transform:translate(0px, 0px);" text-anchor="left" visibility="visible">Day-52</text>
                  </g>
                </g>
                <g fill="none" class="axis-label" transform="matrix(1 0 0 1 433.4572 348.2)">
                  <g transform="matrix(0 1 -1 0 0 0)">
                    <text fill="rgba(29,33,41,1)" stroke-width="1" class="axis-label-item" dominant-baseline="central" dx=".5" dy="0" font-family="sans-serif" font-size="12" font-style="normal" font-variant="normal" font-weight="normal" opacity=".45" paint-order="stroke" style="transform:translate(0px, 0px);" text-anchor="left" visibility="visible">Day-53</text>
                  </g>
                </g>
                <g fill="none" class="axis-label" transform="matrix(1 0 0 1 458.8629 348.2)">
                  <g transform="matrix(0 1 -1 0 0 0)">
                    <text fill="rgba(29,33,41,1)" stroke-width="1" class="axis-label-item" dominant-baseline="central" dx=".5" dy="0" font-family="sans-serif" font-size="12" font-style="normal" font-variant="normal" font-weight="normal" opacity=".45" paint-order="stroke" style="transform:translate(0px, 0px);" text-anchor="left" visibility="visible">Day-54</text>
                  </g>
                </g>
                <g fill="none" class="axis-label" transform="matrix(1 0 0 1 484.2686 348.2)">
                  <g transform="matrix(0 1 -1 0 0 0)">
                    <text fill="rgba(29,33,41,1)" stroke-width="1" class="axis-label-item" dominant-baseline="central" dx=".5" dy="0" font-family="sans-serif" font-size="12" font-style="normal" font-variant="normal" font-weight="normal" opacity=".45" paint-order="stroke" style="transform:translate(0px, 0px);" text-anchor="left" visibility="visible">Day-55</text>
                  </g>
                </g>
                <g fill="none" class="axis-label" transform="matrix(1 0 0 1 509.6743 348.2)">
                  <g transform="matrix(0 1 -1 0 0 0)">
                    <text fill="rgba(29,33,41,1)" stroke-width="1" class="axis-label-item" dominant-baseline="central" dx=".5" dy="0" font-family="sans-serif" font-size="12" font-style="normal" font-variant="normal" font-weight="normal" opacity=".45" paint-order="stroke" style="transform:translate(0px, 0px);" text-anchor="left" visibility="visible">Day-56</text>
                  </g>
                </g>
                <g fill="none" class="axis-label" transform="matrix(1 0 0 1 535.08 348.2)">
                  <g transform="matrix(0 1 -1 0 0 0)">
                    <text fill="rgba(29,33,41,1)" stroke-width="1" class="axis-label-item" dominant-baseline="central" dx=".5" dy="0" font-family="sans-serif" font-size="12" font-style="normal" font-variant="normal" font-weight="normal" opacity=".45" paint-order="stroke" style="transform:translate(0px, 0px);" text-anchor="left" visibility="visible">Day-57</text>
                  </g>
                </g>
                <g fill="none" class="axis-label" transform="matrix(1 0 0 1 560.4857 348.2)">
                  <g transform="matrix(0 1 -1 0 0 0)">
                    <text fill="rgba(29,33,41,1)" stroke-width="1" class="axis-label-item" dominant-baseline="central" dx=".5" dy="0" font-family="sans-serif" font-size="12" font-style="normal" font-variant="normal" font-weight="normal" opacity=".45" paint-order="stroke" style="transform:translate(0px, 0px);" text-anchor="left" visibility="visible">Day-58</text>
                  </g>
                </g>
                <g fill="none" class="axis-label" transform="matrix(1 0 0 1 585.8914 348.2)">
                  <g transform="matrix(0 1 -1 0 0 0)">
                    <text fill="rgba(29,33,41,1)" stroke-width="1" class="axis-label-item" dominant-baseline="central" dx=".5" dy="0" font-family="sans-serif" font-size="12" font-style="normal" font-variant="normal" font-weight="normal" opacity=".45" paint-order="stroke" style="transform:translate(0px, 0px);" text-anchor="left" visibility="visible">Day-59</text>
                  </g>
                </g>
                <g fill="none" class="axis-label" transform="matrix(1 0 0 1 611.2971 348.2)">
                  <g transform="matrix(0 1 -1 0 0 0)">
                    <text fill="rgba(29,33,41,1)" stroke-width="1" class="axis-label-item" dominant-baseline="central" dx=".5" dy="0" font-family="sans-serif" font-size="12" font-style="normal" font-variant="normal" font-weight="normal" opacity=".45" paint-order="stroke" style="transform:translate(0px, 0px);" text-anchor="left" visibility="visible">Day-60</text>
                  </g>
                </g>
              </g>
            </g>
            <g fill="none" class="axis-title-group" transform="matrix(1 0 0 1 357.24 416.5)">
              <g transform="matrix(1 0 0 1 0 8)">
                <text fill="rgba(29,33,41,1)" stroke-width="1" class="axis-title" dominant-baseline="central" dx=".5" dy="-11.5" font-family="sans-serif" font-size="12" font-style="normal" font-variant="normal" font-weight="normal" opacity=".9" paint-order="stroke" style="transform:translate(0px, 0px);" text-anchor="middle">date</text>
              </g>
            </g>
          </g>
        </g>
        <g fill="none" class="component">
          <g fill="none" class="axis">
            <g fill="none" class="axis-grid-group">
              <g fill="none" class="axis-grid">
                <g fill="none" class="grid-line-group">
                  <g>
                    <path fill="none" stroke="rgba(29,33,41,1)" stroke-dasharray="3,4" stroke-opacity=".1" stroke-width=".5" d="m90.48 340.2 533.52 0" class="grid-line"/>
                  </g>
                  <g>
                    <path fill="none" stroke="rgba(29,33,41,1)" stroke-dasharray="3,4" stroke-opacity=".1" stroke-width=".5" d="m90.48 259.15 533.52 0" class="grid-line"/>
                  </g>
                  <g>
                    <path fill="none" stroke="rgba(29,33,41,1)" stroke-dasharray="3,4" stroke-opacity=".1" stroke-width=".5" d="m90.48 178.1 533.52 0" class="grid-line"/>
                  </g>
                  <g>
                    <path fill="none" stroke="rgba(29,33,41,1)" stroke-dasharray="3,4" stroke-opacity=".1" stroke-width=".5" d="m90.48 97.05 533.52 0" class="grid-line"/>
                  </g>
                  <g>
                    <path fill="none" stroke="rgba(29,33,41,1)" stroke-dasharray="3,4" stroke-opacity=".1" stroke-width=".5" d="m90.48 16 533.52 0" class="grid-line"/>
                  </g>
                </g>
                <g fill="none" class="grid-region-group"/>
              </g>
            </g>
            <g fill="none" class="axis-main-group">
              <g fill="none" class="axis-line-group">
                <g>
                  <line x1="90.48" x2="90.48" y1="340.2" y2="16" fill="none" stroke="rgba(29,33,41,1)" stroke-opacity=".45" stroke-width=".5" class="axis-line axis-line" opacity="0"/>
                </g>
              </g>
              <g fill="none" class="axis-tick-group">
                <g fill="none" class="axis-tick" transform="matrix(1 0 0 1 90.48 340.2)">
                  <g>
                    <line x1="0" x2="-4" y1="0" y2="0" fill="none" stroke="rgba(29,33,41,1)" stroke-width="1" class="axis-tick-item" opacity=".45"/>
                  </g>
                </g>
                <g fill="none" class="axis-tick" transform="matrix(1 0 0 1 90.48 259.15)">
                  <g>
                    <line x1="0" x2="-4" y1="0" y2="0" fill="none" stroke="rgba(29,33,41,1)" stroke-width="1" class="axis-tick-item" opacity=".45"/>
                  </g>
                </g>
                <g fill="none" class="axis-tick" transform="matrix(1 0 0 1 90.48 178.1)">
                  <g>
                    <line x1="0" x2="-4" y1="0" y2="0" fill="none" stroke="rgba(29,33,41,1)" stroke-width="1" class="axis-tick-item" opacity=".45"/>
                  </g>
                </g>
                <g fill="none" class="axis-tick" transform="matrix(1 0 0 1 90.48 97.05)">
                  <g>
                    <line x1="0" x2="-4" y1="0" y2="0" fill="none" stroke="rgba(29,33,41,1)" stroke-width="1" class="axis-tick-item" opacity=".45"/>
                  </g>
                </g>
                <g fill="none" class="axis-tick" transform="matrix(1 0 0 1 90.48 16)">
                  <g>
                    <line x1="0" x2="-4" y1="0" y2="0" fill="none" stroke="rgba(29,33,41,1)" stroke-width="1" class="axis-tick-item" opacity=".45"/>
                  </g>
                </g>
              </g>
              <g fill="none" class="axis-label-group">
                <g fill="none" class="axis-label" transform="matrix(1 0 0 1 82.48 340.2)">
                  <g>
                    <text fill="rgba(29,33,41,1)" stroke-width="1" class="axis-label-item" dominant-baseline="central" dx=".5" dy="0" font-family="sans-serif" font-size="12" font-style="normal" font-variant="normal" font-weight="normal" opacity=".45" paint-order="stroke" style="transform:translate(0px, 0px);" text-anchor="end" visibility="visible">0</text>
                  </g>
                </g>
                <g fill="none" class="axis-label" transform="matrix(1 0 0 1 82.48 259.15)">
                  <g>
                    <text fill="rgba(29,33,41,1)" stroke-width="1" class="axis-label-item" dominant-baseline="central" dx=".5" dy="0" font-family="sans-serif" font-size="12" font-style="normal" font-variant="normal" font-weight="normal" opacity=".45" paint-order="stroke" style="transform:translate(0px, 0px);" text-anchor="end" visibility="visible">500</text>
                  </g>
                </g>
                <g fill="none" class="axis-label" transform="matrix(1 0 0 1 82.48 178.1)">
                  <g>
                    <text fill="rgba(29,33,41,1)" stroke-width="1" class="axis-label-item" dominant-baseline="central" dx=".5" dy="0" font-family="sans-serif" font-size="12" font-style="normal" font-variant="normal" font-weight="normal" opacity=".45" paint-order="stroke" style="transform:translate(0px, 0px);" text-anchor="end" visibility="visible">1000</text>
                  </g>
                </g>
                <g fill="none" class="axis-label" transform="matrix(1 0 0 1 82.48 97.05)">
                  <g>
                    <text fill="rgba(29,33,41,1)" stroke-width="1" class="axis-label-item" dominant-baseline="central" dx=".5" dy="0" font-family="sans-serif" font-size="12" font-style="normal" font-variant="normal" font-weight="normal" opacity=".45" paint-order="stroke" style="transform:translate(0px, 0px);" text-anchor="end" visibility="visible">1500</text>
                  </g>
                </g>
                <g fill="none" class="axis-label" transform="matrix(1 0 0 1 82.48 16)">
                  <g>
                    <text fill="rgba(29,33,41,1)" stroke-width="1" class="axis-label-item" dominant-baseline="central" dx=".5" dy="0" font-family="sans-serif" font-size="12" font-style="normal" font-variant="normal" font-weight="normal" opacity=".45" paint-order="stroke" style="transform:translate(0px, 0px);" text-anchor="end" visibility="visible">2000</text>
                  </g>
                </g>
              </g>
            </g>
            <g fill="none" class="axis-title-group" transform="matrix(1 0 0 1 28.5 178.1)">
              <g transform="matrix(0 -1 1 0 -7.5 .5)">
                <text fill="rgba(29,33,41,1)" stroke-width="1" class="axis-title" dominant-baseline="central" dx=".5" dy="0" font-family="sans-serif" font-size="12" font-style="normal" font-variant="normal" font-weight="normal" opacity=".9" paint-order="stroke" style="transform:translate(0px, 0px);" text-anchor="middle">sales</text>
              </g>
            </g>
          </g>
        </g>
        <g clip-path="url(#d)" transform="matrix(1 0 0 1 90.48 16)">
          <path width="533.52" height="324.2" fill="rgba(0,0,0,0)" d="m0 0 533.52 0 0 324.2-533.52 0z" class="plot"/>
          <g fill="none" class="main-layer">
            <g>
              <path width="25.4057" height="128.5884" x="0" y="195.6116" fill="rgba(24,144,255,1)" fill-opacity=".6" stroke="rgba(23,131,255,1)" stroke-width="0" d="m0 195.6116 25.4057 0 0 128.5884-25.4057 0z" class="element"/>
            </g>
            <g>
              <path width="25.4057" height="107.1958" x="25.4057" y="217.0042" fill="rgba(24,144,255,1)" fill-opacity=".6" stroke="rgba(23,131,255,1)" stroke-width="0" d="m25.4057 217.0042 25.4057 0 0 107.1958-25.4057 0z" class="element"/>
            </g>
            <g>
              <path width="25.4057" height="99.8631" x="50.8114" y="224.3369" fill="rgba(24,144,255,1)" fill-opacity=".6" stroke="rgba(23,131,255,1)" stroke-width="0" d="m50.8114 224.337 25.4057 0 0 99.863-25.4057 0z" class="element"/>
            </g>
            <g>
              <path width="25.4057" height="87.388" x="76.2171" y="236.812" fill="rgba(24,144,255,1)" fill-opacity=".6" stroke="rgba(23,131,255,1)" stroke-width="0" d="m76.2171 236.812 25.4058 0 0 87.388-25.4058 0z" class="element"/>
            </g>
            <g>
              <path width="25.4057" height="95.3845" x="101.6229" y="228.8155" fill="rgba(24,144,255,1)" fill-opacity=".6" stroke="rgba(23,131,255,1)" stroke-width="0" d="m101.6229 228.8155 25.4057 0 0 95.3845-25.4057 0z" class="element"/>
            </g>
            <g>
              <path width="25.4057" height="91.1815" x="127.0286" y="233.0185" fill="rgba(24,144,255,1)" fill-opacity=".6" stroke="rgba(23,131,255,1)" stroke-width="0" d="m127.0286 233.0185 25.4057 0 0 91.1815-25.4057 0z" class="element"/>
            </g>
            <g>
              <path width="25.4057" height="113.8512" x="152.4343" y="210.3488" fill="rgba(24,144,255,1)" fill-opacity=".6" stroke="rgba(23,131,255,1)" stroke-width="0" d="m152.4343 210.3488 25.4057 0 0 113.8512-25.4057 0z" class="element"/>
            </g>
            <g>
              <path width="25.4057" height="83.6744" x="177.84" y="240.5256" fill="rgba(24,144,255,1)" fill-opacity=".6" stroke="rgba(23,131,255,1)" stroke-width="0" d="m177.84 240.5256 25.4057 0 0 83.6744-25.4057 0z" class="element"/>
            </g>
            <g>
              <path width="25.4057" height="88.9751" x="203.2457" y="235.2249" fill="rgba(24,144,255,1)" fill-opacity=".6" stroke="rgba(23,131,255,1)" stroke-width="0" d="m203.2457 235.2249 25.4057 0 0 88.9751-25.4057 0z" class="element"/>
            </g>
            <g>
              <path width="25.4057" height="111.5795" x="228.6514" y="212.6205" fill="rgba(24,144,255,1)" fill-opacity=".6" stroke="rgba(23,131,255,1)" stroke-width="0" d="m228.6514 212.6205 25.4057 0 0 111.5795-25.4057 0z" class="element"/>
            </g>
            <g>
              <path width="25.4057" height="94.6462" x="254.0571" y="229.5538" fill="rgba(24,144,255,1)" fill-opacity=".6" stroke="rgba(23,131,255,1)" stroke-width="0" d="m254.0571 229.5538 25.4058 0 0 94.6462-25.4058 0z" class="element"/>
            </g>
            <g>
              <path width="25.4057" height="105.2748" x="279.4629" y="218.9252" fill="rgba(24,144,255,1)" fill-opacity=".6" stroke="rgba(23,131,255,1)" stroke-width="0" d="m279.4629 218.9252 25.4057 0 0 105.2748-25.4057 0z" class="element"/>
            </g>
            <g>
              <path width="25.4057" height="98.1011" x="304.8686" y="226.0989" fill="rgba(24,144,255,1)" fill-opacity=".6" stroke="rgba(23,131,255,1)" stroke-width="0" d="m304.8686 226.099 25.4057 0 0 98.101-25.4057 0z" class="element"/>
            </g>
            <g>
              <path width="25.4057" height="88.2794" x="330.2743" y="235.9206" fill="rgba(24,144,255,1)" fill-opacity=".6" stroke="rgba(23,131,255,1)" stroke-width="0" d="m330.2743 235.9206 25.4057 0 0 88.2794-25.4057 0z" class="element"/>
            </g>
            <g>
              <path width="25.4057" height="113.7995" x="355.68" y="210.4005" fill="rgba(24,144,255,1)" fill-opacity=".6" stroke="rgba(23,131,255,1)" stroke-width="0" d="m355.68 210.4005 25.4057 0 0 113.7995-25.4057 0z" class="element"/>
            </g>
            <g>
              <path width="25.4057" height="124.2928" x="381.0857" y="199.9072" fill="rgba(24,144,255,1)" fill-opacity=".6" stroke="rgba(23,131,255,1)" stroke-width="0" d="m381.0857 199.9072 25.4057 0 0 124.2928-25.4057 0z" class="element"/>
            </g>
            <g>
              <path width="25.4057" height="98.8209" x="406.4914" y="225.3791" fill="rgba(24,144,255,1)" fill-opacity=".6" stroke="rgba(23,131,255,1)" stroke-width="0" d="m406.4914 225.3791 25.4057 0 0 98.8209-25.4057 0z" class="element"/>
            </g>
            <g>
              <path width="25.4057" height="100.7612" x="431.8971" y="223.4388" fill="rgba(24,144,255,1)" fill-opacity=".6" stroke="rgba(23,131,255,1)" stroke-width="0" d="m431.8971 223.4388 25.4058 0 0 100.7612-25.4058 0z" class="element"/>
            </g>
            <g>
              <path width="25.4057" height="121.0936" x="457.3029" y="203.1064" fill="rgba(24,144,255,1)" fill-opacity=".6" stroke="rgba(23,131,255,1)" stroke-width="0" d="m457.3029 203.1064 25.4057 0 0 121.0936-25.4057 0z" class="element"/>
            </g>
            <g>
              <path width="25.4057" height="139.3996" x="482.7086" y="184.8004" fill="rgba(24,144,255,1)" fill-opacity=".6" stroke="rgba(23,131,255,1)" stroke-width="0" d="m482.7086 184.8004 25.4057 0 0 139.3996-25.4057 0z" class="element"/>
            </g>
            <g>
              <path width="25.4057" height="117.4606" x="508.1143" y="206.7394" fill="rgba(24,144,255,1)" fill-opacity=".6" stroke="rgba(23,131,255,1)" stroke-width="0" d="m508.1143 206.7394 25.4057 0 0 117.4606-25.4057 0z" class="element"/>
            </g>
          </g>
          <g fill="none" class="main-layer">
            <g>
              <path fill="none" stroke="rgba(255,77,79,1)" stroke-linecap="round" stroke-width="3" d="m12.703 308.59 25.406-.748 25.405-1.617 25.406-1.468 25.406 1.864 25.405-4.024 25.406.324 25.406.611 25.406-2.105 25.405.026 25.406-.51 25.406-.781 25.405.814 25.406 2.604 25.406-2.141 25.406-.508 25.405 4.111 25.406-.804 25.406-.264 25.405 1.847 25.406 1.742" class="element"/>
            </g>
          </g>
          <g fill="none" class="main-layer">
            <g>
              <path fill="rgba(82,196,26,1)" fill-opacity=".4" stroke="rgba(23,131,255,1)" stroke-width="0" d="m12.703 51.944 25.406 42.454 25.405 6.903 25.406-4.233 25.406 1.04 25.405 6.109 25.406 2.573 25.406 49.18 25.406-31.023 25.405 6.758 25.406 8.87 25.406 47.368 25.405-16.921 25.406 26.695 25.406-3.148 25.406-10.068 25.405-17.743 25.406 19.603 25.406 18.069 25.405-41.513 25.406-.967 0 162.25-25.406 0-25.405 0-25.406 0-25.406 0-25.405 0-25.406 0-25.406 0-25.406 0-25.405 0-25.406 0-25.406 0-25.405 0-25.406 0-25.406 0-25.406 0-25.405 0-25.406 0-25.406 0-25.405 0-25.406 0Z" class="element"/>
            </g>
          </g>
          <g fill="none" class="label-layer"/>
        </g>
      </g>
    </g>
  </g>
</svg>
