<svg xmlns="http://www.w3.org/2000/svg" width="640" height="480" color-interpolation-filters="sRGB" style="background: transparent;">
  <defs>
    <clipPath id="d" transform="matrix(1 0 0 1 -90.48 -16)">
      <use href="#c"/>
    </clipPath>
    <path id="a" width="533.52" height="324.2" x="90.48" y="16" fill="none" d="m90.48 16 533.52 0 0 324.2-533.52 0z"/>
    <path id="b" width="533.52" height="324.92" x="90.48" y="16" fill="none" d="m90.48 16 533.52 0 0 324.92-533.52 0z"/>
    <path id="c" width="533.52" height="324.2" x="90.48" y="16" fill="none" d="m90.48 16 533.52 0 0 324.2-533.52 0z"/>
  </defs>
  <g>
    <g fill="none">
      <g fill="none" class="view">
        <g>
          <path width="640" height="480" x="0" y="0" fill="rgba(0,0,0,0)" d="m0 0 640 0 0 480-640 0z" class="area"/>
        </g>
        <g>
          <path width="608" height="448" x="16" y="16" fill="rgba(0,0,0,0)" d="m16 16 608 0 0 448-608 0z" class="area"/>
        </g>
        <g>
          <path width="533.52" height="324.2" x="90.48" y="16" fill="rgba(0,0,0,0)" d="m90.48 16 533.52 0 0 324.2-533.52 0z" class="area"/>
        </g>
        <g>
          <path width="533.52" height="324.2" x="90.48" y="16" fill="rgba(0,0,0,0)" d="m90.48 16 533.52 0 0 324.2-533.52 0z" class="area"/>
        </g>
        <g fill="none" class="component">
          <g fill="none" class="slider">
            <g>
              <path width="533.52" height="16" x="90.48" y="440" fill="rgba(65,97,128,1)" d="m90.48 440 533.52 0 0 16-533.52 0z" class="slider-track" opacity=".05"/>
            </g>
            <g fill="none" class="slider-sparkline-group">
              <g fill="none" class="slider-sparkline">
                <g>
                  <path fill="none" class="container"/>
                </g>
                <g fill="none" class="spark sparkline" transform="matrix(1 0 0 1 90.48 440)">
                  <g fill="none">
                    <g>
                      <path fill="none" stroke="rgba(131,218,173,1)" stroke-width="1" d="M0 10.1497c0 0 5.5184-.5377 9.0427-1.48 3.7098-.9919 5.36-3.3555 9.0427-3.3555 3.5515 0 5.3848 2.1782 9.0427 2.1782 3.5762 0 5.5186-.1604 9.0427-.9595 3.71-.8413 5.3964-3.1415 9.0428-3.1415 3.5877 0 5.4095 2.6357 9.0427 2.6357 3.601 0 5.3784-2.3192 9.0427-2.3192 3.5699 0 5.4932.9743 9.0427.9743 3.6847 0 5.3476-2.6637 9.0427-2.7154 3.539-.0494 5.472-.0494 9.0427-.0494 3.6635 0 5.384 2.0752 9.0427 2.0752 3.5754 0 5.5366 0 9.0427-.652 3.728-.6932 5.3137-3.3406 9.0428-3.3406 3.505 0 5.522 0 9.0427.5775 3.7134.609 5.36 3.0933 9.0427 3.0933 3.5515 0 5.397-1.7821 9.0427-1.7821 3.5886 0 5.4283.4106 9.0427.734 3.6198.3238 5.4646.884 9.0427.884 3.656 0 5.3853-1.5132 9.0427-2.1014 3.5767-.5751 5.4505-.8068 9.0427-.8068 3.642 0 5.3981 1.2427 9.0427 1.7172 3.5896.4673 5.4572.1495 9.0428.6371 3.6486.4962 5.3897 1.7206 9.0427 1.8224 3.5812.0999 5.4309 0 9.0427.0999 3.6224.1 5.464.7 9.0427.7 3.6555 0 5.4994-2.0157 9.0427-2.0157 3.6909 0 5.3867 3.3704 9.0427 3.3704 3.5782 0 5.357-2.7268 9.0427-2.7268 3.5484 0 5.4157.9433 9.0427.9526 3.6072.0093 5.5846 0 9.0428.0093 3.776.0101 5.3243 3.9654 9.0427 3.9654 3.5158 0 5.3696-2.3222 9.0427-2.3222 3.5611 0 5.5452 0 9.0427.4012 3.7367.4288 5.3152 3.4286 9.0427 3.4286 3.5067 0 5.4832-1 9.0427-1 3.6746 0 5.3628 2.537 9.0427 2.537 3.5543 0 5.4275-.4085 9.0427-.717 3.619-.3088 5.5648-.8264 9.0428-.8264 3.7562 0 5.279 3.739 9.0427 3.7954 3.4704.052 5.5335.052 9.0427.052 3.725 0 5.3214-3.2195 9.0427-3.2195 3.5129 0 5.5163 0 9.0427.5787 3.7078.6084 5.3826 2.9996 9.0427 2.9996 3.574 0 5.3813-2.1856 9.0427-2.1856 3.5727 0 5.4294.4386 9.0427.795 3.6209.357 5.425.9886 9.0427.9886 3.6165 0 5.4167-.703 9.0428-.96 3.608-.2556 5.4449-.3216 9.0427-.3216 3.6364 0 5.4108.9492 9.0427 1.3676 3.6023.415 5.4264.4202 9.0427.7158 3.6178.2958 5.428.7625 9.0427.7625 3.6195 0 5.4197-.6137 9.0427-.895 3.6111-.2802 5.4522-.0815 9.0427-.5088 3.6436-.4336 5.46-.834 9.0427-1.6432 3.6514-.8247 5.4294-2.4416 9.0428-2.4416 3.6207 0 5.4665 2.514 9.0427 2.514 3.658 0 5.3483-3.2254 9.0427-3.2254 3.5398 0 5.4754 1.6892 9.0427 1.6892 3.6669 0 9.0427-2.7655 9.0427-2.7655" class="line"/>
                    </g>
                  </g>
                  <g fill="none"/>
                </g>
              </g>
            </g>
            <g>
              <path width="533.52" height="16" x="90.48" y="440" fill="rgba(0,0,0,0)" d="m90.48 440 533.52 0 0 16-533.52 0z" class="slider-brush-area"/>
            </g>
            <g fill="none" class="slider-foreground">
              <g transform="matrix(1 0 0 1 90.48 440)">
                <path width="352.6567" height="16" fill="rgba(23,131,255,1)" fill-opacity=".15" d="m0 0 352.6567 0 0 16-352.6567 0z" class="slider-selection" visibility="hidden"/>
              </g>
              <g transform="matrix(1 0 0 1 90.48 440)">
                <path width="180.8633" height="16" x="352.6567" fill="rgba(23,131,255,1)" fill-opacity=".15" d="m352.6567 0 180.8633 0 0 16-180.8633 0z" class="slider-selection" visibility="visible"/>
              </g>
              <g transform="matrix(1 0 0 1 90.48 440)">
                <path width="0" height="16" x="533.52" fill="rgba(23,131,255,1)" fill-opacity=".15" d="m533.52 0 0 0 0 16 0 0z" class="slider-selection" visibility="hidden"/>
              </g>
              <g fill="none" class="slider-handle start-handle" transform="matrix(1 0 0 1 443.1367 448)">
                <g fill="none" class="handle-icon-group">
                  <g fill="none" class="handle-icon">
                    <g>
                      <path width="10" height="24" x="-5" y="-12" fill="rgba(247,247,247,1)" stroke="rgba(29,33,41,1)" stroke-opacity=".25" stroke-width="1" d="m-3-12 6 0a2 2 0 0 1 2 2l0 20a2 2 0 0 1-2 2l-6 0a2 2 0 0 1-2-2l0-20a2 2 0 0 1 2-2z" class="handle-icon-rect"/>
                      <g>
                        <line x1="-1.6667" x2="-1.6667" y1="-6" y2="6" fill="rgba(247,247,247,1)" stroke="rgba(29,33,41,1)" stroke-opacity=".25" stroke-width="1" class="handle-icon-line-1"/>
                      </g>
                      <g>
                        <line x1="1.6667" x2="1.6667" y1="-6" y2="6" fill="rgba(247,247,247,1)" stroke="rgba(29,33,41,1)" stroke-opacity=".25" stroke-width="1" class="handle-icon-line-2"/>
                      </g>
                    </g>
                  </g>
                </g>
                <g fill="none" class="handle-label-group">
                  <g>
                    <text x="-34.28" y="0" fill="rgba(29,33,41,1)" fill-opacity=".45" class="handle-label" dominant-baseline="central" dx=".5" dy="0" font-size="12" font-weight="normal" paint-order="stroke" style="transform:translate(0px, 0px);" text-anchor="middle">Day-40</text>
                  </g>
                </g>
              </g>
              <g fill="none" class="slider-handle end-handle" transform="matrix(1 0 0 1 624 448)">
                <g fill="none" class="handle-icon-group">
                  <g fill="none" class="handle-icon">
                    <g>
                      <path width="10" height="24" x="-5" y="-12" fill="rgba(247,247,247,1)" stroke="rgba(29,33,41,1)" stroke-opacity=".25" stroke-width="1" d="m-3-12 6 0a2 2 0 0 1 2 2l0 20a2 2 0 0 1-2 2l-6 0a2 2 0 0 1-2-2l0-20a2 2 0 0 1 2-2z" class="handle-icon-rect"/>
                      <g>
                        <line x1="-1.6667" x2="-1.6667" y1="-6" y2="6" fill="rgba(247,247,247,1)" stroke="rgba(29,33,41,1)" stroke-opacity=".25" stroke-width="1" class="handle-icon-line-1"/>
                      </g>
                      <g>
                        <line x1="1.6667" x2="1.6667" y1="-6" y2="6" fill="rgba(247,247,247,1)" stroke="rgba(29,33,41,1)" stroke-opacity=".25" stroke-width="1" class="handle-icon-line-2"/>
                      </g>
                    </g>
                  </g>
                </g>
                <g fill="none" class="handle-label-group">
                  <g>
                    <text x="-34.22" y="0" fill="rgba(29,33,41,1)" fill-opacity=".45" class="handle-label" dominant-baseline="central" dx=".5" dy="0" font-size="12" font-weight="normal" paint-order="stroke" style="transform:translate(0px, 0px);" text-anchor="middle">Day-60</text>
                  </g>
                </g>
              </g>
            </g>
          </g>
        </g>
        <g fill="none" class="component">
          <g fill="none" class="axis">
            <g fill="none" class="axis-grid-group"/>
            <g fill="none" class="axis-main-group">
              <g fill="none" class="axis-line-group">
                <g>
                  <line x1="90.48" x2="624" y1="340.2" y2="340.2" fill="none" stroke="rgba(29,33,41,1)" stroke-opacity=".45" stroke-width=".5" class="axis-line axis-line" opacity="0"/>
                </g>
              </g>
              <g fill="none" class="axis-tick-group">
                <g fill="none" class="axis-tick" transform="matrix(1 0 0 1 103.1829 340.2)">
                  <g>
                    <line x1="0" x2="0" y1="0" y2="4" fill="none" stroke="rgba(29,33,41,1)" stroke-width="1" class="axis-tick-item" opacity=".45"/>
                  </g>
                </g>
                <g fill="none" class="axis-tick" transform="matrix(1 0 0 1 128.5886 340.2)">
                  <g>
                    <line x1="0" x2="0" y1="0" y2="4" fill="none" stroke="rgba(29,33,41,1)" stroke-width="1" class="axis-tick-item" opacity=".45"/>
                  </g>
                </g>
                <g fill="none" class="axis-tick" transform="matrix(1 0 0 1 153.9943 340.2)">
                  <g>
                    <line x1="0" x2="0" y1="0" y2="4" fill="none" stroke="rgba(29,33,41,1)" stroke-width="1" class="axis-tick-item" opacity=".45"/>
                  </g>
                </g>
                <g fill="none" class="axis-tick" transform="matrix(1 0 0 1 179.4 340.2)">
                  <g>
                    <line x1="0" x2="0" y1="0" y2="4" fill="none" stroke="rgba(29,33,41,1)" stroke-width="1" class="axis-tick-item" opacity=".45"/>
                  </g>
                </g>
                <g fill="none" class="axis-tick" transform="matrix(1 0 0 1 204.8057 340.2)">
                  <g>
                    <line x1="0" x2="0" y1="0" y2="4" fill="none" stroke="rgba(29,33,41,1)" stroke-width="1" class="axis-tick-item" opacity=".45"/>
                  </g>
                </g>
                <g fill="none" class="axis-tick" transform="matrix(1 0 0 1 230.2114 340.2)">
                  <g>
                    <line x1="0" x2="0" y1="0" y2="4" fill="none" stroke="rgba(29,33,41,1)" stroke-width="1" class="axis-tick-item" opacity=".45"/>
                  </g>
                </g>
                <g fill="none" class="axis-tick" transform="matrix(1 0 0 1 255.6171 340.2)">
                  <g>
                    <line x1="0" x2="0" y1="0" y2="4" fill="none" stroke="rgba(29,33,41,1)" stroke-width="1" class="axis-tick-item" opacity=".45"/>
                  </g>
                </g>
                <g fill="none" class="axis-tick" transform="matrix(1 0 0 1 281.0229 340.2)">
                  <g>
                    <line x1="0" x2="0" y1="0" y2="4" fill="none" stroke="rgba(29,33,41,1)" stroke-width="1" class="axis-tick-item" opacity=".45"/>
                  </g>
                </g>
                <g fill="none" class="axis-tick" transform="matrix(1 0 0 1 306.4286 340.2)">
                  <g>
                    <line x1="0" x2="0" y1="0" y2="4" fill="none" stroke="rgba(29,33,41,1)" stroke-width="1" class="axis-tick-item" opacity=".45"/>
                  </g>
                </g>
                <g fill="none" class="axis-tick" transform="matrix(1 0 0 1 331.8343 340.2)">
                  <g>
                    <line x1="0" x2="0" y1="0" y2="4" fill="none" stroke="rgba(29,33,41,1)" stroke-width="1" class="axis-tick-item" opacity=".45"/>
                  </g>
                </g>
                <g fill="none" class="axis-tick" transform="matrix(1 0 0 1 357.24 340.2)">
                  <g>
                    <line x1="0" x2="0" y1="0" y2="4" fill="none" stroke="rgba(29,33,41,1)" stroke-width="1" class="axis-tick-item" opacity=".45"/>
                  </g>
                </g>
                <g fill="none" class="axis-tick" transform="matrix(1 0 0 1 382.6457 340.2)">
                  <g>
                    <line x1="0" x2="0" y1="0" y2="4" fill="none" stroke="rgba(29,33,41,1)" stroke-width="1" class="axis-tick-item" opacity=".45"/>
                  </g>
                </g>
                <g fill="none" class="axis-tick" transform="matrix(1 0 0 1 408.0514 340.2)">
                  <g>
                    <line x1="0" x2="0" y1="0" y2="4" fill="none" stroke="rgba(29,33,41,1)" stroke-width="1" class="axis-tick-item" opacity=".45"/>
                  </g>
                </g>
                <g fill="none" class="axis-tick" transform="matrix(1 0 0 1 433.4572 340.2)">
                  <g>
                    <line x1="0" x2="0" y1="0" y2="4" fill="none" stroke="rgba(29,33,41,1)" stroke-width="1" class="axis-tick-item" opacity=".45"/>
                  </g>
                </g>
                <g fill="none" class="axis-tick" transform="matrix(1 0 0 1 458.8629 340.2)">
                  <g>
                    <line x1="0" x2="0" y1="0" y2="4" fill="none" stroke="rgba(29,33,41,1)" stroke-width="1" class="axis-tick-item" opacity=".45"/>
                  </g>
                </g>
                <g fill="none" class="axis-tick" transform="matrix(1 0 0 1 484.2686 340.2)">
                  <g>
                    <line x1="0" x2="0" y1="0" y2="4" fill="none" stroke="rgba(29,33,41,1)" stroke-width="1" class="axis-tick-item" opacity=".45"/>
                  </g>
                </g>
                <g fill="none" class="axis-tick" transform="matrix(1 0 0 1 509.6743 340.2)">
                  <g>
                    <line x1="0" x2="0" y1="0" y2="4" fill="none" stroke="rgba(29,33,41,1)" stroke-width="1" class="axis-tick-item" opacity=".45"/>
                  </g>
                </g>
                <g fill="none" class="axis-tick" transform="matrix(1 0 0 1 535.08 340.2)">
                  <g>
                    <line x1="0" x2="0" y1="0" y2="4" fill="none" stroke="rgba(29,33,41,1)" stroke-width="1" class="axis-tick-item" opacity=".45"/>
                  </g>
                </g>
                <g fill="none" class="axis-tick" transform="matrix(1 0 0 1 560.4857 340.2)">
                  <g>
                    <line x1="0" x2="0" y1="0" y2="4" fill="none" stroke="rgba(29,33,41,1)" stroke-width="1" class="axis-tick-item" opacity=".45"/>
                  </g>
                </g>
                <g fill="none" class="axis-tick" transform="matrix(1 0 0 1 585.8914 340.2)">
                  <g>
                    <line x1="0" x2="0" y1="0" y2="4" fill="none" stroke="rgba(29,33,41,1)" stroke-width="1" class="axis-tick-item" opacity=".45"/>
                  </g>
                </g>
                <g fill="none" class="axis-tick" transform="matrix(1 0 0 1 611.2971 340.2)">
                  <g>
                    <line x1="0" x2="0" y1="0" y2="4" fill="none" stroke="rgba(29,33,41,1)" stroke-width="1" class="axis-tick-item" opacity=".45"/>
                  </g>
                </g>
              </g>
              <g fill="none" class="axis-label-group">
                <g fill="none" class="axis-label" transform="matrix(1 0 0 1 103.1829 348.2)">
                  <g transform="matrix(0 1 -1 0 0 0)">
                    <text fill="rgba(29,33,41,1)" stroke-width="1" class="axis-label-item" dominant-baseline="central" dx=".5" dy="0" font-family="sans-serif" font-size="12" font-style="normal" font-variant="normal" font-weight="normal" opacity=".45" paint-order="stroke" style="transform:translate(0px, 0px);" text-anchor="left" visibility="visible">Day-40</text>
                  </g>
                </g>
                <g fill="none" class="axis-label" transform="matrix(1 0 0 1 128.5886 348.2)">
                  <g transform="matrix(0 1 -1 0 0 0)">
                    <text fill="rgba(29,33,41,1)" stroke-width="1" class="axis-label-item" dominant-baseline="central" dx=".5" dy="0" font-family="sans-serif" font-size="12" font-style="normal" font-variant="normal" font-weight="normal" opacity=".45" paint-order="stroke" style="transform:translate(0px, 0px);" text-anchor="left" visibility="visible">Day-41</text>
                  </g>
                </g>
                <g fill="none" class="axis-label" transform="matrix(1 0 0 1 153.9943 348.2)">
                  <g transform="matrix(0 1 -1 0 0 0)">
                    <text fill="rgba(29,33,41,1)" stroke-width="1" class="axis-label-item" dominant-baseline="central" dx=".5" dy="0" font-family="sans-serif" font-size="12" font-style="normal" font-variant="normal" font-weight="normal" opacity=".45" paint-order="stroke" style="transform:translate(0px, 0px);" text-anchor="left" visibility="visible">Day-42</text>
                  </g>
                </g>
                <g fill="none" class="axis-label" transform="matrix(1 0 0 1 179.4 348.2)">
                  <g transform="matrix(0 1 -1 0 0 0)">
                    <text fill="rgba(29,33,41,1)" stroke-width="1" class="axis-label-item" dominant-baseline="central" dx=".5" dy="0" font-family="sans-serif" font-size="12" font-style="normal" font-variant="normal" font-weight="normal" opacity=".45" paint-order="stroke" style="transform:translate(0px, 0px);" text-anchor="left" visibility="visible">Day-43</text>
                  </g>
                </g>
                <g fill="none" class="axis-label" transform="matrix(1 0 0 1 204.8057 348.2)">
                  <g transform="matrix(0 1 -1 0 0 0)">
                    <text fill="rgba(29,33,41,1)" stroke-width="1" class="axis-label-item" dominant-baseline="central" dx=".5" dy="0" font-family="sans-serif" font-size="12" font-style="normal" font-variant="normal" font-weight="normal" opacity=".45" paint-order="stroke" style="transform:translate(0px, 0px);" text-anchor="left" visibility="visible">Day-44</text>
                  </g>
                </g>
                <g fill="none" class="axis-label" transform="matrix(1 0 0 1 230.2114 348.2)">
                  <g transform="matrix(0 1 -1 0 0 0)">
                    <text fill="rgba(29,33,41,1)" stroke-width="1" class="axis-label-item" dominant-baseline="central" dx=".5" dy="0" font-family="sans-serif" font-size="12" font-style="normal" font-variant="normal" font-weight="normal" opacity=".45" paint-order="stroke" style="transform:translate(0px, 0px);" text-anchor="left" visibility="visible">Day-45</text>
                  </g>
                </g>
                <g fill="none" class="axis-label" transform="matrix(1 0 0 1 255.6171 348.2)">
                  <g transform="matrix(0 1 -1 0 0 0)">
                    <text fill="rgba(29,33,41,1)" stroke-width="1" class="axis-label-item" dominant-baseline="central" dx=".5" dy="0" font-family="sans-serif" font-size="12" font-style="normal" font-variant="normal" font-weight="normal" opacity=".45" paint-order="stroke" style="transform:translate(0px, 0px);" text-anchor="left" visibility="visible">Day-46</text>
                  </g>
                </g>
                <g fill="none" class="axis-label" transform="matrix(1 0 0 1 281.0229 348.2)">
                  <g transform="matrix(0 1 -1 0 0 0)">
                    <text fill="rgba(29,33,41,1)" stroke-width="1" class="axis-label-item" dominant-baseline="central" dx=".5" dy="0" font-family="sans-serif" font-size="12" font-style="normal" font-variant="normal" font-weight="normal" opacity=".45" paint-order="stroke" style="transform:translate(0px, 0px);" text-anchor="left" visibility="visible">Day-47</text>
                  </g>
                </g>
                <g fill="none" class="axis-label" transform="matrix(1 0 0 1 306.4286 348.2)">
                  <g transform="matrix(0 1 -1 0 0 0)">
                    <text fill="rgba(29,33,41,1)" stroke-width="1" class="axis-label-item" dominant-baseline="central" dx=".5" dy="0" font-family="sans-serif" font-size="12" font-style="normal" font-variant="normal" font-weight="normal" opacity=".45" paint-order="stroke" style="transform:translate(0px, 0px);" text-anchor="left" visibility="visible">Day-48</text>
                  </g>
                </g>
                <g fill="none" class="axis-label" transform="matrix(1 0 0 1 331.8343 348.2)">
                  <g transform="matrix(0 1 -1 0 0 0)">
                    <text fill="rgba(29,33,41,1)" stroke-width="1" class="axis-label-item" dominant-baseline="central" dx=".5" dy="0" font-family="sans-serif" font-size="12" font-style="normal" font-variant="normal" font-weight="normal" opacity=".45" paint-order="stroke" style="transform:translate(0px, 0px);" text-anchor="left" visibility="visible">Day-49</text>
                  </g>
                </g>
                <g fill="none" class="axis-label" transform="matrix(1 0 0 1 357.24 348.2)">
                  <g transform="matrix(0 1 -1 0 0 0)">
                    <text fill="rgba(29,33,41,1)" stroke-width="1" class="axis-label-item" dominant-baseline="central" dx=".5" dy="0" font-family="sans-serif" font-size="12" font-style="normal" font-variant="normal" font-weight="normal" opacity=".45" paint-order="stroke" style="transform:translate(0px, 0px);" text-anchor="left" visibility="visible">Day-50</text>
                  </g>
                </g>
                <g fill="none" class="axis-label" transform="matrix(1 0 0 1 382.6457 348.2)">
                  <g transform="matrix(0 1 -1 0 0 0)">
                    <text fill="rgba(29,33,41,1)" stroke-width="1" class="axis-label-item" dominant-baseline="central" dx=".5" dy="0" font-family="sans-serif" font-size="12" font-style="normal" font-variant="normal" font-weight="normal" opacity=".45" paint-order="stroke" style="transform:translate(0px, 0px);" text-anchor="left" visibility="visible">Day-51</text>
                  </g>
                </g>
                <g fill="none" class="axis-label" transform="matrix(1 0 0 1 408.0514 348.2)">
                  <g transform="matrix(0 1 -1 0 0 0)">
                    <text fill="rgba(29,33,41,1)" stroke-width="1" class="axis-label-item" dominant-baseline="central" dx=".5" dy="0" font-family="sans-serif" font-size="12" font-style="normal" font-variant="normal" font-weight="normal" opacity=".45" paint-order="stroke" style="transform:translate(0px, 0px);" text-anchor="left" visibility="visible">Day-52</text>
                  </g>
                </g>
                <g fill="none" class="axis-label" transform="matrix(1 0 0 1 433.4572 348.2)">
                  <g transform="matrix(0 1 -1 0 0 0)">
                    <text fill="rgba(29,33,41,1)" stroke-width="1" class="axis-label-item" dominant-baseline="central" dx=".5" dy="0" font-family="sans-serif" font-size="12" font-style="normal" font-variant="normal" font-weight="normal" opacity=".45" paint-order="stroke" style="transform:translate(0px, 0px);" text-anchor="left" visibility="visible">Day-53</text>
                  </g>
                </g>
                <g fill="none" class="axis-label" transform="matrix(1 0 0 1 458.8629 348.2)">
                  <g transform="matrix(0 1 -1 0 0 0)">
                    <text fill="rgba(29,33,41,1)" stroke-width="1" class="axis-label-item" dominant-baseline="central" dx=".5" dy="0" font-family="sans-serif" font-size="12" font-style="normal" font-variant="normal" font-weight="normal" opacity=".45" paint-order="stroke" style="transform:translate(0px, 0px);" text-anchor="left" visibility="visible">Day-54</text>
                  </g>
                </g>
                <g fill="none" class="axis-label" transform="matrix(1 0 0 1 484.2686 348.2)">
                  <g transform="matrix(0 1 -1 0 0 0)">
                    <text fill="rgba(29,33,41,1)" stroke-width="1" class="axis-label-item" dominant-baseline="central" dx=".5" dy="0" font-family="sans-serif" font-size="12" font-style="normal" font-variant="normal" font-weight="normal" opacity=".45" paint-order="stroke" style="transform:translate(0px, 0px);" text-anchor="left" visibility="visible">Day-55</text>
                  </g>
                </g>
                <g fill="none" class="axis-label" transform="matrix(1 0 0 1 509.6743 348.2)">
                  <g transform="matrix(0 1 -1 0 0 0)">
                    <text fill="rgba(29,33,41,1)" stroke-width="1" class="axis-label-item" dominant-baseline="central" dx=".5" dy="0" font-family="sans-serif" font-size="12" font-style="normal" font-variant="normal" font-weight="normal" opacity=".45" paint-order="stroke" style="transform:translate(0px, 0px);" text-anchor="left" visibility="visible">Day-56</text>
                  </g>
                </g>
                <g fill="none" class="axis-label" transform="matrix(1 0 0 1 535.08 348.2)">
                  <g transform="matrix(0 1 -1 0 0 0)">
                    <text fill="rgba(29,33,41,1)" stroke-width="1" class="axis-label-item" dominant-baseline="central" dx=".5" dy="0" font-family="sans-serif" font-size="12" font-style="normal" font-variant="normal" font-weight="normal" opacity=".45" paint-order="stroke" style="transform:translate(0px, 0px);" text-anchor="left" visibility="visible">Day-57</text>
                  </g>
                </g>
                <g fill="none" class="axis-label" transform="matrix(1 0 0 1 560.4857 348.2)">
                  <g transform="matrix(0 1 -1 0 0 0)">
                    <text fill="rgba(29,33,41,1)" stroke-width="1" class="axis-label-item" dominant-baseline="central" dx=".5" dy="0" font-family="sans-serif" font-size="12" font-style="normal" font-variant="normal" font-weight="normal" opacity=".45" paint-order="stroke" style="transform:translate(0px, 0px);" text-anchor="left" visibility="visible">Day-58</text>
                  </g>
                </g>
                <g fill="none" class="axis-label" transform="matrix(1 0 0 1 585.8914 348.2)">
                  <g transform="matrix(0 1 -1 0 0 0)">
                    <text fill="rgba(29,33,41,1)" stroke-width="1" class="axis-label-item" dominant-baseline="central" dx=".5" dy="0" font-family="sans-serif" font-size="12" font-style="normal" font-variant="normal" font-weight="normal" opacity=".45" paint-order="stroke" style="transform:translate(0px, 0px);" text-anchor="left" visibility="visible">Day-59</text>
                  </g>
                </g>
                <g fill="none" class="axis-label" transform="matrix(1 0 0 1 611.2971 348.2)">
                  <g transform="matrix(0 1 -1 0 0 0)">
                    <text fill="rgba(29,33,41,1)" stroke-width="1" class="axis-label-item" dominant-baseline="central" dx=".5" dy="0" font-family="sans-serif" font-size="12" font-style="normal" font-variant="normal" font-weight="normal" opacity=".45" paint-order="stroke" style="transform:translate(0px, 0px);" text-anchor="left" visibility="visible">Day-60</text>
                  </g>
                </g>
              </g>
            </g>
            <g fill="none" class="axis-title-group" transform="matrix(1 0 0 1 357.24 416.5)">
              <g transform="matrix(1 0 0 1 0 8)">
                <text fill="rgba(29,33,41,1)" stroke-width="1" class="axis-title" dominant-baseline="central" dx=".5" dy="-11.5" font-family="sans-serif" font-size="12" font-style="normal" font-variant="normal" font-weight="normal" opacity=".9" paint-order="stroke" style="transform:translate(0px, 0px);" text-anchor="middle">date</text>
              </g>
            </g>
          </g>
        </g>
        <g fill="none" class="component">
          <g fill="none" class="axis">
            <g fill="none" class="axis-grid-group">
              <g fill="none" class="axis-grid">
                <g fill="none" class="grid-line-group">
                  <g>
                    <path fill="none" stroke="rgba(29,33,41,1)" stroke-dasharray="3,4" stroke-opacity=".1" stroke-width=".5" d="m90.48 340.2 533.52 0" class="grid-line"/>
                  </g>
                  <g>
                    <path fill="none" stroke="rgba(29,33,41,1)" stroke-dasharray="3,4" stroke-opacity=".1" stroke-width=".5" d="m90.48 259.15 533.52 0" class="grid-line"/>
                  </g>
                  <g>
                    <path fill="none" stroke="rgba(29,33,41,1)" stroke-dasharray="3,4" stroke-opacity=".1" stroke-width=".5" d="m90.48 178.1 533.52 0" class="grid-line"/>
                  </g>
                  <g>
                    <path fill="none" stroke="rgba(29,33,41,1)" stroke-dasharray="3,4" stroke-opacity=".1" stroke-width=".5" d="m90.48 97.05 533.52 0" class="grid-line"/>
                  </g>
                  <g>
                    <path fill="none" stroke="rgba(29,33,41,1)" stroke-dasharray="3,4" stroke-opacity=".1" stroke-width=".5" d="m90.48 16 533.52 0" class="grid-line"/>
                  </g>
                </g>
                <g fill="none" class="grid-region-group"/>
              </g>
            </g>
            <g fill="none" class="axis-main-group">
              <g fill="none" class="axis-line-group">
                <g>
                  <line x1="90.48" x2="90.48" y1="340.2" y2="16" fill="none" stroke="rgba(29,33,41,1)" stroke-opacity=".45" stroke-width=".5" class="axis-line axis-line" opacity="0"/>
                </g>
              </g>
              <g fill="none" class="axis-tick-group">
                <g fill="none" class="axis-tick" transform="matrix(1 0 0 1 90.48 340.2)">
                  <g>
                    <line x1="0" x2="-4" y1="0" y2="0" fill="none" stroke="rgba(29,33,41,1)" stroke-width="1" class="axis-tick-item" opacity=".45"/>
                  </g>
                </g>
                <g fill="none" class="axis-tick" transform="matrix(1 0 0 1 90.48 259.15)">
                  <g>
                    <line x1="0" x2="-4" y1="0" y2="0" fill="none" stroke="rgba(29,33,41,1)" stroke-width="1" class="axis-tick-item" opacity=".45"/>
                  </g>
                </g>
                <g fill="none" class="axis-tick" transform="matrix(1 0 0 1 90.48 178.1)">
                  <g>
                    <line x1="0" x2="-4" y1="0" y2="0" fill="none" stroke="rgba(29,33,41,1)" stroke-width="1" class="axis-tick-item" opacity=".45"/>
                  </g>
                </g>
                <g fill="none" class="axis-tick" transform="matrix(1 0 0 1 90.48 97.05)">
                  <g>
                    <line x1="0" x2="-4" y1="0" y2="0" fill="none" stroke="rgba(29,33,41,1)" stroke-width="1" class="axis-tick-item" opacity=".45"/>
                  </g>
                </g>
                <g fill="none" class="axis-tick" transform="matrix(1 0 0 1 90.48 16)">
                  <g>
                    <line x1="0" x2="-4" y1="0" y2="0" fill="none" stroke="rgba(29,33,41,1)" stroke-width="1" class="axis-tick-item" opacity=".45"/>
                  </g>
                </g>
              </g>
              <g fill="none" class="axis-label-group">
                <g fill="none" class="axis-label" transform="matrix(1 0 0 1 82.48 340.2)">
                  <g>
                    <text fill="rgba(29,33,41,1)" stroke-width="1" class="axis-label-item" dominant-baseline="central" dx=".5" dy="0" font-family="sans-serif" font-size="12" font-style="normal" font-variant="normal" font-weight="normal" opacity=".45" paint-order="stroke" style="transform:translate(0px, 0px);" text-anchor="end" visibility="visible">0</text>
                  </g>
                </g>
                <g fill="none" class="axis-label" transform="matrix(1 0 0 1 82.48 259.15)">
                  <g>
                    <text fill="rgba(29,33,41,1)" stroke-width="1" class="axis-label-item" dominant-baseline="central" dx=".5" dy="0" font-family="sans-serif" font-size="12" font-style="normal" font-variant="normal" font-weight="normal" opacity=".45" paint-order="stroke" style="transform:translate(0px, 0px);" text-anchor="end" visibility="visible">500</text>
                  </g>
                </g>
                <g fill="none" class="axis-label" transform="matrix(1 0 0 1 82.48 178.1)">
                  <g>
                    <text fill="rgba(29,33,41,1)" stroke-width="1" class="axis-label-item" dominant-baseline="central" dx=".5" dy="0" font-family="sans-serif" font-size="12" font-style="normal" font-variant="normal" font-weight="normal" opacity=".45" paint-order="stroke" style="transform:translate(0px, 0px);" text-anchor="end" visibility="visible">1000</text>
                  </g>
                </g>
                <g fill="none" class="axis-label" transform="matrix(1 0 0 1 82.48 97.05)">
                  <g>
                    <text fill="rgba(29,33,41,1)" stroke-width="1" class="axis-label-item" dominant-baseline="central" dx=".5" dy="0" font-family="sans-serif" font-size="12" font-style="normal" font-variant="normal" font-weight="normal" opacity=".45" paint-order="stroke" style="transform:translate(0px, 0px);" text-anchor="end" visibility="visible">1500</text>
                  </g>
                </g>
                <g fill="none" class="axis-label" transform="matrix(1 0 0 1 82.48 16)">
                  <g>
                    <text fill="rgba(29,33,41,1)" stroke-width="1" class="axis-label-item" dominant-baseline="central" dx=".5" dy="0" font-family="sans-serif" font-size="12" font-style="normal" font-variant="normal" font-weight="normal" opacity=".45" paint-order="stroke" style="transform:translate(0px, 0px);" text-anchor="end" visibility="visible">2000</text>
                  </g>
                </g>
              </g>
            </g>
            <g fill="none" class="axis-title-group" transform="matrix(1 0 0 1 28.5 178.1)">
              <g transform="matrix(0 -1 1 0 -7.5 .5)">
                <text fill="rgba(29,33,41,1)" stroke-width="1" class="axis-title" dominant-baseline="central" dx=".5" dy="0" font-family="sans-serif" font-size="12" font-style="normal" font-variant="normal" font-weight="normal" opacity=".9" paint-order="stroke" style="transform:translate(0px, 0px);" text-anchor="middle">sales</text>
              </g>
            </g>
          </g>
        </g>
        <g clip-path="url(#d)" transform="matrix(1 0 0 1 90.48 16)">
          <path width="533.52" height="324.2" fill="rgba(0,0,0,0)" d="m0 0 533.52 0 0 324.2-533.52 0z" class="plot"/>
          <g fill="none" class="main-layer">
            <g>
              <path width="25.4057" height="96.9015" x="0" y="227.2985" fill="rgba(24,144,255,1)" fill-opacity=".6" stroke="rgba(23,131,255,1)" stroke-width="0" d="m0 227.2985 25.4057 0 0 96.9015-25.4057 0z" class="element"/>
            </g>
            <g>
              <path width="25.4057" height="96.5026" x="25.4057" y="227.6974" fill="rgba(24,144,255,1)" fill-opacity=".6" stroke="rgba(23,131,255,1)" stroke-width="0" d="m25.4057 227.6974 25.4057 0 0 96.5026-25.4057 0z" class="element"/>
            </g>
            <g>
              <path width="25.4057" height="121.1755" x="50.8114" y="203.0245" fill="rgba(24,144,255,1)" fill-opacity=".6" stroke="rgba(23,131,255,1)" stroke-width="0" d="m50.8114 203.0245 25.4057 0 0 121.1755-25.4057 0z" class="element"/>
            </g>
            <g>
              <path width="25.4057" height="116.741" x="76.2171" y="207.459" fill="rgba(24,144,255,1)" fill-opacity=".6" stroke="rgba(23,131,255,1)" stroke-width="0" d="m76.2171 207.459 25.4058 0 0 116.741-25.4058 0z" class="element"/>
            </g>
            <g>
              <path width="25.4057" height="93.7532" x="101.6229" y="230.4468" fill="rgba(24,144,255,1)" fill-opacity=".6" stroke="rgba(23,131,255,1)" stroke-width="0" d="m101.6229 230.4468 25.4057 0 0 93.7532-25.4057 0z" class="element"/>
            </g>
            <g>
              <path width="25.4057" height="110.5025" x="127.0286" y="213.6975" fill="rgba(24,144,255,1)" fill-opacity=".6" stroke="rgba(23,131,255,1)" stroke-width="0" d="m127.0286 213.6975 25.4057 0 0 110.5025-25.4057 0z" class="element"/>
            </g>
            <g>
              <path width="25.4057" height="104.4107" x="152.4343" y="219.7893" fill="rgba(24,144,255,1)" fill-opacity=".6" stroke="rgba(23,131,255,1)" stroke-width="0" d="m152.4343 219.7893 25.4057 0 0 104.4107-25.4057 0z" class="element"/>
            </g>
            <g>
              <path width="25.4057" height="96.8343" x="177.84" y="227.3657" fill="rgba(24,144,255,1)" fill-opacity=".6" stroke="rgba(23,131,255,1)" stroke-width="0" d="m177.84 227.3657 25.4057 0 0 96.8343-25.4057 0z" class="element"/>
            </g>
            <g>
              <path width="25.4057" height="104.1904" x="203.2457" y="220.0096" fill="rgba(24,144,255,1)" fill-opacity=".6" stroke="rgba(23,131,255,1)" stroke-width="0" d="m203.2457 220.0096 25.4057 0 0 104.1904-25.4057 0z" class="element"/>
            </g>
            <g>
              <path width="25.4057" height="106.6558" x="228.6514" y="217.5442" fill="rgba(24,144,255,1)" fill-opacity=".6" stroke="rgba(23,131,255,1)" stroke-width="0" d="m228.6514 217.5442 25.4057 0 0 106.6558-25.4057 0z" class="element"/>
            </g>
            <g>
              <path width="25.4057" height="96.1752" x="254.0571" y="228.0248" fill="rgba(24,144,255,1)" fill-opacity=".6" stroke="rgba(23,131,255,1)" stroke-width="0" d="m254.0571 228.0248 25.4058 0 0 96.1752-25.4058 0z" class="element"/>
            </g>
            <g>
              <path width="25.4057" height="90.689" x="279.4629" y="233.511" fill="rgba(24,144,255,1)" fill-opacity=".6" stroke="rgba(23,131,255,1)" stroke-width="0" d="m279.4629 233.511 25.4057 0 0 90.689-25.4057 0z" class="element"/>
            </g>
            <g>
              <path width="25.4057" height="84.8459" x="304.8686" y="239.3541" fill="rgba(24,144,255,1)" fill-opacity=".6" stroke="rgba(23,131,255,1)" stroke-width="0" d="m304.8686 239.354 25.4057 0 0 84.846-25.4057 0z" class="element"/>
            </g>
            <g>
              <path width="25.4057" height="91.7042" x="330.2743" y="232.4958" fill="rgba(24,144,255,1)" fill-opacity=".6" stroke="rgba(23,131,255,1)" stroke-width="0" d="m330.2743 232.4958 25.4057 0 0 91.7042-25.4057 0z" class="element"/>
            </g>
            <g>
              <path width="25.4057" height="95.6039" x="355.68" y="228.5961" fill="rgba(24,144,255,1)" fill-opacity=".6" stroke="rgba(23,131,255,1)" stroke-width="0" d="m355.68 228.5961 25.4057 0 0 95.6039-25.4057 0z" class="element"/>
            </g>
            <g>
              <path width="25.4057" height="108.1967" x="381.0857" y="216.0033" fill="rgba(24,144,255,1)" fill-opacity=".6" stroke="rgba(23,131,255,1)" stroke-width="0" d="m381.0857 216.0033 25.4057 0 0 108.1967-25.4057 0z" class="element"/>
            </g>
            <g>
              <path width="25.4057" height="126.9076" x="406.4914" y="197.2924" fill="rgba(24,144,255,1)" fill-opacity=".6" stroke="rgba(23,131,255,1)" stroke-width="0" d="m406.4914 197.2924 25.4057 0 0 126.9076-25.4057 0z" class="element"/>
            </g>
            <g>
              <path width="25.4057" height="107.6413" x="431.8971" y="216.5587" fill="rgba(24,144,255,1)" fill-opacity=".6" stroke="rgba(23,131,255,1)" stroke-width="0" d="m431.8971 216.5587 25.4058 0 0 107.6413-25.4058 0z" class="element"/>
            </g>
            <g>
              <path width="25.4057" height="132.3595" x="457.3029" y="191.8405" fill="rgba(24,144,255,1)" fill-opacity=".6" stroke="rgba(23,131,255,1)" stroke-width="0" d="m457.3029 191.8405 25.4057 0 0 132.3595-25.4057 0z" class="element"/>
            </g>
            <g>
              <path width="25.4057" height="119.4143" x="482.7086" y="204.7857" fill="rgba(24,144,255,1)" fill-opacity=".6" stroke="rgba(23,131,255,1)" stroke-width="0" d="m482.7086 204.7857 25.4057 0 0 119.4143-25.4057 0z" class="element"/>
            </g>
            <g>
              <path width="25.4057" height="140.6076" x="508.1143" y="183.5924" fill="rgba(24,144,255,1)" fill-opacity=".6" stroke="rgba(23,131,255,1)" stroke-width="0" d="m508.1143 183.5924 25.4057 0 0 140.6076-25.4057 0z" class="element"/>
            </g>
          </g>
          <g fill="none" class="main-layer">
            <g>
              <path fill="none" stroke="rgba(255,77,79,1)" stroke-linecap="round" stroke-width="3" d="m12.703 308.792 25.406.334 25.405-.861 25.406-1.591 25.406-3.429 25.405.389 25.406-.71 25.406-1.109 25.406 2.586 25.405-1.971 25.406-1.091 25.406.582 25.405-1.178 25.406 1.299 25.406 1.341 25.406-2.218 25.405.44 25.406 4.322 25.406-1.68 25.405.542 25.406.465" class="element"/>
            </g>
          </g>
          <g fill="none" class="main-layer">
            <g>
              <path fill="rgba(82,196,26,1)" fill-opacity=".4" stroke="rgba(23,131,255,1)" stroke-width="0" d="m12.703 48.445 25.406 50.921 25.405-12.047 25.406 20.882 25.406-18.694 25.405 44.48 25.406-20.418 25.406 30.915 25.406.741 25.405.328 25.406 15.382 25.406 20.979 25.405-27.605 25.406 35.497 25.406-29.549 25.406 31.619 25.405-6.449 25.406 1.117 25.406-19.414 25.405 17.25 25.406 12.874 0 126.946-25.406 0-25.405 0-25.406 0-25.406 0-25.405 0-25.406 0-25.406 0-25.406 0-25.405 0-25.406 0-25.406 0-25.405 0-25.406 0-25.406 0-25.406 0-25.405 0-25.406 0-25.406 0-25.405 0-25.406 0Z" class="element"/>
            </g>
          </g>
          <g fill="none" class="label-layer"/>
        </g>
      </g>
    </g>
  </g>
</svg>
