<svg xmlns="http://www.w3.org/2000/svg" width="640" height="480" color-interpolation-filters="sRGB" style="background: transparent;">
  <defs>
    <clipPath id="c" transform="matrix(1 0 0 1 -90.72 -16)">
      <use href="#b"/>
    </clipPath>
    <path id="a" width="533.28" height="324.2" x="90.72" y="16" fill="none" d="m90.72 16 533.28 0 0 324.2-533.28 0z"/>
    <path id="b" width="533.28" height="324.92" x="90.72" y="16" fill="none" d="m90.72 16 533.28 0 0 324.92-533.28 0z"/>
  </defs>
  <g>
    <g fill="none">
      <g fill="none" class="view">
        <g>
          <path width="640" height="480" x="0" y="0" fill="rgba(0,0,0,0)" d="m0 0 640 0 0 480-640 0z" class="area"/>
        </g>
        <g>
          <path width="608" height="448" x="16" y="16" fill="rgba(0,0,0,0)" d="m16 16 608 0 0 448-608 0z" class="area"/>
        </g>
        <g>
          <path width="533.28" height="324.92" x="90.72" y="16" fill="rgba(0,0,0,0)" d="m90.72 16 533.28 0 0 324.92-533.28 0z" class="area"/>
        </g>
        <g>
          <path width="533.28" height="324.92" x="90.72" y="16" fill="rgba(0,0,0,0)" d="m90.72 16 533.28 0 0 324.92-533.28 0z" class="area"/>
        </g>
        <g fill="none" class="component">
          <g fill="none" class="slider">
            <g>
              <path width="533.28" height="16" x="90.72" y="440" fill="rgba(65,97,128,1)" d="m90.72 440 533.28 0 0 16-533.28 0z" class="slider-track" opacity=".05"/>
            </g>
            <g fill="none" class="slider-sparkline-group">
              <g fill="none" class="slider-sparkline">
                <g>
                  <path fill="none" class="container"/>
                </g>
                <g fill="none" class="spark sparkline" transform="matrix(1 0 0 1 90.72 440)">
                  <g fill="none">
                    <g>
                      <path fill="none" stroke="rgba(131,218,173,1)" stroke-width="1" d="M0 9.1425c0 0 5.3643-2.6698 9.0386-2.6698 3.5566 0 5.4091 1.2345 9.0387 1.2345 3.6013 0 5.4245-.2682 9.0386-.4835 3.6168-.2155 5.4705-.0458 9.0387-.5937 3.6627-.5623 5.373-1.8603 9.0386-2.1818 3.5654-.3127 5.4257-.1358 9.0387-.3127 3.618-.177 5.4308-.572 9.0386-.572 3.6231 0 5.5157 1.0115 9.0387 1.0115 3.708 0 5.3993-3.153 9.0386-3.153 3.5916 0 5.3434 2.7481 9.0386 2.7481 3.5357 0 5.4347 0 9.0387-.1118 3.627-.1126 5.4518-.4411 9.0386-1.0276 3.6441-.596 5.405-1.9284 9.0387-1.9284 3.5973 0 5.4028 1.421 9.0386 1.421 3.5951 0 5.4703 0 9.0387-.3944 3.6625-.4047 5.3764-2.1289 9.0386-2.1289 3.5687 0 5.4273.197 9.0386.4325 3.6196.236 5.423.7462 9.0387.7462 3.6151 0 5.55-.726 9.0386-.726 3.7422 0 5.4127 3.593 9.0387 3.593 3.605 0 5.3225-3.4374 9.0386-3.4374 3.5148 0 5.476.6023 9.0387 1.3994 3.6683.8206 5.3577 2.6447 9.0386 2.6447 3.55 0 5.4203-.569 9.0387-.8937 3.6125-.3243 5.4248-.7288 9.0386-.7288 3.6172 0 5.421.5226 9.0386.828 3.6133.305 5.4279.368 9.0387.698 3.62.3308 5.4141.704 9.0386.9538 3.6064.2486 5.5004 0 9.0387.2922 3.6926.305 5.354 1.979 9.0386 2.7154 3.5463.7087 5.415.671 9.0387.8973 3.6072.2252 5.4373 0 9.0386.2315 3.6296.2333 5.4182 1.1576 9.0387 1.1576 3.6105 0 5.4225-.9414 9.0386-.9414 3.6148 0 5.4164.6346 9.0386.9078 3.6087.2722 5.423.4556 9.0387.4556 3.6152 0 5.4415-.427 9.0386-.427 3.6338 0 5.4422 1.3647 9.0387 1.3647 3.6344 0 5.463-1.907 9.0386-1.907 3.6553 0 5.3537 1.987 9.0387 2.7357 3.5459.7206 5.4412.4337 9.0386.9377 3.6335.5092 5.407 1.5953 9.0387 1.5953 3.5992 0 5.4148-1.0226 9.0386-1.0226 3.6071 0 5.5085.5375 9.0386.5375 3.7008 0 5.486-2.899 9.0387-2.899 3.6783 0 5.277 3.859 9.0386 3.859 3.4693 0 5.5061 0 9.0387-.6778 3.6984-.7097 5.3856-2.8906 9.0386-2.8906 3.5779 0 5.393 2.1654 9.0387 2.1654 3.5852 0 5.4122-1.3592 9.0386-1.3592 3.6045 0 5.4312.4836 9.0386.9173 3.6235.4357 5.5167 1.256 9.0387 1.256 3.7089 0 5.3321-2.3192 9.0386-3.2634 3.5245-.898 5.5139-1.3419 9.0387-1.3419 3.706 0 5.3135 3.2573 9.0386 3.2573 3.5058 0 5.4944 0 9.0387-.2481 3.6866-.2581 5.41-1.6083 9.0386-2.6001 3.6023-.9846 5.4477-2.341 9.0387-2.341 3.6399 0 9.0386 2.8056 9.0386 2.8056" class="line"/>
                    </g>
                  </g>
                  <g fill="none"/>
                </g>
              </g>
            </g>
            <g>
              <path width="533.28" height="16" x="90.72" y="440" fill="rgba(0,0,0,0)" d="m90.72 440 533.28 0 0 16-533.28 0z" class="slider-brush-area"/>
            </g>
            <g fill="none" class="slider-foreground">
              <g transform="matrix(1 0 0 1 90.72 440)">
                <path width="0" height="16" fill="rgba(23,131,255,1)" fill-opacity=".15" d="m0 0 0 0 0 16 0 0z" class="slider-selection" visibility="hidden"/>
              </g>
              <g transform="matrix(1 0 0 1 90.72 440)">
                <path width="171.7162" height="16" x="0" fill="rgba(23,131,255,1)" fill-opacity=".15" d="m0 0 171.7162 0 0 16-171.7162 0z" class="slider-selection" visibility="visible"/>
              </g>
              <g transform="matrix(1 0 0 1 90.72 440)">
                <path width="361.5638" height="16" x="171.7162" fill="rgba(23,131,255,1)" fill-opacity=".15" d="m171.7162 0 361.5638 0 0 16-361.5638 0z" class="slider-selection" visibility="hidden"/>
              </g>
              <g fill="none" class="slider-handle start-handle" transform="matrix(1 0 0 1 90.72 448)">
                <g fill="none" class="handle-icon-group">
                  <g fill="none" class="handle-icon">
                    <g>
                      <path width="10" height="24" x="-5" y="-12" fill="rgba(247,247,247,1)" stroke="rgba(29,33,41,1)" stroke-opacity=".25" stroke-width="1" d="m-3-12 6 0a2 2 0 0 1 2 2l0 20a2 2 0 0 1-2 2l-6 0a2 2 0 0 1-2-2l0-20a2 2 0 0 1 2-2z" class="handle-icon-rect"/>
                      <g>
                        <line x1="-1.6667" x2="-1.6667" y1="-6" y2="6" fill="rgba(247,247,247,1)" stroke="rgba(29,33,41,1)" stroke-opacity=".25" stroke-width="1" class="handle-icon-line-1"/>
                      </g>
                      <g>
                        <line x1="1.6667" x2="1.6667" y1="-6" y2="6" fill="rgba(247,247,247,1)" stroke="rgba(29,33,41,1)" stroke-opacity=".25" stroke-width="1" class="handle-icon-line-2"/>
                      </g>
                    </g>
                  </g>
                </g>
                <g fill="none" class="handle-label-group">
                  <g>
                    <text x="29.36" y="0" fill="rgba(29,33,41,1)" fill-opacity=".45" class="handle-label" dominant-baseline="central" dx=".5" dy="0" font-size="12" font-weight="normal" paint-order="stroke" style="transform:translate(0px, 0px);" text-anchor="middle">Day-1</text>
                  </g>
                </g>
              </g>
              <g fill="none" class="slider-handle end-handle" transform="matrix(1 0 0 1 262.4362 448)">
                <g fill="none" class="handle-icon-group">
                  <g fill="none" class="handle-icon">
                    <g>
                      <path width="10" height="24" x="-5" y="-12" fill="rgba(247,247,247,1)" stroke="rgba(29,33,41,1)" stroke-opacity=".25" stroke-width="1" d="m-3-12 6 0a2 2 0 0 1 2 2l0 20a2 2 0 0 1-2 2l-6 0a2 2 0 0 1-2-2l0-20a2 2 0 0 1 2-2z" class="handle-icon-rect"/>
                      <g>
                        <line x1="-1.6667" x2="-1.6667" y1="-6" y2="6" fill="rgba(247,247,247,1)" stroke="rgba(29,33,41,1)" stroke-opacity=".25" stroke-width="1" class="handle-icon-line-1"/>
                      </g>
                      <g>
                        <line x1="1.6667" x2="1.6667" y1="-6" y2="6" fill="rgba(247,247,247,1)" stroke="rgba(29,33,41,1)" stroke-opacity=".25" stroke-width="1" class="handle-icon-line-2"/>
                      </g>
                    </g>
                  </g>
                </g>
                <g fill="none" class="handle-label-group">
                  <g>
                    <text x="34.04" y="0" fill="rgba(29,33,41,1)" fill-opacity=".45" class="handle-label" dominant-baseline="central" dx=".5" dy="0" font-size="12" font-weight="normal" paint-order="stroke" style="transform:translate(0px, 0px);" text-anchor="middle">Day-20</text>
                  </g>
                </g>
              </g>
            </g>
          </g>
        </g>
        <g fill="none" class="component">
          <g fill="none" class="axis">
            <g fill="none" class="axis-grid-group"/>
            <g fill="none" class="axis-main-group">
              <g fill="none" class="axis-line-group">
                <g>
                  <line x1="90.72" x2="624" y1="340.92" y2="340.92" fill="none" stroke="rgba(29,33,41,1)" stroke-opacity=".45" stroke-width=".5" class="axis-line axis-line" opacity="0"/>
                </g>
              </g>
              <g fill="none" class="axis-tick-group">
                <g fill="none" class="axis-tick" transform="matrix(1 0 0 1 104.052 340.92)">
                  <g>
                    <line x1="0" x2="0" y1="0" y2="4" fill="none" stroke="rgba(29,33,41,1)" stroke-width="1" class="axis-tick-item" opacity=".45"/>
                  </g>
                </g>
                <g fill="none" class="axis-tick" transform="matrix(1 0 0 1 130.716 340.92)">
                  <g>
                    <line x1="0" x2="0" y1="0" y2="4" fill="none" stroke="rgba(29,33,41,1)" stroke-width="1" class="axis-tick-item" opacity=".45"/>
                  </g>
                </g>
                <g fill="none" class="axis-tick" transform="matrix(1 0 0 1 157.38 340.92)">
                  <g>
                    <line x1="0" x2="0" y1="0" y2="4" fill="none" stroke="rgba(29,33,41,1)" stroke-width="1" class="axis-tick-item" opacity=".45"/>
                  </g>
                </g>
                <g fill="none" class="axis-tick" transform="matrix(1 0 0 1 184.044 340.92)">
                  <g>
                    <line x1="0" x2="0" y1="0" y2="4" fill="none" stroke="rgba(29,33,41,1)" stroke-width="1" class="axis-tick-item" opacity=".45"/>
                  </g>
                </g>
                <g fill="none" class="axis-tick" transform="matrix(1 0 0 1 210.708 340.92)">
                  <g>
                    <line x1="0" x2="0" y1="0" y2="4" fill="none" stroke="rgba(29,33,41,1)" stroke-width="1" class="axis-tick-item" opacity=".45"/>
                  </g>
                </g>
                <g fill="none" class="axis-tick" transform="matrix(1 0 0 1 237.372 340.92)">
                  <g>
                    <line x1="0" x2="0" y1="0" y2="4" fill="none" stroke="rgba(29,33,41,1)" stroke-width="1" class="axis-tick-item" opacity=".45"/>
                  </g>
                </g>
                <g fill="none" class="axis-tick" transform="matrix(1 0 0 1 264.036 340.92)">
                  <g>
                    <line x1="0" x2="0" y1="0" y2="4" fill="none" stroke="rgba(29,33,41,1)" stroke-width="1" class="axis-tick-item" opacity=".45"/>
                  </g>
                </g>
                <g fill="none" class="axis-tick" transform="matrix(1 0 0 1 290.7 340.92)">
                  <g>
                    <line x1="0" x2="0" y1="0" y2="4" fill="none" stroke="rgba(29,33,41,1)" stroke-width="1" class="axis-tick-item" opacity=".45"/>
                  </g>
                </g>
                <g fill="none" class="axis-tick" transform="matrix(1 0 0 1 317.364 340.92)">
                  <g>
                    <line x1="0" x2="0" y1="0" y2="4" fill="none" stroke="rgba(29,33,41,1)" stroke-width="1" class="axis-tick-item" opacity=".45"/>
                  </g>
                </g>
                <g fill="none" class="axis-tick" transform="matrix(1 0 0 1 344.028 340.92)">
                  <g>
                    <line x1="0" x2="0" y1="0" y2="4" fill="none" stroke="rgba(29,33,41,1)" stroke-width="1" class="axis-tick-item" opacity=".45"/>
                  </g>
                </g>
                <g fill="none" class="axis-tick" transform="matrix(1 0 0 1 370.692 340.92)">
                  <g>
                    <line x1="0" x2="0" y1="0" y2="4" fill="none" stroke="rgba(29,33,41,1)" stroke-width="1" class="axis-tick-item" opacity=".45"/>
                  </g>
                </g>
                <g fill="none" class="axis-tick" transform="matrix(1 0 0 1 397.356 340.92)">
                  <g>
                    <line x1="0" x2="0" y1="0" y2="4" fill="none" stroke="rgba(29,33,41,1)" stroke-width="1" class="axis-tick-item" opacity=".45"/>
                  </g>
                </g>
                <g fill="none" class="axis-tick" transform="matrix(1 0 0 1 424.02 340.92)">
                  <g>
                    <line x1="0" x2="0" y1="0" y2="4" fill="none" stroke="rgba(29,33,41,1)" stroke-width="1" class="axis-tick-item" opacity=".45"/>
                  </g>
                </g>
                <g fill="none" class="axis-tick" transform="matrix(1 0 0 1 450.684 340.92)">
                  <g>
                    <line x1="0" x2="0" y1="0" y2="4" fill="none" stroke="rgba(29,33,41,1)" stroke-width="1" class="axis-tick-item" opacity=".45"/>
                  </g>
                </g>
                <g fill="none" class="axis-tick" transform="matrix(1 0 0 1 477.348 340.92)">
                  <g>
                    <line x1="0" x2="0" y1="0" y2="4" fill="none" stroke="rgba(29,33,41,1)" stroke-width="1" class="axis-tick-item" opacity=".45"/>
                  </g>
                </g>
                <g fill="none" class="axis-tick" transform="matrix(1 0 0 1 504.012 340.92)">
                  <g>
                    <line x1="0" x2="0" y1="0" y2="4" fill="none" stroke="rgba(29,33,41,1)" stroke-width="1" class="axis-tick-item" opacity=".45"/>
                  </g>
                </g>
                <g fill="none" class="axis-tick" transform="matrix(1 0 0 1 530.676 340.92)">
                  <g>
                    <line x1="0" x2="0" y1="0" y2="4" fill="none" stroke="rgba(29,33,41,1)" stroke-width="1" class="axis-tick-item" opacity=".45"/>
                  </g>
                </g>
                <g fill="none" class="axis-tick" transform="matrix(1 0 0 1 557.34 340.92)">
                  <g>
                    <line x1="0" x2="0" y1="0" y2="4" fill="none" stroke="rgba(29,33,41,1)" stroke-width="1" class="axis-tick-item" opacity=".45"/>
                  </g>
                </g>
                <g fill="none" class="axis-tick" transform="matrix(1 0 0 1 584.004 340.92)">
                  <g>
                    <line x1="0" x2="0" y1="0" y2="4" fill="none" stroke="rgba(29,33,41,1)" stroke-width="1" class="axis-tick-item" opacity=".45"/>
                  </g>
                </g>
                <g fill="none" class="axis-tick" transform="matrix(1 0 0 1 610.668 340.92)">
                  <g>
                    <line x1="0" x2="0" y1="0" y2="4" fill="none" stroke="rgba(29,33,41,1)" stroke-width="1" class="axis-tick-item" opacity=".45"/>
                  </g>
                </g>
              </g>
              <g fill="none" class="axis-label-group">
                <g fill="none" class="axis-label" transform="matrix(1 0 0 1 104.052 348.92)">
                  <g transform="matrix(0 1 -1 0 0 0)">
                    <text fill="rgba(29,33,41,1)" stroke-width="1" class="axis-label-item" dominant-baseline="central" dx=".5" dy="0" font-family="sans-serif" font-size="12" font-style="normal" font-variant="normal" font-weight="normal" opacity=".45" paint-order="stroke" style="transform:translate(0px, 0px);" text-anchor="left" visibility="visible">Day-1</text>
                  </g>
                </g>
                <g fill="none" class="axis-label" transform="matrix(1 0 0 1 130.716 348.92)">
                  <g transform="matrix(0 1 -1 0 0 0)">
                    <text fill="rgba(29,33,41,1)" stroke-width="1" class="axis-label-item" dominant-baseline="central" dx=".5" dy="0" font-family="sans-serif" font-size="12" font-style="normal" font-variant="normal" font-weight="normal" opacity=".45" paint-order="stroke" style="transform:translate(0px, 0px);" text-anchor="left" visibility="visible">Day-2</text>
                  </g>
                </g>
                <g fill="none" class="axis-label" transform="matrix(1 0 0 1 157.38 348.92)">
                  <g transform="matrix(0 1 -1 0 0 0)">
                    <text fill="rgba(29,33,41,1)" stroke-width="1" class="axis-label-item" dominant-baseline="central" dx=".5" dy="0" font-family="sans-serif" font-size="12" font-style="normal" font-variant="normal" font-weight="normal" opacity=".45" paint-order="stroke" style="transform:translate(0px, 0px);" text-anchor="left" visibility="visible">Day-3</text>
                  </g>
                </g>
                <g fill="none" class="axis-label" transform="matrix(1 0 0 1 184.044 348.92)">
                  <g transform="matrix(0 1 -1 0 0 0)">
                    <text fill="rgba(29,33,41,1)" stroke-width="1" class="axis-label-item" dominant-baseline="central" dx=".5" dy="0" font-family="sans-serif" font-size="12" font-style="normal" font-variant="normal" font-weight="normal" opacity=".45" paint-order="stroke" style="transform:translate(0px, 0px);" text-anchor="left" visibility="visible">Day-4</text>
                  </g>
                </g>
                <g fill="none" class="axis-label" transform="matrix(1 0 0 1 210.708 348.92)">
                  <g transform="matrix(0 1 -1 0 0 0)">
                    <text fill="rgba(29,33,41,1)" stroke-width="1" class="axis-label-item" dominant-baseline="central" dx=".5" dy="0" font-family="sans-serif" font-size="12" font-style="normal" font-variant="normal" font-weight="normal" opacity=".45" paint-order="stroke" style="transform:translate(0px, 0px);" text-anchor="left" visibility="visible">Day-5</text>
                  </g>
                </g>
                <g fill="none" class="axis-label" transform="matrix(1 0 0 1 237.372 348.92)">
                  <g transform="matrix(0 1 -1 0 0 0)">
                    <text fill="rgba(29,33,41,1)" stroke-width="1" class="axis-label-item" dominant-baseline="central" dx=".5" dy="0" font-family="sans-serif" font-size="12" font-style="normal" font-variant="normal" font-weight="normal" opacity=".45" paint-order="stroke" style="transform:translate(0px, 0px);" text-anchor="left" visibility="visible">Day-6</text>
                  </g>
                </g>
                <g fill="none" class="axis-label" transform="matrix(1 0 0 1 264.036 348.92)">
                  <g transform="matrix(0 1 -1 0 0 0)">
                    <text fill="rgba(29,33,41,1)" stroke-width="1" class="axis-label-item" dominant-baseline="central" dx=".5" dy="0" font-family="sans-serif" font-size="12" font-style="normal" font-variant="normal" font-weight="normal" opacity=".45" paint-order="stroke" style="transform:translate(0px, 0px);" text-anchor="left" visibility="visible">Day-7</text>
                  </g>
                </g>
                <g fill="none" class="axis-label" transform="matrix(1 0 0 1 290.7 348.92)">
                  <g transform="matrix(0 1 -1 0 0 0)">
                    <text fill="rgba(29,33,41,1)" stroke-width="1" class="axis-label-item" dominant-baseline="central" dx=".5" dy="0" font-family="sans-serif" font-size="12" font-style="normal" font-variant="normal" font-weight="normal" opacity=".45" paint-order="stroke" style="transform:translate(0px, 0px);" text-anchor="left" visibility="visible">Day-8</text>
                  </g>
                </g>
                <g fill="none" class="axis-label" transform="matrix(1 0 0 1 317.364 348.92)">
                  <g transform="matrix(0 1 -1 0 0 0)">
                    <text fill="rgba(29,33,41,1)" stroke-width="1" class="axis-label-item" dominant-baseline="central" dx=".5" dy="0" font-family="sans-serif" font-size="12" font-style="normal" font-variant="normal" font-weight="normal" opacity=".45" paint-order="stroke" style="transform:translate(0px, 0px);" text-anchor="left" visibility="visible">Day-9</text>
                  </g>
                </g>
                <g fill="none" class="axis-label" transform="matrix(1 0 0 1 344.028 348.92)">
                  <g transform="matrix(0 1 -1 0 0 0)">
                    <text fill="rgba(29,33,41,1)" stroke-width="1" class="axis-label-item" dominant-baseline="central" dx=".5" dy="0" font-family="sans-serif" font-size="12" font-style="normal" font-variant="normal" font-weight="normal" opacity=".45" paint-order="stroke" style="transform:translate(0px, 0px);" text-anchor="left" visibility="visible">Day-10</text>
                  </g>
                </g>
                <g fill="none" class="axis-label" transform="matrix(1 0 0 1 370.692 348.92)">
                  <g transform="matrix(0 1 -1 0 0 0)">
                    <text fill="rgba(29,33,41,1)" stroke-width="1" class="axis-label-item" dominant-baseline="central" dx=".5" dy="0" font-family="sans-serif" font-size="12" font-style="normal" font-variant="normal" font-weight="normal" opacity=".45" paint-order="stroke" style="transform:translate(0px, 0px);" text-anchor="left" visibility="visible">Day-11</text>
                  </g>
                </g>
                <g fill="none" class="axis-label" transform="matrix(1 0 0 1 397.356 348.92)">
                  <g transform="matrix(0 1 -1 0 0 0)">
                    <text fill="rgba(29,33,41,1)" stroke-width="1" class="axis-label-item" dominant-baseline="central" dx=".5" dy="0" font-family="sans-serif" font-size="12" font-style="normal" font-variant="normal" font-weight="normal" opacity=".45" paint-order="stroke" style="transform:translate(0px, 0px);" text-anchor="left" visibility="visible">Day-12</text>
                  </g>
                </g>
                <g fill="none" class="axis-label" transform="matrix(1 0 0 1 424.02 348.92)">
                  <g transform="matrix(0 1 -1 0 0 0)">
                    <text fill="rgba(29,33,41,1)" stroke-width="1" class="axis-label-item" dominant-baseline="central" dx=".5" dy="0" font-family="sans-serif" font-size="12" font-style="normal" font-variant="normal" font-weight="normal" opacity=".45" paint-order="stroke" style="transform:translate(0px, 0px);" text-anchor="left" visibility="visible">Day-13</text>
                  </g>
                </g>
                <g fill="none" class="axis-label" transform="matrix(1 0 0 1 450.684 348.92)">
                  <g transform="matrix(0 1 -1 0 0 0)">
                    <text fill="rgba(29,33,41,1)" stroke-width="1" class="axis-label-item" dominant-baseline="central" dx=".5" dy="0" font-family="sans-serif" font-size="12" font-style="normal" font-variant="normal" font-weight="normal" opacity=".45" paint-order="stroke" style="transform:translate(0px, 0px);" text-anchor="left" visibility="visible">Day-14</text>
                  </g>
                </g>
                <g fill="none" class="axis-label" transform="matrix(1 0 0 1 477.348 348.92)">
                  <g transform="matrix(0 1 -1 0 0 0)">
                    <text fill="rgba(29,33,41,1)" stroke-width="1" class="axis-label-item" dominant-baseline="central" dx=".5" dy="0" font-family="sans-serif" font-size="12" font-style="normal" font-variant="normal" font-weight="normal" opacity=".45" paint-order="stroke" style="transform:translate(0px, 0px);" text-anchor="left" visibility="visible">Day-15</text>
                  </g>
                </g>
                <g fill="none" class="axis-label" transform="matrix(1 0 0 1 504.012 348.92)">
                  <g transform="matrix(0 1 -1 0 0 0)">
                    <text fill="rgba(29,33,41,1)" stroke-width="1" class="axis-label-item" dominant-baseline="central" dx=".5" dy="0" font-family="sans-serif" font-size="12" font-style="normal" font-variant="normal" font-weight="normal" opacity=".45" paint-order="stroke" style="transform:translate(0px, 0px);" text-anchor="left" visibility="visible">Day-16</text>
                  </g>
                </g>
                <g fill="none" class="axis-label" transform="matrix(1 0 0 1 530.676 348.92)">
                  <g transform="matrix(0 1 -1 0 0 0)">
                    <text fill="rgba(29,33,41,1)" stroke-width="1" class="axis-label-item" dominant-baseline="central" dx=".5" dy="0" font-family="sans-serif" font-size="12" font-style="normal" font-variant="normal" font-weight="normal" opacity=".45" paint-order="stroke" style="transform:translate(0px, 0px);" text-anchor="left" visibility="visible">Day-17</text>
                  </g>
                </g>
                <g fill="none" class="axis-label" transform="matrix(1 0 0 1 557.34 348.92)">
                  <g transform="matrix(0 1 -1 0 0 0)">
                    <text fill="rgba(29,33,41,1)" stroke-width="1" class="axis-label-item" dominant-baseline="central" dx=".5" dy="0" font-family="sans-serif" font-size="12" font-style="normal" font-variant="normal" font-weight="normal" opacity=".45" paint-order="stroke" style="transform:translate(0px, 0px);" text-anchor="left" visibility="visible">Day-18</text>
                  </g>
                </g>
                <g fill="none" class="axis-label" transform="matrix(1 0 0 1 584.004 348.92)">
                  <g transform="matrix(0 1 -1 0 0 0)">
                    <text fill="rgba(29,33,41,1)" stroke-width="1" class="axis-label-item" dominant-baseline="central" dx=".5" dy="0" font-family="sans-serif" font-size="12" font-style="normal" font-variant="normal" font-weight="normal" opacity=".45" paint-order="stroke" style="transform:translate(0px, 0px);" text-anchor="left" visibility="visible">Day-19</text>
                  </g>
                </g>
                <g fill="none" class="axis-label" transform="matrix(1 0 0 1 610.668 348.92)">
                  <g transform="matrix(0 1 -1 0 0 0)">
                    <text fill="rgba(29,33,41,1)" stroke-width="1" class="axis-label-item" dominant-baseline="central" dx=".5" dy="0" font-family="sans-serif" font-size="12" font-style="normal" font-variant="normal" font-weight="normal" opacity=".45" paint-order="stroke" style="transform:translate(0px, 0px);" text-anchor="left" visibility="visible">Day-20</text>
                  </g>
                </g>
              </g>
            </g>
            <g fill="none" class="axis-title-group" transform="matrix(1 0 0 1 357.36 416.5)">
              <g transform="matrix(1 0 0 1 0 8)">
                <text fill="rgba(29,33,41,1)" stroke-width="1" class="axis-title" dominant-baseline="central" dx=".5" dy="-11.5" font-family="sans-serif" font-size="12" font-style="normal" font-variant="normal" font-weight="normal" opacity=".9" paint-order="stroke" style="transform:translate(0px, 0px);" text-anchor="middle">date</text>
              </g>
            </g>
          </g>
        </g>
        <g fill="none" class="component">
          <g fill="none" class="axis">
            <g fill="none" class="axis-grid-group">
              <g fill="none" class="axis-grid">
                <g fill="none" class="grid-line-group">
                  <g>
                    <path fill="none" stroke="rgba(29,33,41,1)" stroke-dasharray="3,4" stroke-opacity=".1" stroke-width=".5" d="m90.72 340.92 533.28 0" class="grid-line"/>
                  </g>
                  <g>
                    <path fill="none" stroke="rgba(29,33,41,1)" stroke-dasharray="3,4" stroke-opacity=".1" stroke-width=".5" d="m90.72 286.7667 533.28 0" class="grid-line"/>
                  </g>
                  <g>
                    <path fill="none" stroke="rgba(29,33,41,1)" stroke-dasharray="3,4" stroke-opacity=".1" stroke-width=".5" d="m90.72 232.6133 533.28 0" class="grid-line"/>
                  </g>
                  <g>
                    <path fill="none" stroke="rgba(29,33,41,1)" stroke-dasharray="3,4" stroke-opacity=".1" stroke-width=".5" d="m90.72 178.46 533.28 0" class="grid-line"/>
                  </g>
                  <g>
                    <path fill="none" stroke="rgba(29,33,41,1)" stroke-dasharray="3,4" stroke-opacity=".1" stroke-width=".5" d="m90.72 124.3067 533.28 0" class="grid-line"/>
                  </g>
                  <g>
                    <path fill="none" stroke="rgba(29,33,41,1)" stroke-dasharray="3,4" stroke-opacity=".1" stroke-width=".5" d="m90.72 70.1533 533.28 0" class="grid-line"/>
                  </g>
                  <g>
                    <path fill="none" stroke="rgba(29,33,41,1)" stroke-dasharray="3,4" stroke-opacity=".1" stroke-width=".5" d="m90.72 16 533.28 0" class="grid-line"/>
                  </g>
                </g>
                <g fill="none" class="grid-region-group"/>
              </g>
            </g>
            <g fill="none" class="axis-main-group">
              <g fill="none" class="axis-line-group">
                <g>
                  <line x1="90.72" x2="90.72" y1="340.92" y2="16" fill="none" stroke="rgba(29,33,41,1)" stroke-opacity=".45" stroke-width=".5" class="axis-line axis-line" opacity="0"/>
                </g>
              </g>
              <g fill="none" class="axis-tick-group">
                <g fill="none" class="axis-tick" transform="matrix(1 0 0 1 90.72 340.92)">
                  <g>
                    <line x1="0" x2="-4" y1="0" y2="0" fill="none" stroke="rgba(29,33,41,1)" stroke-width="1" class="axis-tick-item" opacity=".45"/>
                  </g>
                </g>
                <g fill="none" class="axis-tick" transform="matrix(1 0 0 1 90.72 286.7667)">
                  <g>
                    <line x1="0" x2="-4" y1="0" y2="0" fill="none" stroke="rgba(29,33,41,1)" stroke-width="1" class="axis-tick-item" opacity=".45"/>
                  </g>
                </g>
                <g fill="none" class="axis-tick" transform="matrix(1 0 0 1 90.72 232.6133)">
                  <g>
                    <line x1="0" x2="-4" y1="0" y2="0" fill="none" stroke="rgba(29,33,41,1)" stroke-width="1" class="axis-tick-item" opacity=".45"/>
                  </g>
                </g>
                <g fill="none" class="axis-tick" transform="matrix(1 0 0 1 90.72 178.46)">
                  <g>
                    <line x1="0" x2="-4" y1="0" y2="0" fill="none" stroke="rgba(29,33,41,1)" stroke-width="1" class="axis-tick-item" opacity=".45"/>
                  </g>
                </g>
                <g fill="none" class="axis-tick" transform="matrix(1 0 0 1 90.72 124.3067)">
                  <g>
                    <line x1="0" x2="-4" y1="0" y2="0" fill="none" stroke="rgba(29,33,41,1)" stroke-width="1" class="axis-tick-item" opacity=".45"/>
                  </g>
                </g>
                <g fill="none" class="axis-tick" transform="matrix(1 0 0 1 90.72 70.1533)">
                  <g>
                    <line x1="0" x2="-4" y1="0" y2="0" fill="none" stroke="rgba(29,33,41,1)" stroke-width="1" class="axis-tick-item" opacity=".45"/>
                  </g>
                </g>
                <g fill="none" class="axis-tick" transform="matrix(1 0 0 1 90.72 16)">
                  <g>
                    <line x1="0" x2="-4" y1="0" y2="0" fill="none" stroke="rgba(29,33,41,1)" stroke-width="1" class="axis-tick-item" opacity=".45"/>
                  </g>
                </g>
              </g>
              <g fill="none" class="axis-label-group">
                <g fill="none" class="axis-label" transform="matrix(1 0 0 1 82.72 340.92)">
                  <g>
                    <text fill="rgba(29,33,41,1)" stroke-width="1" class="axis-label-item" dominant-baseline="central" dx=".5" dy="0" font-family="sans-serif" font-size="12" font-style="normal" font-variant="normal" font-weight="normal" opacity=".45" paint-order="stroke" style="transform:translate(0px, 0px);" text-anchor="end" visibility="visible">0</text>
                  </g>
                </g>
                <g fill="none" class="axis-label" transform="matrix(1 0 0 1 82.72 286.7667)">
                  <g>
                    <text fill="rgba(29,33,41,1)" stroke-width="1" class="axis-label-item" dominant-baseline="central" dx=".5" dy="0" font-family="sans-serif" font-size="12" font-style="normal" font-variant="normal" font-weight="normal" opacity=".45" paint-order="stroke" style="transform:translate(0px, 0px);" text-anchor="end" visibility="visible">500</text>
                  </g>
                </g>
                <g fill="none" class="axis-label" transform="matrix(1 0 0 1 82.72 232.6133)">
                  <g>
                    <text fill="rgba(29,33,41,1)" stroke-width="1" class="axis-label-item" dominant-baseline="central" dx=".5" dy="0" font-family="sans-serif" font-size="12" font-style="normal" font-variant="normal" font-weight="normal" opacity=".45" paint-order="stroke" style="transform:translate(0px, 0px);" text-anchor="end" visibility="visible">1000</text>
                  </g>
                </g>
                <g fill="none" class="axis-label" transform="matrix(1 0 0 1 82.72 178.46)">
                  <g>
                    <text fill="rgba(29,33,41,1)" stroke-width="1" class="axis-label-item" dominant-baseline="central" dx=".5" dy="0" font-family="sans-serif" font-size="12" font-style="normal" font-variant="normal" font-weight="normal" opacity=".45" paint-order="stroke" style="transform:translate(0px, 0px);" text-anchor="end" visibility="visible">1500</text>
                  </g>
                </g>
                <g fill="none" class="axis-label" transform="matrix(1 0 0 1 82.72 124.3067)">
                  <g>
                    <text fill="rgba(29,33,41,1)" stroke-width="1" class="axis-label-item" dominant-baseline="central" dx=".5" dy="0" font-family="sans-serif" font-size="12" font-style="normal" font-variant="normal" font-weight="normal" opacity=".45" paint-order="stroke" style="transform:translate(0px, 0px);" text-anchor="end" visibility="visible">2000</text>
                  </g>
                </g>
                <g fill="none" class="axis-label" transform="matrix(1 0 0 1 82.72 70.1533)">
                  <g>
                    <text fill="rgba(29,33,41,1)" stroke-width="1" class="axis-label-item" dominant-baseline="central" dx=".5" dy="0" font-family="sans-serif" font-size="12" font-style="normal" font-variant="normal" font-weight="normal" opacity=".45" paint-order="stroke" style="transform:translate(0px, 0px);" text-anchor="end" visibility="visible">2500</text>
                  </g>
                </g>
                <g fill="none" class="axis-label" transform="matrix(1 0 0 1 82.72 16)">
                  <g>
                    <text fill="rgba(29,33,41,1)" stroke-width="1" class="axis-label-item" dominant-baseline="central" dx=".5" dy="0" font-family="sans-serif" font-size="12" font-style="normal" font-variant="normal" font-weight="normal" opacity=".45" paint-order="stroke" style="transform:translate(0px, 0px);" text-anchor="end" visibility="visible">3000</text>
                  </g>
                </g>
              </g>
            </g>
            <g fill="none" class="axis-title-group" transform="matrix(1 0 0 1 28.5 178.46)">
              <g transform="matrix(0 -1 1 0 -7.5 .5)">
                <text fill="rgba(29,33,41,1)" stroke-width="1" class="axis-title" dominant-baseline="central" dx=".5" dy="0" font-family="sans-serif" font-size="12" font-style="normal" font-variant="normal" font-weight="normal" opacity=".9" paint-order="stroke" style="transform:translate(0px, 0px);" text-anchor="middle">sales</text>
              </g>
            </g>
          </g>
        </g>
        <g clip-path="url(#c)" transform="matrix(1 0 0 1 90.72 16)">
          <path width="533.28" height="324.92" fill="rgba(0,0,0,0)" d="m0 0 533.28 0 0 324.92-533.28 0z" class="plot"/>
          <g fill="none" class="main-layer">
            <g>
              <path width="26.664" height="123.6701" x="319.968" y="201.2499" fill="rgba(24,144,255,1)" fill-opacity=".6" stroke="rgba(23,131,255,1)" stroke-width="0" d="m319.968 201.25 26.664 0 0 123.67-26.664 0z" class="element"/>
            </g>
            <g>
              <path width="26.664" height="133.7453" x="346.632" y="191.1747" fill="rgba(24,144,255,1)" fill-opacity=".6" stroke="rgba(23,131,255,1)" stroke-width="0" d="m346.632 191.1747 26.664 0 0 133.7453-26.664 0z" class="element"/>
            </g>
            <g>
              <path width="26.664" height="126.3213" x="373.296" y="198.5987" fill="rgba(24,144,255,1)" fill-opacity=".6" stroke="rgba(23,131,255,1)" stroke-width="0" d="m373.296 198.5987 26.664 0 0 126.3213-26.664 0z" class="element"/>
            </g>
            <g>
              <path width="26.664" height="128.3816" x="399.96" y="196.5384" fill="rgba(24,144,255,1)" fill-opacity=".6" stroke="rgba(23,131,255,1)" stroke-width="0" d="m399.96 196.5384 26.664 0 0 128.3816-26.664 0z" class="element"/>
            </g>
            <g>
              <path width="26.664" height="139.5048" x="426.624" y="185.4152" fill="rgba(24,144,255,1)" fill-opacity=".6" stroke="rgba(23,131,255,1)" stroke-width="0" d="m426.624 185.4152 26.664 0 0 139.5048-26.664 0z" class="element"/>
            </g>
            <g>
              <path width="26.664" height="137.2452" x="453.288" y="187.6748" fill="rgba(24,144,255,1)" fill-opacity=".6" stroke="rgba(23,131,255,1)" stroke-width="0" d="m453.288 187.6748 26.664 0 0 137.2452-26.664 0z" class="element"/>
            </g>
            <g>
              <path width="26.664" height="133.346" x="479.952" y="191.574" fill="rgba(24,144,255,1)" fill-opacity=".6" stroke="rgba(23,131,255,1)" stroke-width="0" d="m479.952 191.574 26.664 0 0 133.346-26.664 0z" class="element"/>
            </g>
            <g>
              <path width="26.664" height="137.1392" x="506.616" y="187.7808" fill="rgba(24,144,255,1)" fill-opacity=".6" stroke="rgba(23,131,255,1)" stroke-width="0" d="m506.616 187.7808 26.664 0 0 137.1392-26.664 0z" class="element"/>
            </g>
            <g>
              <path width="26.664" height="91.7362" x="0" y="233.1838" fill="rgba(24,144,255,1)" fill-opacity=".6" stroke="rgba(23,131,255,1)" stroke-width="0" d="m0 233.1838 26.664 0 0 91.7362-26.664 0z" class="element"/>
            </g>
            <g>
              <path width="26.664" height="105.6858" x="26.664" y="219.2342" fill="rgba(24,144,255,1)" fill-opacity=".6" stroke="rgba(23,131,255,1)" stroke-width="0" d="m26.664 219.2342 26.664 0 0 105.6858-26.664 0z" class="element"/>
            </g>
            <g>
              <path width="26.664" height="99.2357" x="53.328" y="225.6843" fill="rgba(24,144,255,1)" fill-opacity=".6" stroke="rgba(23,131,255,1)" stroke-width="0" d="m53.328 225.6843 26.664 0 0 99.2357-26.664 0z" class="element"/>
            </g>
            <g>
              <path width="26.664" height="101.7621" x="79.992" y="223.1579" fill="rgba(24,144,255,1)" fill-opacity=".6" stroke="rgba(23,131,255,1)" stroke-width="0" d="m79.992 223.158 26.664 0 0 101.762-26.664 0z" class="element"/>
            </g>
            <g>
              <path width="26.664" height="104.8637" x="106.656" y="220.0563" fill="rgba(24,144,255,1)" fill-opacity=".6" stroke="rgba(23,131,255,1)" stroke-width="0" d="m106.656 220.0563 26.664 0 0 104.8637-26.664 0z" class="element"/>
            </g>
            <g>
              <path width="26.664" height="116.2635" x="133.32" y="208.6565" fill="rgba(24,144,255,1)" fill-opacity=".6" stroke="rgba(23,131,255,1)" stroke-width="0" d="m133.32 208.6565 26.664 0 0 116.2635-26.664 0z" class="element"/>
            </g>
            <g>
              <path width="26.664" height="117.8973" x="159.984" y="207.0227" fill="rgba(24,144,255,1)" fill-opacity=".6" stroke="rgba(23,131,255,1)" stroke-width="0" d="m159.984 207.0227 26.664 0 0 117.8973-26.664 0z" class="element"/>
            </g>
            <g>
              <path width="26.664" height="120.8864" x="186.648" y="204.0336" fill="rgba(24,144,255,1)" fill-opacity=".6" stroke="rgba(23,131,255,1)" stroke-width="0" d="m186.648 204.0336 26.664 0 0 120.8864-26.664 0z" class="element"/>
            </g>
            <g>
              <path width="26.664" height="115.601" x="213.312" y="209.319" fill="rgba(24,144,255,1)" fill-opacity=".6" stroke="rgba(23,131,255,1)" stroke-width="0" d="m213.312 209.319 26.664 0 0 115.601-26.664 0z" class="element"/>
            </g>
            <g>
              <path width="26.664" height="132.0754" x="239.976" y="192.8446" fill="rgba(24,144,255,1)" fill-opacity=".6" stroke="rgba(23,131,255,1)" stroke-width="0" d="m239.976 192.8446 26.664 0 0 132.0754-26.664 0z" class="element"/>
            </g>
            <g>
              <path width="26.664" height="117.7166" x="266.64" y="207.2034" fill="rgba(24,144,255,1)" fill-opacity=".6" stroke="rgba(23,131,255,1)" stroke-width="0" d="m266.64 207.2034 26.664 0 0 117.7166-26.664 0z" class="element"/>
            </g>
            <g>
              <path width="26.664" height="118.3009" x="293.304" y="206.6191" fill="rgba(24,144,255,1)" fill-opacity=".6" stroke="rgba(23,131,255,1)" stroke-width="0" d="m293.304 206.6191 26.664 0 0 118.3009-26.664 0z" class="element"/>
            </g>
          </g>
          <g fill="none" class="main-layer">
            <g>
              <path fill="none" stroke="rgba(255,77,79,1)" stroke-linecap="round" stroke-width="3" d="m13.332 310.541 26.664-.163 26.664 1.041 26.664-1.484 26.664.429 26.664 1.259 26.664-.482 26.664 1.939 26.664-1.249 26.664 2.399 26.664-.775 26.664.742 26.664.691 26.664 1.684 26.664-.512 26.664.35 26.664 1.45 26.664.458 26.664-.303 26.664.567" class="element"/>
            </g>
          </g>
          <g fill="none" class="main-layer">
            <g>
              <path fill="rgba(82,196,26,1)" fill-opacity=".4" stroke="rgba(23,131,255,1)" stroke-width="0" d="m13.332 151.699 26.664-8.342 26.664-2.079 26.664-10.48 26.664-10.84 26.664-12.434 26.664 10.457 26.664-25.529 26.664-11.112 26.664 20.783 26.664-14.756 26.664-17.069 26.664 7.149 26.664 4.345 26.664-29.244 26.664 9.842 26.664-8.447 26.664 4.904 26.664 4.005 26.664-4.883 0 266.951-26.664 0-26.664 0-26.664 0-26.664 0-26.664 0-26.664 0-26.664 0-26.664 0-26.664 0-26.664 0-26.664 0-26.664 0-26.664 0-26.664 0-26.664 0-26.664 0-26.664 0-26.664 0-26.664 0Z" class="element"/>
            </g>
          </g>
          <g fill="none" class="label-layer"/>
        </g>
      </g>
    </g>
  </g>
</svg>
